<?xml version="1.0" encoding="utf-8" standalone="no"?>
<!DOCTYPE svg PUBLIC "-//W3C//DTD SVG 1.1//EN"
  "http://www.w3.org/Graphics/SVG/1.1/DTD/svg11.dtd">
<svg xmlns:xlink="http://www.w3.org/1999/xlink" width="460.8pt" height="345.6pt" viewBox="0 0 460.8 345.6" xmlns="http://www.w3.org/2000/svg" version="1.1">
 <metadata>
  <rdf:RDF xmlns:dc="http://purl.org/dc/elements/1.1/" xmlns:cc="http://creativecommons.org/ns#" xmlns:rdf="http://www.w3.org/1999/02/22-rdf-syntax-ns#">
   <cc:Work>
    <dc:type rdf:resource="http://purl.org/dc/dcmitype/StillImage"/>
    <dc:date>2025-05-19T15:59:14.311836</dc:date>
    <dc:format>image/svg+xml</dc:format>
    <dc:creator>
     <cc:Agent>
      <dc:title>Matplotlib v3.7.5, https://matplotlib.org/</dc:title>
     </cc:Agent>
    </dc:creator>
   </cc:Work>
  </rdf:RDF>
 </metadata>
 <defs>
  <style type="text/css">*{stroke-linejoin: round; stroke-linecap: butt}</style>
 </defs>
 <g id="figure_1">
  <g id="patch_1">
   <path d="M 0 345.6 
L 460.8 345.6 
L 460.8 0 
L 0 0 
z
" style="fill: #ffffff"/>
  </g>
  <g id="axes_1">
   <g id="patch_2">
    <path d="M 57.6 307.584 
L 414.72 307.584 
L 414.72 41.472 
L 57.6 41.472 
z
" style="fill: #ffffff"/>
   </g>
   <g id="PathCollection_1">
    <defs>
     <path id="C0_0_d06f7abc62" d="M 0 3 
C 0.795609 3 1.55874 2.683901 2.12132 2.12132 
C 2.683901 1.55874 3 0.795609 3 -0 
C 3 -0.795609 2.683901 -1.55874 2.12132 -2.12132 
C 1.55874 -2.683901 0.795609 -3 0 -3 
C -0.795609 -3 -1.55874 -2.683901 -2.12132 -2.12132 
C -2.683901 -1.55874 -3 -0.795609 -3 0 
C -3 0.795609 -2.683901 1.55874 -2.12132 2.12132 
C -1.55874 2.683901 -0.795609 3 0 3 
z
"/>
    </defs>
    <g clip-path="url(#pfac49e22c4)">
     <use xlink:href="#C0_0_d06f7abc62" x="192.495284" y="75.29845" style="fill: #ff0000; stroke: #000000"/>
    </g>
    <g clip-path="url(#pfac49e22c4)">
     <use xlink:href="#C0_0_d06f7abc62" x="387.127401" y="229.252504" style="fill: #ff0000; stroke: #000000"/>
    </g>
    <g clip-path="url(#pfac49e22c4)">
     <use xlink:href="#C0_0_d06f7abc62" x="265.871445" y="272.870046" style="fill: #ff0000; stroke: #000000"/>
    </g>
    <g clip-path="url(#pfac49e22c4)">
     <use xlink:href="#C0_0_d06f7abc62" x="286.386929" y="233.132437" style="fill: #ff0000; stroke: #000000"/>
    </g>
    <g clip-path="url(#pfac49e22c4)">
     <use xlink:href="#C0_0_d06f7abc62" x="259.520119" y="203.336372" style="fill: #ff0000; stroke: #000000"/>
    </g>
    <g clip-path="url(#pfac49e22c4)">
     <use xlink:href="#C0_0_d06f7abc62" x="154.056916" y="148.544701" style="fill: #ff0000; stroke: #000000"/>
    </g>
    <g clip-path="url(#pfac49e22c4)">
     <use xlink:href="#C0_0_d06f7abc62" x="148.0636" y="206.318821" style="fill: #ff0000; stroke: #000000"/>
    </g>
    <g clip-path="url(#pfac49e22c4)">
     <use xlink:href="#C0_0_d06f7abc62" x="323.836794" y="177.621057" style="fill: #ff0000; stroke: #000000"/>
    </g>
    <g clip-path="url(#pfac49e22c4)">
     <use xlink:href="#C0_0_d06f7abc62" x="309.841425" y="203.923019" style="fill: #ff0000; stroke: #000000"/>
    </g>
    <g clip-path="url(#pfac49e22c4)">
     <use xlink:href="#C0_0_d06f7abc62" x="323.177503" y="187.200741" style="fill: #ff0000; stroke: #000000"/>
    </g>
    <g clip-path="url(#pfac49e22c4)">
     <use xlink:href="#C0_0_d06f7abc62" x="241.337351" y="229.659762" style="fill: #ff0000; stroke: #000000"/>
    </g>
    <g clip-path="url(#pfac49e22c4)">
     <use xlink:href="#C0_0_d06f7abc62" x="277.875008" y="90.76432" style="fill: #ff0000; stroke: #000000"/>
    </g>
    <g clip-path="url(#pfac49e22c4)">
     <use xlink:href="#C0_0_d06f7abc62" x="225.18572" y="63.057183" style="fill: #ff0000; stroke: #000000"/>
    </g>
    <g clip-path="url(#pfac49e22c4)">
     <use xlink:href="#C0_0_d06f7abc62" x="292.683325" y="91.924405" style="fill: #ff0000; stroke: #000000"/>
    </g>
    <g clip-path="url(#pfac49e22c4)">
     <use xlink:href="#C0_0_d06f7abc62" x="200.670293" y="90.819942" style="fill: #ff0000; stroke: #000000"/>
    </g>
    <g clip-path="url(#pfac49e22c4)">
     <use xlink:href="#C0_0_d06f7abc62" x="188.586401" y="246.790815" style="fill: #ff0000; stroke: #000000"/>
    </g>
    <g clip-path="url(#pfac49e22c4)">
     <use xlink:href="#C0_0_d06f7abc62" x="295.04544" y="240.003037" style="fill: #ff0000; stroke: #000000"/>
    </g>
    <g clip-path="url(#pfac49e22c4)">
     <use xlink:href="#C0_0_d06f7abc62" x="92.111588" y="151.477105" style="fill: #ff0000; stroke: #000000"/>
    </g>
    <g clip-path="url(#pfac49e22c4)">
     <use xlink:href="#C0_0_d06f7abc62" x="94.335412" y="125.959132" style="fill: #ff0000; stroke: #000000"/>
    </g>
    <g clip-path="url(#pfac49e22c4)">
     <use xlink:href="#C0_0_d06f7abc62" x="184.008128" y="109.867968" style="fill: #ff0000; stroke: #000000"/>
    </g>
    <g clip-path="url(#pfac49e22c4)">
     <use xlink:href="#C0_0_d06f7abc62" x="271.672672" y="193.485427" style="fill: #ff0000; stroke: #000000"/>
    </g>
    <g clip-path="url(#pfac49e22c4)">
     <use xlink:href="#C0_0_d06f7abc62" x="311.301798" y="118.512109" style="fill: #ff0000; stroke: #000000"/>
    </g>
    <g clip-path="url(#pfac49e22c4)">
     <use xlink:href="#C0_0_d06f7abc62" x="297.218234" y="92.490115" style="fill: #ff0000; stroke: #000000"/>
    </g>
    <g clip-path="url(#pfac49e22c4)">
     <use xlink:href="#C0_0_d06f7abc62" x="340.052087" y="272.820979" style="fill: #ff0000; stroke: #000000"/>
    </g>
    <g clip-path="url(#pfac49e22c4)">
     <use xlink:href="#C0_0_d06f7abc62" x="294.754325" y="182.013425" style="fill: #ff0000; stroke: #000000"/>
    </g>
    <g clip-path="url(#pfac49e22c4)">
     <use xlink:href="#C0_0_d06f7abc62" x="359.730558" y="259.359699" style="fill: #ff0000; stroke: #000000"/>
    </g>
    <g clip-path="url(#pfac49e22c4)">
     <use xlink:href="#C0_0_d06f7abc62" x="164.53911" y="57.623848" style="fill: #ff0000; stroke: #000000"/>
    </g>
    <g clip-path="url(#pfac49e22c4)">
     <use xlink:href="#C0_0_d06f7abc62" x="272.07818" y="287.980317" style="fill: #ff0000; stroke: #000000"/>
    </g>
    <g clip-path="url(#pfac49e22c4)">
     <use xlink:href="#C0_0_d06f7abc62" x="302.173916" y="232.018385" style="fill: #ff0000; stroke: #000000"/>
    </g>
    <g clip-path="url(#pfac49e22c4)">
     <use xlink:href="#C0_0_d06f7abc62" x="140.823964" y="69.877591" style="fill: #ff0000; stroke: #000000"/>
    </g>
    <g clip-path="url(#pfac49e22c4)">
     <use xlink:href="#C0_0_d06f7abc62" x="385.064734" y="167.558876" style="fill: #ff0000; stroke: #000000"/>
    </g>
    <g clip-path="url(#pfac49e22c4)">
     <use xlink:href="#C0_0_d06f7abc62" x="303.833143" y="82.323099" style="fill: #ff0000; stroke: #000000"/>
    </g>
    <g clip-path="url(#pfac49e22c4)">
     <use xlink:href="#C0_0_d06f7abc62" x="291.154423" y="136.839351" style="fill: #ff0000; stroke: #000000"/>
    </g>
    <g clip-path="url(#pfac49e22c4)">
     <use xlink:href="#C0_0_d06f7abc62" x="280.791554" y="292.961044" style="fill: #ff0000; stroke: #000000"/>
    </g>
    <g clip-path="url(#pfac49e22c4)">
     <use xlink:href="#C0_0_d06f7abc62" x="386.798422" y="252.105323" style="fill: #ff0000; stroke: #000000"/>
    </g>
    <g clip-path="url(#pfac49e22c4)">
     <use xlink:href="#C0_0_d06f7abc62" x="357.133058" y="199.203915" style="fill: #ff0000; stroke: #000000"/>
    </g>
    <g clip-path="url(#pfac49e22c4)">
     <use xlink:href="#C0_0_d06f7abc62" x="246.800334" y="210.3348" style="fill: #ff0000; stroke: #000000"/>
    </g>
    <g clip-path="url(#pfac49e22c4)">
     <use xlink:href="#C0_0_d06f7abc62" x="199.190654" y="201.959669" style="fill: #ff0000; stroke: #000000"/>
    </g>
    <g clip-path="url(#pfac49e22c4)">
     <use xlink:href="#C0_0_d06f7abc62" x="264.940504" y="173.017306" style="fill: #ff0000; stroke: #000000"/>
    </g>
    <g clip-path="url(#pfac49e22c4)">
     <use xlink:href="#C0_0_d06f7abc62" x="310.994617" y="179.499873" style="fill: #ff0000; stroke: #000000"/>
    </g>
    <g clip-path="url(#pfac49e22c4)">
     <use xlink:href="#C0_0_d06f7abc62" x="136.137265" y="217.557084" style="fill: #ff0000; stroke: #000000"/>
    </g>
    <g clip-path="url(#pfac49e22c4)">
     <use xlink:href="#C0_0_d06f7abc62" x="246.86973" y="249.698172" style="fill: #ff0000; stroke: #000000"/>
    </g>
    <g clip-path="url(#pfac49e22c4)">
     <use xlink:href="#C0_0_d06f7abc62" x="186.841246" y="229.870264" style="fill: #ff0000; stroke: #000000"/>
    </g>
    <g clip-path="url(#pfac49e22c4)">
     <use xlink:href="#C0_0_d06f7abc62" x="133.92704" y="88.273173" style="fill: #ff0000; stroke: #000000"/>
    </g>
    <g clip-path="url(#pfac49e22c4)">
     <use xlink:href="#C0_0_d06f7abc62" x="171.887139" y="53.568" style="fill: #ff0000; stroke: #000000"/>
    </g>
    <g clip-path="url(#pfac49e22c4)">
     <use xlink:href="#C0_0_d06f7abc62" x="121.76742" y="115.276207" style="fill: #ff0000; stroke: #000000"/>
    </g>
    <g clip-path="url(#pfac49e22c4)">
     <use xlink:href="#C0_0_d06f7abc62" x="220.271702" y="113.016256" style="fill: #ff0000; stroke: #000000"/>
    </g>
    <g clip-path="url(#pfac49e22c4)">
     <use xlink:href="#C0_0_d06f7abc62" x="280.02107" y="176.869598" style="fill: #ff0000; stroke: #000000"/>
    </g>
    <g clip-path="url(#pfac49e22c4)">
     <use xlink:href="#C0_0_d06f7abc62" x="398.487273" y="220.216466" style="fill: #ff0000; stroke: #000000"/>
    </g>
    <g clip-path="url(#pfac49e22c4)">
     <use xlink:href="#C0_0_d06f7abc62" x="198.228849" y="240.629651" style="fill: #ff0000; stroke: #000000"/>
    </g>
    <g clip-path="url(#pfac49e22c4)">
     <use xlink:href="#C0_0_d06f7abc62" x="223.577824" y="85.192591" style="fill: #ff0000; stroke: #000000"/>
    </g>
    <g clip-path="url(#pfac49e22c4)">
     <use xlink:href="#C0_0_d06f7abc62" x="327.440229" y="271.20496" style="fill: #ff0000; stroke: #000000"/>
    </g>
    <g clip-path="url(#pfac49e22c4)">
     <use xlink:href="#C0_0_d06f7abc62" x="279.454573" y="202.772913" style="fill: #ff0000; stroke: #000000"/>
    </g>
    <g clip-path="url(#pfac49e22c4)">
     <use xlink:href="#C0_0_d06f7abc62" x="149.096767" y="183.537719" style="fill: #ff0000; stroke: #000000"/>
    </g>
    <g clip-path="url(#pfac49e22c4)">
     <use xlink:href="#C0_0_d06f7abc62" x="177.798726" y="182.412513" style="fill: #ff0000; stroke: #000000"/>
    </g>
    <g clip-path="url(#pfac49e22c4)">
     <use xlink:href="#C0_0_d06f7abc62" x="355.451299" y="237.965035" style="fill: #ff0000; stroke: #000000"/>
    </g>
    <g clip-path="url(#pfac49e22c4)">
     <use xlink:href="#C0_0_d06f7abc62" x="371.147626" y="205.709328" style="fill: #ff0000; stroke: #000000"/>
    </g>
    <g clip-path="url(#pfac49e22c4)">
     <use xlink:href="#C0_0_d06f7abc62" x="378.468157" y="240.770785" style="fill: #ff0000; stroke: #000000"/>
    </g>
    <g clip-path="url(#pfac49e22c4)">
     <use xlink:href="#C0_0_d06f7abc62" x="175.810487" y="55.941005" style="fill: #ff0000; stroke: #000000"/>
    </g>
    <g clip-path="url(#pfac49e22c4)">
     <use xlink:href="#C0_0_d06f7abc62" x="73.832727" y="139.110505" style="fill: #ff0000; stroke: #000000"/>
    </g>
    <g clip-path="url(#pfac49e22c4)">
     <use xlink:href="#C0_0_d06f7abc62" x="354.308239" y="140.193737" style="fill: #ff0000; stroke: #000000"/>
    </g>
    <g clip-path="url(#pfac49e22c4)">
     <use xlink:href="#C0_0_d06f7abc62" x="295.296024" y="129.195524" style="fill: #ff0000; stroke: #000000"/>
    </g>
    <g clip-path="url(#pfac49e22c4)">
     <use xlink:href="#C0_0_d06f7abc62" x="124.753695" y="77.339387" style="fill: #ff0000; stroke: #000000"/>
    </g>
    <g clip-path="url(#pfac49e22c4)">
     <use xlink:href="#C0_0_d06f7abc62" x="325.682609" y="263.97793" style="fill: #ff0000; stroke: #000000"/>
    </g>
    <g clip-path="url(#pfac49e22c4)">
     <use xlink:href="#C0_0_d06f7abc62" x="273.37623" y="69.574483" style="fill: #ff0000; stroke: #000000"/>
    </g>
    <g clip-path="url(#pfac49e22c4)">
     <use xlink:href="#C0_0_d06f7abc62" x="227.406711" y="111.090427" style="fill: #ff0000; stroke: #000000"/>
    </g>
    <g clip-path="url(#pfac49e22c4)">
     <use xlink:href="#C0_0_d06f7abc62" x="285.06568" y="219.291734" style="fill: #ff0000; stroke: #000000"/>
    </g>
    <g clip-path="url(#pfac49e22c4)">
     <use xlink:href="#C0_0_d06f7abc62" x="313.271005" y="238.009552" style="fill: #ff0000; stroke: #000000"/>
    </g>
    <g clip-path="url(#pfac49e22c4)">
     <use xlink:href="#C0_0_d06f7abc62" x="155.437194" y="232.660458" style="fill: #ff0000; stroke: #000000"/>
    </g>
    <g clip-path="url(#pfac49e22c4)">
     <use xlink:href="#C0_0_d06f7abc62" x="227.513438" y="79.621107" style="fill: #ff0000; stroke: #000000"/>
    </g>
    <g clip-path="url(#pfac49e22c4)">
     <use xlink:href="#C0_0_d06f7abc62" x="145.411637" y="195.655562" style="fill: #ff0000; stroke: #000000"/>
    </g>
    <g clip-path="url(#pfac49e22c4)">
     <use xlink:href="#C0_0_d06f7abc62" x="222.612352" y="72.449357" style="fill: #ff0000; stroke: #000000"/>
    </g>
    <g clip-path="url(#pfac49e22c4)">
     <use xlink:href="#C0_0_d06f7abc62" x="143.897967" y="169.367101" style="fill: #ff0000; stroke: #000000"/>
    </g>
    <g clip-path="url(#pfac49e22c4)">
     <use xlink:href="#C0_0_d06f7abc62" x="370.810381" y="157.649961" style="fill: #ff0000; stroke: #000000"/>
    </g>
    <g clip-path="url(#pfac49e22c4)">
     <use xlink:href="#C0_0_d06f7abc62" x="311.457788" y="229.640243" style="fill: #ff0000; stroke: #000000"/>
    </g>
    <g clip-path="url(#pfac49e22c4)">
     <use xlink:href="#C0_0_d06f7abc62" x="119.94777" y="140.459079" style="fill: #ff0000; stroke: #000000"/>
    </g>
    <g clip-path="url(#pfac49e22c4)">
     <use xlink:href="#C0_0_d06f7abc62" x="220.807201" y="187.737881" style="fill: #ff0000; stroke: #000000"/>
    </g>
    <g clip-path="url(#pfac49e22c4)">
     <use xlink:href="#C0_0_d06f7abc62" x="171.945602" y="133.457814" style="fill: #ff0000; stroke: #000000"/>
    </g>
    <g clip-path="url(#pfac49e22c4)">
     <use xlink:href="#C0_0_d06f7abc62" x="263.115955" y="143.513391" style="fill: #ff0000; stroke: #000000"/>
    </g>
    <g clip-path="url(#pfac49e22c4)">
     <use xlink:href="#C0_0_d06f7abc62" x="104.962231" y="212.280832" style="fill: #ff0000; stroke: #000000"/>
    </g>
    <g clip-path="url(#pfac49e22c4)">
     <use xlink:href="#C0_0_d06f7abc62" x="282.941883" y="115.253068" style="fill: #ff0000; stroke: #000000"/>
    </g>
    <g clip-path="url(#pfac49e22c4)">
     <use xlink:href="#C0_0_d06f7abc62" x="331.28105" y="243.911196" style="fill: #ff0000; stroke: #000000"/>
    </g>
    <g clip-path="url(#pfac49e22c4)">
     <use xlink:href="#C0_0_d06f7abc62" x="341.298674" y="209.048941" style="fill: #ff0000; stroke: #000000"/>
    </g>
    <g clip-path="url(#pfac49e22c4)">
     <use xlink:href="#C0_0_d06f7abc62" x="181.802569" y="244.732022" style="fill: #ff0000; stroke: #000000"/>
    </g>
    <g clip-path="url(#pfac49e22c4)">
     <use xlink:href="#C0_0_d06f7abc62" x="319.46974" y="284.281534" style="fill: #ff0000; stroke: #000000"/>
    </g>
    <g clip-path="url(#pfac49e22c4)">
     <use xlink:href="#C0_0_d06f7abc62" x="360.276923" y="273.310373" style="fill: #ff0000; stroke: #000000"/>
    </g>
    <g clip-path="url(#pfac49e22c4)">
     <use xlink:href="#C0_0_d06f7abc62" x="300.166512" y="270.05911" style="fill: #ff0000; stroke: #000000"/>
    </g>
    <g clip-path="url(#pfac49e22c4)">
     <use xlink:href="#C0_0_d06f7abc62" x="162.471243" y="235.674949" style="fill: #ff0000; stroke: #000000"/>
    </g>
    <g clip-path="url(#pfac49e22c4)">
     <use xlink:href="#C0_0_d06f7abc62" x="383.086394" y="205.795183" style="fill: #ff0000; stroke: #000000"/>
    </g>
    <g clip-path="url(#pfac49e22c4)">
     <use xlink:href="#C0_0_d06f7abc62" x="139.448452" y="107.461992" style="fill: #ff0000; stroke: #000000"/>
    </g>
    <g clip-path="url(#pfac49e22c4)">
     <use xlink:href="#C0_0_d06f7abc62" x="103.915665" y="131.497644" style="fill: #ff0000; stroke: #000000"/>
    </g>
    <g clip-path="url(#pfac49e22c4)">
     <use xlink:href="#C0_0_d06f7abc62" x="327.78794" y="251.109657" style="fill: #ff0000; stroke: #000000"/>
    </g>
    <g clip-path="url(#pfac49e22c4)">
     <use xlink:href="#C0_0_d06f7abc62" x="384.629828" y="200.598963" style="fill: #ff0000; stroke: #000000"/>
    </g>
    <g clip-path="url(#pfac49e22c4)">
     <use xlink:href="#C0_0_d06f7abc62" x="122.846384" y="96.956743" style="fill: #ff0000; stroke: #000000"/>
    </g>
    <g clip-path="url(#pfac49e22c4)">
     <use xlink:href="#C0_0_d06f7abc62" x="224.274846" y="248.836595" style="fill: #ff0000; stroke: #000000"/>
    </g>
    <g clip-path="url(#pfac49e22c4)">
     <use xlink:href="#C0_0_d06f7abc62" x="301.542557" y="278.841009" style="fill: #ff0000; stroke: #000000"/>
    </g>
    <g clip-path="url(#pfac49e22c4)">
     <use xlink:href="#C0_0_d06f7abc62" x="383.821213" y="164.620455" style="fill: #ff0000; stroke: #000000"/>
    </g>
    <g clip-path="url(#pfac49e22c4)">
     <use xlink:href="#C0_0_d06f7abc62" x="286.952093" y="170.415992" style="fill: #ff0000; stroke: #000000"/>
    </g>
    <g clip-path="url(#pfac49e22c4)">
     <use xlink:href="#C0_0_d06f7abc62" x="264.814446" y="291.651655" style="fill: #ff0000; stroke: #000000"/>
    </g>
    <g clip-path="url(#pfac49e22c4)">
     <use xlink:href="#C0_0_d06f7abc62" x="276.039192" y="77.389432" style="fill: #ff0000; stroke: #000000"/>
    </g>
    <g clip-path="url(#pfac49e22c4)">
     <use xlink:href="#C0_0_d06f7abc62" x="306.841084" y="84.957189" style="fill: #ff0000; stroke: #000000"/>
    </g>
    <g clip-path="url(#pfac49e22c4)">
     <use xlink:href="#C0_0_d06f7abc62" x="162.515106" y="149.448887" style="fill: #ff0000; stroke: #000000"/>
    </g>
    <g clip-path="url(#pfac49e22c4)">
     <use xlink:href="#C0_0_d06f7abc62" x="366.531389" y="260.818245" style="fill: #ff0000; stroke: #000000"/>
    </g>
    <g clip-path="url(#pfac49e22c4)">
     <use xlink:href="#C0_0_d06f7abc62" x="201.247389" y="174.549476" style="fill: #ff0000; stroke: #000000"/>
    </g>
    <g clip-path="url(#pfac49e22c4)">
     <use xlink:href="#C0_0_d06f7abc62" x="158.781046" y="104.291006" style="fill: #ff0000; stroke: #000000"/>
    </g>
    <g clip-path="url(#pfac49e22c4)">
     <use xlink:href="#C0_0_d06f7abc62" x="354.239444" y="236.925292" style="fill: #ff0000; stroke: #000000"/>
    </g>
    <g clip-path="url(#pfac49e22c4)">
     <use xlink:href="#C0_0_d06f7abc62" x="387.434715" y="218.30683" style="fill: #ff0000; stroke: #000000"/>
    </g>
    <g clip-path="url(#pfac49e22c4)">
     <use xlink:href="#C0_0_d06f7abc62" x="236.022959" y="258.706521" style="fill: #ff0000; stroke: #000000"/>
    </g>
    <g clip-path="url(#pfac49e22c4)">
     <use xlink:href="#C0_0_d06f7abc62" x="212.017765" y="206.978897" style="fill: #ff0000; stroke: #000000"/>
    </g>
    <g clip-path="url(#pfac49e22c4)">
     <use xlink:href="#C0_0_d06f7abc62" x="107.204387" y="119.760642" style="fill: #ff0000; stroke: #000000"/>
    </g>
    <g clip-path="url(#pfac49e22c4)">
     <use xlink:href="#C0_0_d06f7abc62" x="186.950306" y="123.274654" style="fill: #ff0000; stroke: #000000"/>
    </g>
    <g clip-path="url(#pfac49e22c4)">
     <use xlink:href="#C0_0_d06f7abc62" x="250.30031" y="112.796654" style="fill: #ff0000; stroke: #000000"/>
    </g>
    <g clip-path="url(#pfac49e22c4)">
     <use xlink:href="#C0_0_d06f7abc62" x="109.55327" y="167.491806" style="fill: #ff0000; stroke: #000000"/>
    </g>
    <g clip-path="url(#pfac49e22c4)">
     <use xlink:href="#C0_0_d06f7abc62" x="254.874083" y="212.563442" style="fill: #ff0000; stroke: #000000"/>
    </g>
    <g clip-path="url(#pfac49e22c4)">
     <use xlink:href="#C0_0_d06f7abc62" x="166.886359" y="102.168275" style="fill: #ff0000; stroke: #000000"/>
    </g>
    <g clip-path="url(#pfac49e22c4)">
     <use xlink:href="#C0_0_d06f7abc62" x="326.464292" y="112.835937" style="fill: #ff0000; stroke: #000000"/>
    </g>
    <g clip-path="url(#pfac49e22c4)">
     <use xlink:href="#C0_0_d06f7abc62" x="284.2378" y="245.37028" style="fill: #ff0000; stroke: #000000"/>
    </g>
    <g clip-path="url(#pfac49e22c4)">
     <use xlink:href="#C0_0_d06f7abc62" x="189.728861" y="158.841257" style="fill: #ff0000; stroke: #000000"/>
    </g>
    <g clip-path="url(#pfac49e22c4)">
     <use xlink:href="#C0_0_d06f7abc62" x="211.652988" y="195.910287" style="fill: #ff0000; stroke: #000000"/>
    </g>
    <g clip-path="url(#pfac49e22c4)">
     <use xlink:href="#C0_0_d06f7abc62" x="172.840211" y="206.991763" style="fill: #ff0000; stroke: #000000"/>
    </g>
    <g clip-path="url(#pfac49e22c4)">
     <use xlink:href="#C0_0_d06f7abc62" x="200.838549" y="136.679725" style="fill: #ff0000; stroke: #000000"/>
    </g>
    <g clip-path="url(#pfac49e22c4)">
     <use xlink:href="#C0_0_d06f7abc62" x="122.498206" y="165.224419" style="fill: #ff0000; stroke: #000000"/>
    </g>
    <g clip-path="url(#pfac49e22c4)">
     <use xlink:href="#C0_0_d06f7abc62" x="316.883973" y="259.022837" style="fill: #ff0000; stroke: #000000"/>
    </g>
    <g clip-path="url(#pfac49e22c4)">
     <use xlink:href="#C0_0_d06f7abc62" x="187.393078" y="162.01195" style="fill: #ff0000; stroke: #000000"/>
    </g>
    <g clip-path="url(#pfac49e22c4)">
     <use xlink:href="#C0_0_d06f7abc62" x="365.340865" y="156.082617" style="fill: #ff0000; stroke: #000000"/>
    </g>
    <g clip-path="url(#pfac49e22c4)">
     <use xlink:href="#C0_0_d06f7abc62" x="236.738846" y="239.24517" style="fill: #ff0000; stroke: #000000"/>
    </g>
    <g clip-path="url(#pfac49e22c4)">
     <use xlink:href="#C0_0_d06f7abc62" x="264.006764" y="96.625947" style="fill: #ff0000; stroke: #000000"/>
    </g>
    <g clip-path="url(#pfac49e22c4)">
     <use xlink:href="#C0_0_d06f7abc62" x="171.02886" y="92.697339" style="fill: #ff0000; stroke: #000000"/>
    </g>
    <g clip-path="url(#pfac49e22c4)">
     <use xlink:href="#C0_0_d06f7abc62" x="358.013135" y="216.558141" style="fill: #ff0000; stroke: #000000"/>
    </g>
    <g clip-path="url(#pfac49e22c4)">
     <use xlink:href="#C0_0_d06f7abc62" x="258.766167" y="224.477093" style="fill: #ff0000; stroke: #000000"/>
    </g>
    <g clip-path="url(#pfac49e22c4)">
     <use xlink:href="#C0_0_d06f7abc62" x="78.496728" y="128.533589" style="fill: #ff0000; stroke: #000000"/>
    </g>
    <g clip-path="url(#pfac49e22c4)">
     <use xlink:href="#C0_0_d06f7abc62" x="365.268003" y="221.486964" style="fill: #ff0000; stroke: #000000"/>
    </g>
    <g clip-path="url(#pfac49e22c4)">
     <use xlink:href="#C0_0_d06f7abc62" x="341.175482" y="295.488" style="fill: #ff0000; stroke: #000000"/>
    </g>
    <g clip-path="url(#pfac49e22c4)">
     <use xlink:href="#C0_0_d06f7abc62" x="263.730448" y="229.944378" style="fill: #ff0000; stroke: #000000"/>
    </g>
    <g clip-path="url(#pfac49e22c4)">
     <use xlink:href="#C0_0_d06f7abc62" x="349.786863" y="289.562581" style="fill: #ff0000; stroke: #000000"/>
    </g>
    <g clip-path="url(#pfac49e22c4)">
     <use xlink:href="#C0_0_d06f7abc62" x="212.646258" y="168.402499" style="fill: #ff0000; stroke: #000000"/>
    </g>
    <g clip-path="url(#pfac49e22c4)">
     <use xlink:href="#C0_0_d06f7abc62" x="220.310766" y="113.820058" style="fill: #ff0000; stroke: #000000"/>
    </g>
    <g clip-path="url(#pfac49e22c4)">
     <use xlink:href="#C0_0_d06f7abc62" x="221.445427" y="80.759717" style="fill: #ff0000; stroke: #000000"/>
    </g>
    <g clip-path="url(#pfac49e22c4)">
     <use xlink:href="#C0_0_d06f7abc62" x="252.066996" y="113.390444" style="fill: #ff0000; stroke: #000000"/>
    </g>
    <g clip-path="url(#pfac49e22c4)">
     <use xlink:href="#C0_0_d06f7abc62" x="140.62861" y="118.343923" style="fill: #ff0000; stroke: #000000"/>
    </g>
    <g clip-path="url(#pfac49e22c4)">
     <use xlink:href="#C0_0_d06f7abc62" x="147.696323" y="76.111498" style="fill: #ff0000; stroke: #000000"/>
    </g>
    <g clip-path="url(#pfac49e22c4)">
     <use xlink:href="#C0_0_d06f7abc62" x="299.968791" y="190.533896" style="fill: #ff0000; stroke: #000000"/>
    </g>
    <g clip-path="url(#pfac49e22c4)">
     <use xlink:href="#C0_0_d06f7abc62" x="354.019725" y="121.674192" style="fill: #ff0000; stroke: #000000"/>
    </g>
    <g clip-path="url(#pfac49e22c4)">
     <use xlink:href="#C0_0_d06f7abc62" x="121.451007" y="169.887853" style="fill: #ff0000; stroke: #000000"/>
    </g>
    <g clip-path="url(#pfac49e22c4)">
     <use xlink:href="#C0_0_d06f7abc62" x="291.839979" y="149.073231" style="fill: #ff0000; stroke: #000000"/>
    </g>
    <g clip-path="url(#pfac49e22c4)">
     <use xlink:href="#C0_0_d06f7abc62" x="123.960479" y="228.070845" style="fill: #ff0000; stroke: #000000"/>
    </g>
    <g clip-path="url(#pfac49e22c4)">
     <use xlink:href="#C0_0_d06f7abc62" x="137.749695" y="185.828098" style="fill: #ff0000; stroke: #000000"/>
    </g>
    <g clip-path="url(#pfac49e22c4)">
     <use xlink:href="#C0_0_d06f7abc62" x="339.821502" y="277.923664" style="fill: #ff0000; stroke: #000000"/>
    </g>
    <g clip-path="url(#pfac49e22c4)">
     <use xlink:href="#C0_0_d06f7abc62" x="117.744611" y="222.410033" style="fill: #ff0000; stroke: #000000"/>
    </g>
    <g clip-path="url(#pfac49e22c4)">
     <use xlink:href="#C0_0_d06f7abc62" x="219.549349" y="229.146495" style="fill: #ff0000; stroke: #000000"/>
    </g>
    <g clip-path="url(#pfac49e22c4)">
     <use xlink:href="#C0_0_d06f7abc62" x="214.757323" y="93.747698" style="fill: #ff0000; stroke: #000000"/>
    </g>
    <g clip-path="url(#pfac49e22c4)">
     <use xlink:href="#C0_0_d06f7abc62" x="351.828798" y="255.274596" style="fill: #ff0000; stroke: #000000"/>
    </g>
    <g clip-path="url(#pfac49e22c4)">
     <use xlink:href="#C0_0_d06f7abc62" x="105.943401" y="124.494373" style="fill: #ff0000; stroke: #000000"/>
    </g>
    <g clip-path="url(#pfac49e22c4)">
     <use xlink:href="#C0_0_d06f7abc62" x="176.344686" y="248.057448" style="fill: #ff0000; stroke: #000000"/>
    </g>
    <g clip-path="url(#pfac49e22c4)">
     <use xlink:href="#C0_0_d06f7abc62" x="350.173505" y="279.245576" style="fill: #ff0000; stroke: #000000"/>
    </g>
    <g clip-path="url(#pfac49e22c4)">
     <use xlink:href="#C0_0_d06f7abc62" x="224.454101" y="245.962895" style="fill: #ff0000; stroke: #000000"/>
    </g>
    <g clip-path="url(#pfac49e22c4)">
     <use xlink:href="#C0_0_d06f7abc62" x="188.885315" y="173.439239" style="fill: #ff0000; stroke: #000000"/>
    </g>
    <g clip-path="url(#pfac49e22c4)">
     <use xlink:href="#C0_0_d06f7abc62" x="173.432573" y="95.308878" style="fill: #ff0000; stroke: #000000"/>
    </g>
    <g clip-path="url(#pfac49e22c4)">
     <use xlink:href="#C0_0_d06f7abc62" x="255.008874" y="272.540864" style="fill: #ff0000; stroke: #000000"/>
    </g>
    <g clip-path="url(#pfac49e22c4)">
     <use xlink:href="#C0_0_d06f7abc62" x="370.388341" y="128.878865" style="fill: #ff0000; stroke: #000000"/>
    </g>
    <g clip-path="url(#pfac49e22c4)">
     <use xlink:href="#C0_0_d06f7abc62" x="153.957355" y="151.13721" style="fill: #ff0000; stroke: #000000"/>
    </g>
    <g clip-path="url(#pfac49e22c4)">
     <use xlink:href="#C0_0_d06f7abc62" x="227.259387" y="266.166067" style="fill: #ff0000; stroke: #000000"/>
    </g>
    <g clip-path="url(#pfac49e22c4)">
     <use xlink:href="#C0_0_d06f7abc62" x="274.870001" y="69.62399" style="fill: #ff0000; stroke: #000000"/>
    </g>
    <g clip-path="url(#pfac49e22c4)">
     <use xlink:href="#C0_0_d06f7abc62" x="291.343744" y="70.24038" style="fill: #ff0000; stroke: #000000"/>
    </g>
    <g clip-path="url(#pfac49e22c4)">
     <use xlink:href="#C0_0_d06f7abc62" x="234.515322" y="155.331746" style="fill: #ff0000; stroke: #000000"/>
    </g>
    <g clip-path="url(#pfac49e22c4)">
     <use xlink:href="#C0_0_d06f7abc62" x="361.565241" y="236.66132" style="fill: #ff0000; stroke: #000000"/>
    </g>
    <g clip-path="url(#pfac49e22c4)">
     <use xlink:href="#C0_0_d06f7abc62" x="303.749749" y="255.741194" style="fill: #ff0000; stroke: #000000"/>
    </g>
    <g clip-path="url(#pfac49e22c4)">
     <use xlink:href="#C0_0_d06f7abc62" x="196.300473" y="107.04084" style="fill: #ff0000; stroke: #000000"/>
    </g>
    <g clip-path="url(#pfac49e22c4)">
     <use xlink:href="#C0_0_d06f7abc62" x="395.239148" y="174.546981" style="fill: #ff0000; stroke: #000000"/>
    </g>
    <g clip-path="url(#pfac49e22c4)">
     <use xlink:href="#C0_0_d06f7abc62" x="276.960467" y="168.685304" style="fill: #ff0000; stroke: #000000"/>
    </g>
    <g clip-path="url(#pfac49e22c4)">
     <use xlink:href="#C0_0_d06f7abc62" x="169.52529" y="88.42957" style="fill: #ff0000; stroke: #000000"/>
    </g>
    <g clip-path="url(#pfac49e22c4)">
     <use xlink:href="#C0_0_d06f7abc62" x="331.700889" y="213.557983" style="fill: #ff0000; stroke: #000000"/>
    </g>
    <g clip-path="url(#pfac49e22c4)">
     <use xlink:href="#C0_0_d06f7abc62" x="308.357653" y="164.561506" style="fill: #ff0000; stroke: #000000"/>
    </g>
    <g clip-path="url(#pfac49e22c4)">
     <use xlink:href="#C0_0_d06f7abc62" x="329.306243" y="145.587251" style="fill: #ff0000; stroke: #000000"/>
    </g>
    <g clip-path="url(#pfac49e22c4)">
     <use xlink:href="#C0_0_d06f7abc62" x="397.048898" y="231.317607" style="fill: #ff0000; stroke: #000000"/>
    </g>
    <g clip-path="url(#pfac49e22c4)">
     <use xlink:href="#C0_0_d06f7abc62" x="279.09173" y="138.959489" style="fill: #ff0000; stroke: #000000"/>
    </g>
    <g clip-path="url(#pfac49e22c4)">
     <use xlink:href="#C0_0_d06f7abc62" x="204.334524" y="131.146986" style="fill: #ff0000; stroke: #000000"/>
    </g>
    <g clip-path="url(#pfac49e22c4)">
     <use xlink:href="#C0_0_d06f7abc62" x="130.24011" y="222.719207" style="fill: #ff0000; stroke: #000000"/>
    </g>
   </g>
   <g id="matplotlib.axis_1">
    <g id="xtick_1">
     <g id="line2d_1">
      <defs>
       <path id="m37ff01cf5a" d="M 0 0 
L 0 3.5 
" style="stroke: #000000; stroke-width: 0.8"/>
      </defs>
      <g>
       <use xlink:href="#m37ff01cf5a" x="58.169498" y="307.584" style="stroke: #000000; stroke-width: 0.8"/>
      </g>
     </g>
     <g id="text_1">
      <!-- 6 -->
      <g transform="translate(54.988248 322.182437) scale(0.1 -0.1)">
       <defs>
        <path id="DejaVuSans-36" d="M 2113 2584 
Q 1688 2584 1439 2293 
Q 1191 2003 1191 1497 
Q 1191 994 1439 701 
Q 1688 409 2113 409 
Q 2538 409 2786 701 
Q 3034 994 3034 1497 
Q 3034 2003 2786 2293 
Q 2538 2584 2113 2584 
z
M 3366 4563 
L 3366 3988 
Q 3128 4100 2886 4159 
Q 2644 4219 2406 4219 
Q 1781 4219 1451 3797 
Q 1122 3375 1075 2522 
Q 1259 2794 1537 2939 
Q 1816 3084 2150 3084 
Q 2853 3084 3261 2657 
Q 3669 2231 3669 1497 
Q 3669 778 3244 343 
Q 2819 -91 2113 -91 
Q 1303 -91 875 529 
Q 447 1150 447 2328 
Q 447 3434 972 4092 
Q 1497 4750 2381 4750 
Q 2619 4750 2861 4703 
Q 3103 4656 3366 4563 
z
" transform="scale(0.015625)"/>
       </defs>
       <use xlink:href="#DejaVuSans-36"/>
      </g>
     </g>
    </g>
    <g id="xtick_2">
     <g id="line2d_2">
      <g>
       <use xlink:href="#m37ff01cf5a" x="128.070082" y="307.584" style="stroke: #000000; stroke-width: 0.8"/>
      </g>
     </g>
     <g id="text_2">
      <!-- 7 -->
      <g transform="translate(124.888832 322.182437) scale(0.1 -0.1)">
       <defs>
        <path id="DejaVuSans-37" d="M 525 4666 
L 3525 4666 
L 3525 4397 
L 1831 0 
L 1172 0 
L 2766 4134 
L 525 4134 
L 525 4666 
z
" transform="scale(0.015625)"/>
       </defs>
       <use xlink:href="#DejaVuSans-37"/>
      </g>
     </g>
    </g>
    <g id="xtick_3">
     <g id="line2d_3">
      <g>
       <use xlink:href="#m37ff01cf5a" x="197.970666" y="307.584" style="stroke: #000000; stroke-width: 0.8"/>
      </g>
     </g>
     <g id="text_3">
      <!-- 8 -->
      <g transform="translate(194.789416 322.182437) scale(0.1 -0.1)">
       <defs>
        <path id="DejaVuSans-38" d="M 2034 2216 
Q 1584 2216 1326 1975 
Q 1069 1734 1069 1313 
Q 1069 891 1326 650 
Q 1584 409 2034 409 
Q 2484 409 2743 651 
Q 3003 894 3003 1313 
Q 3003 1734 2745 1975 
Q 2488 2216 2034 2216 
z
M 1403 2484 
Q 997 2584 770 2862 
Q 544 3141 544 3541 
Q 544 4100 942 4425 
Q 1341 4750 2034 4750 
Q 2731 4750 3128 4425 
Q 3525 4100 3525 3541 
Q 3525 3141 3298 2862 
Q 3072 2584 2669 2484 
Q 3125 2378 3379 2068 
Q 3634 1759 3634 1313 
Q 3634 634 3220 271 
Q 2806 -91 2034 -91 
Q 1263 -91 848 271 
Q 434 634 434 1313 
Q 434 1759 690 2068 
Q 947 2378 1403 2484 
z
M 1172 3481 
Q 1172 3119 1398 2916 
Q 1625 2713 2034 2713 
Q 2441 2713 2670 2916 
Q 2900 3119 2900 3481 
Q 2900 3844 2670 4047 
Q 2441 4250 2034 4250 
Q 1625 4250 1398 4047 
Q 1172 3844 1172 3481 
z
" transform="scale(0.015625)"/>
       </defs>
       <use xlink:href="#DejaVuSans-38"/>
      </g>
     </g>
    </g>
    <g id="xtick_4">
     <g id="line2d_4">
      <g>
       <use xlink:href="#m37ff01cf5a" x="267.87125" y="307.584" style="stroke: #000000; stroke-width: 0.8"/>
      </g>
     </g>
     <g id="text_4">
      <!-- 9 -->
      <g transform="translate(264.69 322.182437) scale(0.1 -0.1)">
       <defs>
        <path id="DejaVuSans-39" d="M 703 97 
L 703 672 
Q 941 559 1184 500 
Q 1428 441 1663 441 
Q 2288 441 2617 861 
Q 2947 1281 2994 2138 
Q 2813 1869 2534 1725 
Q 2256 1581 1919 1581 
Q 1219 1581 811 2004 
Q 403 2428 403 3163 
Q 403 3881 828 4315 
Q 1253 4750 1959 4750 
Q 2769 4750 3195 4129 
Q 3622 3509 3622 2328 
Q 3622 1225 3098 567 
Q 2575 -91 1691 -91 
Q 1453 -91 1209 -44 
Q 966 3 703 97 
z
M 1959 2075 
Q 2384 2075 2632 2365 
Q 2881 2656 2881 3163 
Q 2881 3666 2632 3958 
Q 2384 4250 1959 4250 
Q 1534 4250 1286 3958 
Q 1038 3666 1038 3163 
Q 1038 2656 1286 2365 
Q 1534 2075 1959 2075 
z
" transform="scale(0.015625)"/>
       </defs>
       <use xlink:href="#DejaVuSans-39"/>
      </g>
     </g>
    </g>
    <g id="xtick_5">
     <g id="line2d_5">
      <g>
       <use xlink:href="#m37ff01cf5a" x="337.771833" y="307.584" style="stroke: #000000; stroke-width: 0.8"/>
      </g>
     </g>
     <g id="text_5">
      <!-- 10 -->
      <g transform="translate(331.409333 322.182437) scale(0.1 -0.1)">
       <defs>
        <path id="DejaVuSans-31" d="M 794 531 
L 1825 531 
L 1825 4091 
L 703 3866 
L 703 4441 
L 1819 4666 
L 2450 4666 
L 2450 531 
L 3481 531 
L 3481 0 
L 794 0 
L 794 531 
z
" transform="scale(0.015625)"/>
        <path id="DejaVuSans-30" d="M 2034 4250 
Q 1547 4250 1301 3770 
Q 1056 3291 1056 2328 
Q 1056 1369 1301 889 
Q 1547 409 2034 409 
Q 2525 409 2770 889 
Q 3016 1369 3016 2328 
Q 3016 3291 2770 3770 
Q 2525 4250 2034 4250 
z
M 2034 4750 
Q 2819 4750 3233 4129 
Q 3647 3509 3647 2328 
Q 3647 1150 3233 529 
Q 2819 -91 2034 -91 
Q 1250 -91 836 529 
Q 422 1150 422 2328 
Q 422 3509 836 4129 
Q 1250 4750 2034 4750 
z
" transform="scale(0.015625)"/>
       </defs>
       <use xlink:href="#DejaVuSans-31"/>
       <use xlink:href="#DejaVuSans-30" x="63.623047"/>
      </g>
     </g>
    </g>
    <g id="xtick_6">
     <g id="line2d_6">
      <g>
       <use xlink:href="#m37ff01cf5a" x="407.672417" y="307.584" style="stroke: #000000; stroke-width: 0.8"/>
      </g>
     </g>
     <g id="text_6">
      <!-- 11 -->
      <g transform="translate(401.309917 322.182437) scale(0.1 -0.1)">
       <use xlink:href="#DejaVuSans-31"/>
       <use xlink:href="#DejaVuSans-31" x="63.623047"/>
      </g>
     </g>
    </g>
   </g>
   <g id="matplotlib.axis_2">
    <g id="ytick_1">
     <g id="line2d_7">
      <defs>
       <path id="m6e6c81bb11" d="M 0 0 
L -3.5 0 
" style="stroke: #000000; stroke-width: 0.8"/>
      </defs>
      <g>
       <use xlink:href="#m6e6c81bb11" x="57.6" y="281.507631" style="stroke: #000000; stroke-width: 0.8"/>
      </g>
     </g>
     <g id="text_7">
      <!-- 9 -->
      <g transform="translate(44.2375 285.30685) scale(0.1 -0.1)">
       <use xlink:href="#DejaVuSans-39"/>
      </g>
     </g>
    </g>
    <g id="ytick_2">
     <g id="line2d_8">
      <g>
       <use xlink:href="#m6e6c81bb11" x="57.6" y="230.211431" style="stroke: #000000; stroke-width: 0.8"/>
      </g>
     </g>
     <g id="text_8">
      <!-- 10 -->
      <g transform="translate(37.875 234.01065) scale(0.1 -0.1)">
       <use xlink:href="#DejaVuSans-31"/>
       <use xlink:href="#DejaVuSans-30" x="63.623047"/>
      </g>
     </g>
    </g>
    <g id="ytick_3">
     <g id="line2d_9">
      <g>
       <use xlink:href="#m6e6c81bb11" x="57.6" y="178.915232" style="stroke: #000000; stroke-width: 0.8"/>
      </g>
     </g>
     <g id="text_9">
      <!-- 11 -->
      <g transform="translate(37.875 182.71445) scale(0.1 -0.1)">
       <use xlink:href="#DejaVuSans-31"/>
       <use xlink:href="#DejaVuSans-31" x="63.623047"/>
      </g>
     </g>
    </g>
    <g id="ytick_4">
     <g id="line2d_10">
      <g>
       <use xlink:href="#m6e6c81bb11" x="57.6" y="127.619032" style="stroke: #000000; stroke-width: 0.8"/>
      </g>
     </g>
     <g id="text_10">
      <!-- 12 -->
      <g transform="translate(37.875 131.418251) scale(0.1 -0.1)">
       <defs>
        <path id="DejaVuSans-32" d="M 1228 531 
L 3431 531 
L 3431 0 
L 469 0 
L 469 531 
Q 828 903 1448 1529 
Q 2069 2156 2228 2338 
Q 2531 2678 2651 2914 
Q 2772 3150 2772 3378 
Q 2772 3750 2511 3984 
Q 2250 4219 1831 4219 
Q 1534 4219 1204 4116 
Q 875 4013 500 3803 
L 500 4441 
Q 881 4594 1212 4672 
Q 1544 4750 1819 4750 
Q 2544 4750 2975 4387 
Q 3406 4025 3406 3419 
Q 3406 3131 3298 2873 
Q 3191 2616 2906 2266 
Q 2828 2175 2409 1742 
Q 1991 1309 1228 531 
z
" transform="scale(0.015625)"/>
       </defs>
       <use xlink:href="#DejaVuSans-31"/>
       <use xlink:href="#DejaVuSans-32" x="63.623047"/>
      </g>
     </g>
    </g>
    <g id="ytick_5">
     <g id="line2d_11">
      <g>
       <use xlink:href="#m6e6c81bb11" x="57.6" y="76.322832" style="stroke: #000000; stroke-width: 0.8"/>
      </g>
     </g>
     <g id="text_11">
      <!-- 13 -->
      <g transform="translate(37.875 80.122051) scale(0.1 -0.1)">
       <defs>
        <path id="DejaVuSans-33" d="M 2597 2516 
Q 3050 2419 3304 2112 
Q 3559 1806 3559 1356 
Q 3559 666 3084 287 
Q 2609 -91 1734 -91 
Q 1441 -91 1130 -33 
Q 819 25 488 141 
L 488 750 
Q 750 597 1062 519 
Q 1375 441 1716 441 
Q 2309 441 2620 675 
Q 2931 909 2931 1356 
Q 2931 1769 2642 2001 
Q 2353 2234 1838 2234 
L 1294 2234 
L 1294 2753 
L 1863 2753 
Q 2328 2753 2575 2939 
Q 2822 3125 2822 3475 
Q 2822 3834 2567 4026 
Q 2313 4219 1838 4219 
Q 1578 4219 1281 4162 
Q 984 4106 628 3988 
L 628 4550 
Q 988 4650 1302 4700 
Q 1616 4750 1894 4750 
Q 2613 4750 3031 4423 
Q 3450 4097 3450 3541 
Q 3450 3153 3228 2886 
Q 3006 2619 2597 2516 
z
" transform="scale(0.015625)"/>
       </defs>
       <use xlink:href="#DejaVuSans-31"/>
       <use xlink:href="#DejaVuSans-33" x="63.623047"/>
      </g>
     </g>
    </g>
   </g>
   <g id="patch_3">
    <path d="M 57.6 307.584 
L 57.6 41.472 
" style="fill: none; stroke: #000000; stroke-width: 0.8; stroke-linejoin: miter; stroke-linecap: square"/>
   </g>
   <g id="patch_4">
    <path d="M 414.72 307.584 
L 414.72 41.472 
" style="fill: none; stroke: #000000; stroke-width: 0.8; stroke-linejoin: miter; stroke-linecap: square"/>
   </g>
   <g id="patch_5">
    <path d="M 57.6 307.584 
L 414.72 307.584 
" style="fill: none; stroke: #000000; stroke-width: 0.8; stroke-linejoin: miter; stroke-linecap: square"/>
   </g>
   <g id="patch_6">
    <path d="M 57.6 41.472 
L 414.72 41.472 
" style="fill: none; stroke: #000000; stroke-width: 0.8; stroke-linejoin: miter; stroke-linecap: square"/>
   </g>
   <g id="text_12">
    <!-- umap + kmeans on m045_c32 -->
    <g transform="translate(144.051562 35.472) scale(0.12 -0.12)">
     <defs>
      <path id="DejaVuSans-75" d="M 544 1381 
L 544 3500 
L 1119 3500 
L 1119 1403 
Q 1119 906 1312 657 
Q 1506 409 1894 409 
Q 2359 409 2629 706 
Q 2900 1003 2900 1516 
L 2900 3500 
L 3475 3500 
L 3475 0 
L 2900 0 
L 2900 538 
Q 2691 219 2414 64 
Q 2138 -91 1772 -91 
Q 1169 -91 856 284 
Q 544 659 544 1381 
z
M 1991 3584 
L 1991 3584 
z
" transform="scale(0.015625)"/>
      <path id="DejaVuSans-6d" d="M 3328 2828 
Q 3544 3216 3844 3400 
Q 4144 3584 4550 3584 
Q 5097 3584 5394 3201 
Q 5691 2819 5691 2113 
L 5691 0 
L 5113 0 
L 5113 2094 
Q 5113 2597 4934 2840 
Q 4756 3084 4391 3084 
Q 3944 3084 3684 2787 
Q 3425 2491 3425 1978 
L 3425 0 
L 2847 0 
L 2847 2094 
Q 2847 2600 2669 2842 
Q 2491 3084 2119 3084 
Q 1678 3084 1418 2786 
Q 1159 2488 1159 1978 
L 1159 0 
L 581 0 
L 581 3500 
L 1159 3500 
L 1159 2956 
Q 1356 3278 1631 3431 
Q 1906 3584 2284 3584 
Q 2666 3584 2933 3390 
Q 3200 3197 3328 2828 
z
" transform="scale(0.015625)"/>
      <path id="DejaVuSans-61" d="M 2194 1759 
Q 1497 1759 1228 1600 
Q 959 1441 959 1056 
Q 959 750 1161 570 
Q 1363 391 1709 391 
Q 2188 391 2477 730 
Q 2766 1069 2766 1631 
L 2766 1759 
L 2194 1759 
z
M 3341 1997 
L 3341 0 
L 2766 0 
L 2766 531 
Q 2569 213 2275 61 
Q 1981 -91 1556 -91 
Q 1019 -91 701 211 
Q 384 513 384 1019 
Q 384 1609 779 1909 
Q 1175 2209 1959 2209 
L 2766 2209 
L 2766 2266 
Q 2766 2663 2505 2880 
Q 2244 3097 1772 3097 
Q 1472 3097 1187 3025 
Q 903 2953 641 2809 
L 641 3341 
Q 956 3463 1253 3523 
Q 1550 3584 1831 3584 
Q 2591 3584 2966 3190 
Q 3341 2797 3341 1997 
z
" transform="scale(0.015625)"/>
      <path id="DejaVuSans-70" d="M 1159 525 
L 1159 -1331 
L 581 -1331 
L 581 3500 
L 1159 3500 
L 1159 2969 
Q 1341 3281 1617 3432 
Q 1894 3584 2278 3584 
Q 2916 3584 3314 3078 
Q 3713 2572 3713 1747 
Q 3713 922 3314 415 
Q 2916 -91 2278 -91 
Q 1894 -91 1617 61 
Q 1341 213 1159 525 
z
M 3116 1747 
Q 3116 2381 2855 2742 
Q 2594 3103 2138 3103 
Q 1681 3103 1420 2742 
Q 1159 2381 1159 1747 
Q 1159 1113 1420 752 
Q 1681 391 2138 391 
Q 2594 391 2855 752 
Q 3116 1113 3116 1747 
z
" transform="scale(0.015625)"/>
      <path id="DejaVuSans-20" transform="scale(0.015625)"/>
      <path id="DejaVuSans-2b" d="M 2944 4013 
L 2944 2272 
L 4684 2272 
L 4684 1741 
L 2944 1741 
L 2944 0 
L 2419 0 
L 2419 1741 
L 678 1741 
L 678 2272 
L 2419 2272 
L 2419 4013 
L 2944 4013 
z
" transform="scale(0.015625)"/>
      <path id="DejaVuSans-6b" d="M 581 4863 
L 1159 4863 
L 1159 1991 
L 2875 3500 
L 3609 3500 
L 1753 1863 
L 3688 0 
L 2938 0 
L 1159 1709 
L 1159 0 
L 581 0 
L 581 4863 
z
" transform="scale(0.015625)"/>
      <path id="DejaVuSans-65" d="M 3597 1894 
L 3597 1613 
L 953 1613 
Q 991 1019 1311 708 
Q 1631 397 2203 397 
Q 2534 397 2845 478 
Q 3156 559 3463 722 
L 3463 178 
Q 3153 47 2828 -22 
Q 2503 -91 2169 -91 
Q 1331 -91 842 396 
Q 353 884 353 1716 
Q 353 2575 817 3079 
Q 1281 3584 2069 3584 
Q 2775 3584 3186 3129 
Q 3597 2675 3597 1894 
z
M 3022 2063 
Q 3016 2534 2758 2815 
Q 2500 3097 2075 3097 
Q 1594 3097 1305 2825 
Q 1016 2553 972 2059 
L 3022 2063 
z
" transform="scale(0.015625)"/>
      <path id="DejaVuSans-6e" d="M 3513 2113 
L 3513 0 
L 2938 0 
L 2938 2094 
Q 2938 2591 2744 2837 
Q 2550 3084 2163 3084 
Q 1697 3084 1428 2787 
Q 1159 2491 1159 1978 
L 1159 0 
L 581 0 
L 581 3500 
L 1159 3500 
L 1159 2956 
Q 1366 3272 1645 3428 
Q 1925 3584 2291 3584 
Q 2894 3584 3203 3211 
Q 3513 2838 3513 2113 
z
" transform="scale(0.015625)"/>
      <path id="DejaVuSans-73" d="M 2834 3397 
L 2834 2853 
Q 2591 2978 2328 3040 
Q 2066 3103 1784 3103 
Q 1356 3103 1142 2972 
Q 928 2841 928 2578 
Q 928 2378 1081 2264 
Q 1234 2150 1697 2047 
L 1894 2003 
Q 2506 1872 2764 1633 
Q 3022 1394 3022 966 
Q 3022 478 2636 193 
Q 2250 -91 1575 -91 
Q 1294 -91 989 -36 
Q 684 19 347 128 
L 347 722 
Q 666 556 975 473 
Q 1284 391 1588 391 
Q 1994 391 2212 530 
Q 2431 669 2431 922 
Q 2431 1156 2273 1281 
Q 2116 1406 1581 1522 
L 1381 1569 
Q 847 1681 609 1914 
Q 372 2147 372 2553 
Q 372 3047 722 3315 
Q 1072 3584 1716 3584 
Q 2034 3584 2315 3537 
Q 2597 3491 2834 3397 
z
" transform="scale(0.015625)"/>
      <path id="DejaVuSans-6f" d="M 1959 3097 
Q 1497 3097 1228 2736 
Q 959 2375 959 1747 
Q 959 1119 1226 758 
Q 1494 397 1959 397 
Q 2419 397 2687 759 
Q 2956 1122 2956 1747 
Q 2956 2369 2687 2733 
Q 2419 3097 1959 3097 
z
M 1959 3584 
Q 2709 3584 3137 3096 
Q 3566 2609 3566 1747 
Q 3566 888 3137 398 
Q 2709 -91 1959 -91 
Q 1206 -91 779 398 
Q 353 888 353 1747 
Q 353 2609 779 3096 
Q 1206 3584 1959 3584 
z
" transform="scale(0.015625)"/>
      <path id="DejaVuSans-34" d="M 2419 4116 
L 825 1625 
L 2419 1625 
L 2419 4116 
z
M 2253 4666 
L 3047 4666 
L 3047 1625 
L 3713 1625 
L 3713 1100 
L 3047 1100 
L 3047 0 
L 2419 0 
L 2419 1100 
L 313 1100 
L 313 1709 
L 2253 4666 
z
" transform="scale(0.015625)"/>
      <path id="DejaVuSans-35" d="M 691 4666 
L 3169 4666 
L 3169 4134 
L 1269 4134 
L 1269 2991 
Q 1406 3038 1543 3061 
Q 1681 3084 1819 3084 
Q 2600 3084 3056 2656 
Q 3513 2228 3513 1497 
Q 3513 744 3044 326 
Q 2575 -91 1722 -91 
Q 1428 -91 1123 -41 
Q 819 9 494 109 
L 494 744 
Q 775 591 1075 516 
Q 1375 441 1709 441 
Q 2250 441 2565 725 
Q 2881 1009 2881 1497 
Q 2881 1984 2565 2268 
Q 2250 2553 1709 2553 
Q 1456 2553 1204 2497 
Q 953 2441 691 2322 
L 691 4666 
z
" transform="scale(0.015625)"/>
      <path id="DejaVuSans-5f" d="M 3263 -1063 
L 3263 -1509 
L -63 -1509 
L -63 -1063 
L 3263 -1063 
z
" transform="scale(0.015625)"/>
      <path id="DejaVuSans-63" d="M 3122 3366 
L 3122 2828 
Q 2878 2963 2633 3030 
Q 2388 3097 2138 3097 
Q 1578 3097 1268 2742 
Q 959 2388 959 1747 
Q 959 1106 1268 751 
Q 1578 397 2138 397 
Q 2388 397 2633 464 
Q 2878 531 3122 666 
L 3122 134 
Q 2881 22 2623 -34 
Q 2366 -91 2075 -91 
Q 1284 -91 818 406 
Q 353 903 353 1747 
Q 353 2603 823 3093 
Q 1294 3584 2113 3584 
Q 2378 3584 2631 3529 
Q 2884 3475 3122 3366 
z
" transform="scale(0.015625)"/>
     </defs>
     <use xlink:href="#DejaVuSans-75"/>
     <use xlink:href="#DejaVuSans-6d" x="63.378906"/>
     <use xlink:href="#DejaVuSans-61" x="160.791016"/>
     <use xlink:href="#DejaVuSans-70" x="222.070312"/>
     <use xlink:href="#DejaVuSans-20" x="285.546875"/>
     <use xlink:href="#DejaVuSans-2b" x="317.333984"/>
     <use xlink:href="#DejaVuSans-20" x="401.123047"/>
     <use xlink:href="#DejaVuSans-6b" x="432.910156"/>
     <use xlink:href="#DejaVuSans-6d" x="490.820312"/>
     <use xlink:href="#DejaVuSans-65" x="588.232422"/>
     <use xlink:href="#DejaVuSans-61" x="649.755859"/>
     <use xlink:href="#DejaVuSans-6e" x="711.035156"/>
     <use xlink:href="#DejaVuSans-73" x="774.414062"/>
     <use xlink:href="#DejaVuSans-20" x="826.513672"/>
     <use xlink:href="#DejaVuSans-6f" x="858.300781"/>
     <use xlink:href="#DejaVuSans-6e" x="919.482422"/>
     <use xlink:href="#DejaVuSans-20" x="982.861328"/>
     <use xlink:href="#DejaVuSans-6d" x="1014.648438"/>
     <use xlink:href="#DejaVuSans-30" x="1112.060547"/>
     <use xlink:href="#DejaVuSans-34" x="1175.683594"/>
     <use xlink:href="#DejaVuSans-35" x="1239.306641"/>
     <use xlink:href="#DejaVuSans-5f" x="1302.929688"/>
     <use xlink:href="#DejaVuSans-63" x="1352.929688"/>
     <use xlink:href="#DejaVuSans-33" x="1407.910156"/>
     <use xlink:href="#DejaVuSans-32" x="1471.533203"/>
    </g>
   </g>
  </g>
 </g>
 <defs>
  <clipPath id="pfac49e22c4">
   <rect x="57.6" y="41.472" width="357.12" height="266.112"/>
  </clipPath>
 </defs>
</svg>
