<?xml version="1.0" encoding="utf-8" standalone="no"?>
<!DOCTYPE svg PUBLIC "-//W3C//DTD SVG 1.1//EN"
  "http://www.w3.org/Graphics/SVG/1.1/DTD/svg11.dtd">
<svg xmlns:xlink="http://www.w3.org/1999/xlink" width="460.8pt" height="345.6pt" viewBox="0 0 460.8 345.6" xmlns="http://www.w3.org/2000/svg" version="1.1">
 <metadata>
  <rdf:RDF xmlns:dc="http://purl.org/dc/elements/1.1/" xmlns:cc="http://creativecommons.org/ns#" xmlns:rdf="http://www.w3.org/1999/02/22-rdf-syntax-ns#">
   <cc:Work>
    <dc:type rdf:resource="http://purl.org/dc/dcmitype/StillImage"/>
    <dc:date>2025-05-19T15:58:01.421599</dc:date>
    <dc:format>image/svg+xml</dc:format>
    <dc:creator>
     <cc:Agent>
      <dc:title>Matplotlib v3.7.5, https://matplotlib.org/</dc:title>
     </cc:Agent>
    </dc:creator>
   </cc:Work>
  </rdf:RDF>
 </metadata>
 <defs>
  <style type="text/css">*{stroke-linejoin: round; stroke-linecap: butt}</style>
 </defs>
 <g id="figure_1">
  <g id="patch_1">
   <path d="M 0 345.6 
L 460.8 345.6 
L 460.8 0 
L 0 0 
z
" style="fill: #ffffff"/>
  </g>
  <g id="axes_1">
   <g id="patch_2">
    <path d="M 57.6 307.584 
L 414.72 307.584 
L 414.72 41.472 
L 57.6 41.472 
z
" style="fill: #ffffff"/>
   </g>
   <g id="PathCollection_1">
    <defs>
     <path id="C0_0_d286511c77" d="M 0 3 
C 0.795609 3 1.55874 2.683901 2.12132 2.12132 
C 2.683901 1.55874 3 0.795609 3 -0 
C 3 -0.795609 2.683901 -1.55874 2.12132 -2.12132 
C 1.55874 -2.683901 0.795609 -3 0 -3 
C -0.795609 -3 -1.55874 -2.683901 -2.12132 -2.12132 
C -2.683901 -1.55874 -3 -0.795609 -3 0 
C -3 0.795609 -2.683901 1.55874 -2.12132 2.12132 
C -1.55874 2.683901 -0.795609 3 0 3 
z
"/>
    </defs>
    <g clip-path="url(#p5ae2c86b4d)">
     <use xlink:href="#C0_0_d286511c77" x="315.233275" y="230.598762" style="fill: #ff0000; stroke: #000000"/>
    </g>
    <g clip-path="url(#p5ae2c86b4d)">
     <use xlink:href="#C0_0_d286511c77" x="308.070042" y="84.602312" style="fill: #ff0000; stroke: #000000"/>
    </g>
    <g clip-path="url(#p5ae2c86b4d)">
     <use xlink:href="#C0_0_d286511c77" x="347.22702" y="114.620848" style="fill: #ff0000; stroke: #000000"/>
    </g>
    <g clip-path="url(#p5ae2c86b4d)">
     <use xlink:href="#C0_0_d286511c77" x="326.295579" y="144.876935" style="fill: #ff0000; stroke: #000000"/>
    </g>
    <g clip-path="url(#p5ae2c86b4d)">
     <use xlink:href="#C0_0_d286511c77" x="344.560916" y="131.461946" style="fill: #ff0000; stroke: #000000"/>
    </g>
    <g clip-path="url(#p5ae2c86b4d)">
     <use xlink:href="#C0_0_d286511c77" x="349.725312" y="185.758391" style="fill: #ff0000; stroke: #000000"/>
    </g>
    <g clip-path="url(#p5ae2c86b4d)">
     <use xlink:href="#C0_0_d286511c77" x="373.091881" y="115.695049" style="fill: #ff0000; stroke: #000000"/>
    </g>
    <g clip-path="url(#p5ae2c86b4d)">
     <use xlink:href="#C0_0_d286511c77" x="312.109085" y="144.882677" style="fill: #ff0000; stroke: #000000"/>
    </g>
    <g clip-path="url(#p5ae2c86b4d)">
     <use xlink:href="#C0_0_d286511c77" x="324.993552" y="137.523325" style="fill: #ff0000; stroke: #000000"/>
    </g>
    <g clip-path="url(#p5ae2c86b4d)">
     <use xlink:href="#C0_0_d286511c77" x="331.453899" y="150.576983" style="fill: #ff0000; stroke: #000000"/>
    </g>
    <g clip-path="url(#p5ae2c86b4d)">
     <use xlink:href="#C0_0_d286511c77" x="359.810893" y="149.920756" style="fill: #ff0000; stroke: #000000"/>
    </g>
    <g clip-path="url(#p5ae2c86b4d)">
     <use xlink:href="#C0_0_d286511c77" x="322.286888" y="189.043142" style="fill: #ff0000; stroke: #000000"/>
    </g>
    <g clip-path="url(#p5ae2c86b4d)">
     <use xlink:href="#C0_0_d286511c77" x="371.11698" y="147.212873" style="fill: #ff0000; stroke: #000000"/>
    </g>
    <g clip-path="url(#p5ae2c86b4d)">
     <use xlink:href="#C0_0_d286511c77" x="322.905099" y="180.938147" style="fill: #ff0000; stroke: #000000"/>
    </g>
    <g clip-path="url(#p5ae2c86b4d)">
     <use xlink:href="#C0_0_d286511c77" x="339.345823" y="180.788837" style="fill: #ff0000; stroke: #000000"/>
    </g>
    <g clip-path="url(#p5ae2c86b4d)">
     <use xlink:href="#C0_0_d286511c77" x="343.588295" y="135.035406" style="fill: #ff0000; stroke: #000000"/>
    </g>
    <g clip-path="url(#p5ae2c86b4d)">
     <use xlink:href="#C0_0_d286511c77" x="315.864361" y="114.909788" style="fill: #ff0000; stroke: #000000"/>
    </g>
    <g clip-path="url(#p5ae2c86b4d)">
     <use xlink:href="#C0_0_d286511c77" x="350.489415" y="172.147879" style="fill: #ff0000; stroke: #000000"/>
    </g>
    <g clip-path="url(#p5ae2c86b4d)">
     <use xlink:href="#C0_0_d286511c77" x="370.876336" y="177.184852" style="fill: #ff0000; stroke: #000000"/>
    </g>
    <g clip-path="url(#p5ae2c86b4d)">
     <use xlink:href="#C0_0_d286511c77" x="345.609767" y="192.878819" style="fill: #ff0000; stroke: #000000"/>
    </g>
    <g clip-path="url(#p5ae2c86b4d)">
     <use xlink:href="#C0_0_d286511c77" x="309.004782" y="152.605897" style="fill: #ff0000; stroke: #000000"/>
    </g>
    <g clip-path="url(#p5ae2c86b4d)">
     <use xlink:href="#C0_0_d286511c77" x="308.911738" y="146.809514" style="fill: #ff0000; stroke: #000000"/>
    </g>
    <g clip-path="url(#p5ae2c86b4d)">
     <use xlink:href="#C0_0_d286511c77" x="308.130489" y="201.263107" style="fill: #ff0000; stroke: #000000"/>
    </g>
    <g clip-path="url(#p5ae2c86b4d)">
     <use xlink:href="#C0_0_d286511c77" x="337.809389" y="112.513418" style="fill: #ff0000; stroke: #000000"/>
    </g>
    <g clip-path="url(#p5ae2c86b4d)">
     <use xlink:href="#C0_0_d286511c77" x="295.563936" y="177.033093" style="fill: #ff0000; stroke: #000000"/>
    </g>
    <g clip-path="url(#p5ae2c86b4d)">
     <use xlink:href="#C0_0_d286511c77" x="341.044828" y="78.842903" style="fill: #ff0000; stroke: #000000"/>
    </g>
    <g clip-path="url(#p5ae2c86b4d)">
     <use xlink:href="#C0_0_d286511c77" x="296.600542" y="189.651721" style="fill: #ff0000; stroke: #000000"/>
    </g>
    <g clip-path="url(#p5ae2c86b4d)">
     <use xlink:href="#C0_0_d286511c77" x="329.78352" y="122.170579" style="fill: #ff0000; stroke: #000000"/>
    </g>
    <g clip-path="url(#p5ae2c86b4d)">
     <use xlink:href="#C0_0_d286511c77" x="308.270116" y="104.019085" style="fill: #ff0000; stroke: #000000"/>
    </g>
    <g clip-path="url(#p5ae2c86b4d)">
     <use xlink:href="#C0_0_d286511c77" x="317.214116" y="190.342028" style="fill: #ff0000; stroke: #000000"/>
    </g>
    <g clip-path="url(#p5ae2c86b4d)">
     <use xlink:href="#C0_0_d286511c77" x="359.78888" y="53.568" style="fill: #ff0000; stroke: #000000"/>
    </g>
    <g clip-path="url(#p5ae2c86b4d)">
     <use xlink:href="#C0_0_d286511c77" x="327.753575" y="178.643486" style="fill: #ff0000; stroke: #000000"/>
    </g>
    <g clip-path="url(#p5ae2c86b4d)">
     <use xlink:href="#C0_0_d286511c77" x="248.015856" y="219.04587" style="fill: #ff0000; stroke: #000000"/>
    </g>
    <g clip-path="url(#p5ae2c86b4d)">
     <use xlink:href="#C0_0_d286511c77" x="315.472887" y="93.937748" style="fill: #ff0000; stroke: #000000"/>
    </g>
    <g clip-path="url(#p5ae2c86b4d)">
     <use xlink:href="#C0_0_d286511c77" x="309.73419" y="102.955417" style="fill: #ff0000; stroke: #000000"/>
    </g>
    <g clip-path="url(#p5ae2c86b4d)">
     <use xlink:href="#C0_0_d286511c77" x="320.80736" y="109.78767" style="fill: #ff0000; stroke: #000000"/>
    </g>
    <g clip-path="url(#p5ae2c86b4d)">
     <use xlink:href="#C0_0_d286511c77" x="351.624123" y="128.450141" style="fill: #ff0000; stroke: #000000"/>
    </g>
    <g clip-path="url(#p5ae2c86b4d)">
     <use xlink:href="#C0_0_d286511c77" x="329.514811" y="102.377115" style="fill: #ff0000; stroke: #000000"/>
    </g>
    <g clip-path="url(#p5ae2c86b4d)">
     <use xlink:href="#C0_0_d286511c77" x="338.359116" y="150.47658" style="fill: #ff0000; stroke: #000000"/>
    </g>
    <g clip-path="url(#p5ae2c86b4d)">
     <use xlink:href="#C0_0_d286511c77" x="347.650844" y="176.060414" style="fill: #ff0000; stroke: #000000"/>
    </g>
    <g clip-path="url(#p5ae2c86b4d)">
     <use xlink:href="#C0_0_d286511c77" x="363.732552" y="149.030317" style="fill: #ff0000; stroke: #000000"/>
    </g>
    <g clip-path="url(#p5ae2c86b4d)">
     <use xlink:href="#C0_0_d286511c77" x="348.292645" y="141.153009" style="fill: #ff0000; stroke: #000000"/>
    </g>
    <g clip-path="url(#p5ae2c86b4d)">
     <use xlink:href="#C0_0_d286511c77" x="343.089737" y="147.756125" style="fill: #ff0000; stroke: #000000"/>
    </g>
    <g clip-path="url(#p5ae2c86b4d)">
     <use xlink:href="#C0_0_d286511c77" x="361.655383" y="209.30535" style="fill: #ff0000; stroke: #000000"/>
    </g>
    <g clip-path="url(#p5ae2c86b4d)">
     <use xlink:href="#C0_0_d286511c77" x="245.104947" y="221.919596" style="fill: #ff0000; stroke: #000000"/>
    </g>
    <g clip-path="url(#p5ae2c86b4d)">
     <use xlink:href="#C0_0_d286511c77" x="382.393245" y="246.763381" style="fill: #ff0000; stroke: #000000"/>
    </g>
    <g clip-path="url(#p5ae2c86b4d)">
     <use xlink:href="#C0_0_d286511c77" x="321.480907" y="193.86545" style="fill: #ff0000; stroke: #000000"/>
    </g>
    <g clip-path="url(#p5ae2c86b4d)">
     <use xlink:href="#C0_0_d286511c77" x="285.492249" y="164.253507" style="fill: #ff0000; stroke: #000000"/>
    </g>
    <g clip-path="url(#p5ae2c86b4d)">
     <use xlink:href="#C0_0_d286511c77" x="292.500737" y="121.766644" style="fill: #ff0000; stroke: #000000"/>
    </g>
    <g clip-path="url(#p5ae2c86b4d)">
     <use xlink:href="#C0_0_d286511c77" x="354.101571" y="108.839265" style="fill: #ff0000; stroke: #000000"/>
    </g>
    <g clip-path="url(#p5ae2c86b4d)">
     <use xlink:href="#C0_0_d286511c77" x="328.736486" y="167.864486" style="fill: #ff0000; stroke: #000000"/>
    </g>
    <g clip-path="url(#p5ae2c86b4d)">
     <use xlink:href="#C0_0_d286511c77" x="334.345527" y="113.24688" style="fill: #ff0000; stroke: #000000"/>
    </g>
    <g clip-path="url(#p5ae2c86b4d)">
     <use xlink:href="#C0_0_d286511c77" x="340.24239" y="107.626041" style="fill: #ff0000; stroke: #000000"/>
    </g>
    <g clip-path="url(#p5ae2c86b4d)">
     <use xlink:href="#C0_0_d286511c77" x="357.140808" y="187.558014" style="fill: #ff0000; stroke: #000000"/>
    </g>
    <g clip-path="url(#p5ae2c86b4d)">
     <use xlink:href="#C0_0_d286511c77" x="326.312964" y="146.367706" style="fill: #ff0000; stroke: #000000"/>
    </g>
    <g clip-path="url(#p5ae2c86b4d)">
     <use xlink:href="#C0_0_d286511c77" x="350.900838" y="98.623694" style="fill: #ff0000; stroke: #000000"/>
    </g>
    <g clip-path="url(#p5ae2c86b4d)">
     <use xlink:href="#C0_0_d286511c77" x="352.80923" y="120.271012" style="fill: #ff0000; stroke: #000000"/>
    </g>
    <g clip-path="url(#p5ae2c86b4d)">
     <use xlink:href="#C0_0_d286511c77" x="317.171238" y="78.6093" style="fill: #ff0000; stroke: #000000"/>
    </g>
    <g clip-path="url(#p5ae2c86b4d)">
     <use xlink:href="#C0_0_d286511c77" x="326.360301" y="206.543867" style="fill: #ff0000; stroke: #000000"/>
    </g>
    <g clip-path="url(#p5ae2c86b4d)">
     <use xlink:href="#C0_0_d286511c77" x="358.661835" y="172.742194" style="fill: #ff0000; stroke: #000000"/>
    </g>
    <g clip-path="url(#p5ae2c86b4d)">
     <use xlink:href="#C0_0_d286511c77" x="308.562814" y="117.922215" style="fill: #ff0000; stroke: #000000"/>
    </g>
    <g clip-path="url(#p5ae2c86b4d)">
     <use xlink:href="#C0_0_d286511c77" x="314.512574" y="155.379301" style="fill: #ff0000; stroke: #000000"/>
    </g>
    <g clip-path="url(#p5ae2c86b4d)">
     <use xlink:href="#C0_0_d286511c77" x="370.071032" y="167.969791" style="fill: #ff0000; stroke: #000000"/>
    </g>
    <g clip-path="url(#p5ae2c86b4d)">
     <use xlink:href="#C0_0_d286511c77" x="341.679002" y="116.455505" style="fill: #ff0000; stroke: #000000"/>
    </g>
    <g clip-path="url(#p5ae2c86b4d)">
     <use xlink:href="#C0_0_d286511c77" x="341.177848" y="191.361168" style="fill: #ff0000; stroke: #000000"/>
    </g>
    <g clip-path="url(#p5ae2c86b4d)">
     <use xlink:href="#C0_0_d286511c77" x="315.163195" y="165.117367" style="fill: #ff0000; stroke: #000000"/>
    </g>
    <g clip-path="url(#p5ae2c86b4d)">
     <use xlink:href="#C0_0_d286511c77" x="304.597674" y="130.156474" style="fill: #ff0000; stroke: #000000"/>
    </g>
    <g clip-path="url(#p5ae2c86b4d)">
     <use xlink:href="#C0_0_d286511c77" x="319.102087" y="115.428348" style="fill: #ff0000; stroke: #000000"/>
    </g>
    <g clip-path="url(#p5ae2c86b4d)">
     <use xlink:href="#C0_0_d286511c77" x="356.443591" y="107.992904" style="fill: #ff0000; stroke: #000000"/>
    </g>
    <g clip-path="url(#p5ae2c86b4d)">
     <use xlink:href="#C0_0_d286511c77" x="359.366749" y="177.532926" style="fill: #ff0000; stroke: #000000"/>
    </g>
    <g clip-path="url(#p5ae2c86b4d)">
     <use xlink:href="#C0_0_d286511c77" x="363.720321" y="149.12034" style="fill: #ff0000; stroke: #000000"/>
    </g>
    <g clip-path="url(#p5ae2c86b4d)">
     <use xlink:href="#C0_0_d286511c77" x="333.953863" y="182.72112" style="fill: #ff0000; stroke: #000000"/>
    </g>
    <g clip-path="url(#p5ae2c86b4d)">
     <use xlink:href="#C0_0_d286511c77" x="340.601023" y="126.884588" style="fill: #ff0000; stroke: #000000"/>
    </g>
    <g clip-path="url(#p5ae2c86b4d)">
     <use xlink:href="#C0_0_d286511c77" x="299.788822" y="92.417746" style="fill: #ff0000; stroke: #000000"/>
    </g>
    <g clip-path="url(#p5ae2c86b4d)">
     <use xlink:href="#C0_0_d286511c77" x="292.446527" y="99.531416" style="fill: #ff0000; stroke: #000000"/>
    </g>
    <g clip-path="url(#p5ae2c86b4d)">
     <use xlink:href="#C0_0_d286511c77" x="358.951539" y="190.152131" style="fill: #ff0000; stroke: #000000"/>
    </g>
    <g clip-path="url(#p5ae2c86b4d)">
     <use xlink:href="#C0_0_d286511c77" x="319.911137" y="176.00045" style="fill: #ff0000; stroke: #000000"/>
    </g>
    <g clip-path="url(#p5ae2c86b4d)">
     <use xlink:href="#C0_0_d286511c77" x="339.656287" y="179.076771" style="fill: #ff0000; stroke: #000000"/>
    </g>
    <g clip-path="url(#p5ae2c86b4d)">
     <use xlink:href="#C0_0_d286511c77" x="299.496962" y="158.738695" style="fill: #ff0000; stroke: #000000"/>
    </g>
    <g clip-path="url(#p5ae2c86b4d)">
     <use xlink:href="#C0_0_d286511c77" x="328.58502" y="148.240766" style="fill: #ff0000; stroke: #000000"/>
    </g>
    <g clip-path="url(#p5ae2c86b4d)">
     <use xlink:href="#C0_0_d286511c77" x="323.353875" y="164.349001" style="fill: #ff0000; stroke: #000000"/>
    </g>
    <g clip-path="url(#p5ae2c86b4d)">
     <use xlink:href="#C0_0_d286511c77" x="325.99551" y="124.013406" style="fill: #ff0000; stroke: #000000"/>
    </g>
    <g clip-path="url(#p5ae2c86b4d)">
     <use xlink:href="#C0_0_d286511c77" x="310.973574" y="153.652628" style="fill: #ff0000; stroke: #000000"/>
    </g>
    <g clip-path="url(#p5ae2c86b4d)">
     <use xlink:href="#C0_0_d286511c77" x="371.330064" y="131.191991" style="fill: #ff0000; stroke: #000000"/>
    </g>
    <g clip-path="url(#p5ae2c86b4d)">
     <use xlink:href="#C0_0_d286511c77" x="327.018453" y="93.154455" style="fill: #ff0000; stroke: #000000"/>
    </g>
    <g clip-path="url(#p5ae2c86b4d)">
     <use xlink:href="#C0_0_d286511c77" x="330.660123" y="73.16239" style="fill: #ff0000; stroke: #000000"/>
    </g>
    <g clip-path="url(#p5ae2c86b4d)">
     <use xlink:href="#C0_0_d286511c77" x="315.811014" y="107.452546" style="fill: #ff0000; stroke: #000000"/>
    </g>
    <g clip-path="url(#p5ae2c86b4d)">
     <use xlink:href="#C0_0_d286511c77" x="372.477141" y="143.021991" style="fill: #ff0000; stroke: #000000"/>
    </g>
    <g clip-path="url(#p5ae2c86b4d)">
     <use xlink:href="#C0_0_d286511c77" x="346.788765" y="82.809399" style="fill: #ff0000; stroke: #000000"/>
    </g>
    <g clip-path="url(#p5ae2c86b4d)">
     <use xlink:href="#C0_0_d286511c77" x="364.241716" y="197.456886" style="fill: #ff0000; stroke: #000000"/>
    </g>
    <g clip-path="url(#p5ae2c86b4d)">
     <use xlink:href="#C0_0_d286511c77" x="378.435897" y="175.932406" style="fill: #ff0000; stroke: #000000"/>
    </g>
    <g clip-path="url(#p5ae2c86b4d)">
     <use xlink:href="#C0_0_d286511c77" x="344.632281" y="82.252281" style="fill: #ff0000; stroke: #000000"/>
    </g>
    <g clip-path="url(#p5ae2c86b4d)">
     <use xlink:href="#C0_0_d286511c77" x="327.899104" y="128.490968" style="fill: #ff0000; stroke: #000000"/>
    </g>
    <g clip-path="url(#p5ae2c86b4d)">
     <use xlink:href="#C0_0_d286511c77" x="342.939895" y="216.769229" style="fill: #ff0000; stroke: #000000"/>
    </g>
    <g clip-path="url(#p5ae2c86b4d)">
     <use xlink:href="#C0_0_d286511c77" x="381.861854" y="134.612592" style="fill: #ff0000; stroke: #000000"/>
    </g>
    <g clip-path="url(#p5ae2c86b4d)">
     <use xlink:href="#C0_0_d286511c77" x="321.722572" y="119.952369" style="fill: #ff0000; stroke: #000000"/>
    </g>
    <g clip-path="url(#p5ae2c86b4d)">
     <use xlink:href="#C0_0_d286511c77" x="306.155686" y="77.403442" style="fill: #ff0000; stroke: #000000"/>
    </g>
    <g clip-path="url(#p5ae2c86b4d)">
     <use xlink:href="#C0_0_d286511c77" x="305.266495" y="177.785729" style="fill: #ff0000; stroke: #000000"/>
    </g>
    <g clip-path="url(#p5ae2c86b4d)">
     <use xlink:href="#C0_0_d286511c77" x="318.361382" y="120.292678" style="fill: #ff0000; stroke: #000000"/>
    </g>
    <g clip-path="url(#p5ae2c86b4d)">
     <use xlink:href="#C0_0_d286511c77" x="353.986883" y="170.780352" style="fill: #ff0000; stroke: #000000"/>
    </g>
    <g clip-path="url(#p5ae2c86b4d)">
     <use xlink:href="#C0_0_d286511c77" x="313.064853" y="172.942982" style="fill: #ff0000; stroke: #000000"/>
    </g>
    <g clip-path="url(#p5ae2c86b4d)">
     <use xlink:href="#C0_0_d286511c77" x="327.680453" y="189.809629" style="fill: #ff0000; stroke: #000000"/>
    </g>
    <g clip-path="url(#p5ae2c86b4d)">
     <use xlink:href="#C0_0_d286511c77" x="321.577446" y="76.464775" style="fill: #ff0000; stroke: #000000"/>
    </g>
    <g clip-path="url(#p5ae2c86b4d)">
     <use xlink:href="#C0_0_d286511c77" x="313.726587" y="174.490256" style="fill: #ff0000; stroke: #000000"/>
    </g>
    <g clip-path="url(#p5ae2c86b4d)">
     <use xlink:href="#C0_0_d286511c77" x="347.312697" y="152.24309" style="fill: #ff0000; stroke: #000000"/>
    </g>
    <g clip-path="url(#p5ae2c86b4d)">
     <use xlink:href="#C0_0_d286511c77" x="328.469171" y="106.609876" style="fill: #ff0000; stroke: #000000"/>
    </g>
    <g clip-path="url(#p5ae2c86b4d)">
     <use xlink:href="#C0_0_d286511c77" x="325.848477" y="108.177994" style="fill: #ff0000; stroke: #000000"/>
    </g>
    <g clip-path="url(#p5ae2c86b4d)">
     <use xlink:href="#C0_0_d286511c77" x="341.454561" y="116.326839" style="fill: #ff0000; stroke: #000000"/>
    </g>
    <g clip-path="url(#p5ae2c86b4d)">
     <use xlink:href="#C0_0_d286511c77" x="338.714184" y="143.367726" style="fill: #ff0000; stroke: #000000"/>
    </g>
    <g clip-path="url(#p5ae2c86b4d)">
     <use xlink:href="#C0_0_d286511c77" x="372.644708" y="216.512328" style="fill: #ff0000; stroke: #000000"/>
    </g>
    <g clip-path="url(#p5ae2c86b4d)">
     <use xlink:href="#C0_0_d286511c77" x="355.677211" y="147.568628" style="fill: #ff0000; stroke: #000000"/>
    </g>
    <g clip-path="url(#p5ae2c86b4d)">
     <use xlink:href="#C0_0_d286511c77" x="341.370334" y="151.856159" style="fill: #ff0000; stroke: #000000"/>
    </g>
    <g clip-path="url(#p5ae2c86b4d)">
     <use xlink:href="#C0_0_d286511c77" x="380.221154" y="166.454908" style="fill: #ff0000; stroke: #000000"/>
    </g>
    <g clip-path="url(#p5ae2c86b4d)">
     <use xlink:href="#C0_0_d286511c77" x="313.867605" y="143.121278" style="fill: #ff0000; stroke: #000000"/>
    </g>
    <g clip-path="url(#p5ae2c86b4d)">
     <use xlink:href="#C0_0_d286511c77" x="346.852734" y="179.335643" style="fill: #ff0000; stroke: #000000"/>
    </g>
    <g clip-path="url(#p5ae2c86b4d)">
     <use xlink:href="#C0_0_d286511c77" x="307.087345" y="140.868843" style="fill: #ff0000; stroke: #000000"/>
    </g>
    <g clip-path="url(#p5ae2c86b4d)">
     <use xlink:href="#C0_0_d286511c77" x="328.574282" y="123.197871" style="fill: #ff0000; stroke: #000000"/>
    </g>
    <g clip-path="url(#p5ae2c86b4d)">
     <use xlink:href="#C0_0_d286511c77" x="346.105354" y="148.35436" style="fill: #ff0000; stroke: #000000"/>
    </g>
    <g clip-path="url(#p5ae2c86b4d)">
     <use xlink:href="#C0_0_d286511c77" x="349.899091" y="159.355423" style="fill: #ff0000; stroke: #000000"/>
    </g>
    <g clip-path="url(#p5ae2c86b4d)">
     <use xlink:href="#C0_0_d286511c77" x="309.105944" y="139.285744" style="fill: #ff0000; stroke: #000000"/>
    </g>
    <g clip-path="url(#p5ae2c86b4d)">
     <use xlink:href="#C0_0_d286511c77" x="338.745473" y="160.889936" style="fill: #ff0000; stroke: #000000"/>
    </g>
    <g clip-path="url(#p5ae2c86b4d)">
     <use xlink:href="#C0_0_d286511c77" x="361.474787" y="145.445717" style="fill: #ff0000; stroke: #000000"/>
    </g>
    <g clip-path="url(#p5ae2c86b4d)">
     <use xlink:href="#C0_0_d286511c77" x="339.738043" y="94.41138" style="fill: #ff0000; stroke: #000000"/>
    </g>
    <g clip-path="url(#p5ae2c86b4d)">
     <use xlink:href="#C0_0_d286511c77" x="354.594778" y="135.626807" style="fill: #ff0000; stroke: #000000"/>
    </g>
    <g clip-path="url(#p5ae2c86b4d)">
     <use xlink:href="#C0_0_d286511c77" x="273.371165" y="99.86134" style="fill: #ff0000; stroke: #000000"/>
    </g>
    <g clip-path="url(#p5ae2c86b4d)">
     <use xlink:href="#C0_0_d286511c77" x="350.107225" y="138.039305" style="fill: #ff0000; stroke: #000000"/>
    </g>
    <g clip-path="url(#p5ae2c86b4d)">
     <use xlink:href="#C0_0_d286511c77" x="334.848511" y="166.500694" style="fill: #ff0000; stroke: #000000"/>
    </g>
    <g clip-path="url(#p5ae2c86b4d)">
     <use xlink:href="#C0_0_d286511c77" x="361.494898" y="183.109372" style="fill: #ff0000; stroke: #000000"/>
    </g>
    <g clip-path="url(#p5ae2c86b4d)">
     <use xlink:href="#C0_0_d286511c77" x="327.340095" y="124.95013" style="fill: #ff0000; stroke: #000000"/>
    </g>
    <g clip-path="url(#p5ae2c86b4d)">
     <use xlink:href="#C0_0_d286511c77" x="344.339252" y="124.290346" style="fill: #ff0000; stroke: #000000"/>
    </g>
    <g clip-path="url(#p5ae2c86b4d)">
     <use xlink:href="#C0_0_d286511c77" x="398.487273" y="201.194983" style="fill: #ff0000; stroke: #000000"/>
    </g>
    <g clip-path="url(#p5ae2c86b4d)">
     <use xlink:href="#C0_0_d286511c77" x="322.697969" y="130.627675" style="fill: #ff0000; stroke: #000000"/>
    </g>
    <g clip-path="url(#p5ae2c86b4d)">
     <use xlink:href="#C0_0_d286511c77" x="337.21195" y="94.208952" style="fill: #ff0000; stroke: #000000"/>
    </g>
    <g clip-path="url(#p5ae2c86b4d)">
     <use xlink:href="#C0_0_d286511c77" x="330.062308" y="144.027776" style="fill: #ff0000; stroke: #000000"/>
    </g>
    <g clip-path="url(#p5ae2c86b4d)">
     <use xlink:href="#C0_0_d286511c77" x="339.19378" y="104.578358" style="fill: #ff0000; stroke: #000000"/>
    </g>
    <g clip-path="url(#p5ae2c86b4d)">
     <use xlink:href="#C0_0_d286511c77" x="341.884683" y="136.803967" style="fill: #ff0000; stroke: #000000"/>
    </g>
    <g clip-path="url(#p5ae2c86b4d)">
     <use xlink:href="#C0_0_d286511c77" x="303.54273" y="191.810624" style="fill: #ff0000; stroke: #000000"/>
    </g>
    <g clip-path="url(#p5ae2c86b4d)">
     <use xlink:href="#C0_0_d286511c77" x="334.749294" y="175.814431" style="fill: #ff0000; stroke: #000000"/>
    </g>
    <g clip-path="url(#p5ae2c86b4d)">
     <use xlink:href="#C0_0_d286511c77" x="330.973744" y="166.094251" style="fill: #ff0000; stroke: #000000"/>
    </g>
    <g clip-path="url(#p5ae2c86b4d)">
     <use xlink:href="#C0_0_d286511c77" x="338.86263" y="295.488" style="fill: #ff0000; stroke: #000000"/>
    </g>
    <g clip-path="url(#p5ae2c86b4d)">
     <use xlink:href="#C0_0_d286511c77" x="330.247717" y="213.126211" style="fill: #ff0000; stroke: #000000"/>
    </g>
    <g clip-path="url(#p5ae2c86b4d)">
     <use xlink:href="#C0_0_d286511c77" x="278.379553" y="168.933181" style="fill: #ff0000; stroke: #000000"/>
    </g>
    <g clip-path="url(#p5ae2c86b4d)">
     <use xlink:href="#C0_0_d286511c77" x="340.83796" y="155.531249" style="fill: #ff0000; stroke: #000000"/>
    </g>
    <g clip-path="url(#p5ae2c86b4d)">
     <use xlink:href="#C0_0_d286511c77" x="388.773881" y="132.722111" style="fill: #ff0000; stroke: #000000"/>
    </g>
    <g clip-path="url(#p5ae2c86b4d)">
     <use xlink:href="#C0_0_d286511c77" x="271.11358" y="140.513663" style="fill: #ff0000; stroke: #000000"/>
    </g>
    <g clip-path="url(#p5ae2c86b4d)">
     <use xlink:href="#C0_0_d286511c77" x="369.127636" y="170.186626" style="fill: #ff0000; stroke: #000000"/>
    </g>
    <g clip-path="url(#p5ae2c86b4d)">
     <use xlink:href="#C0_0_d286511c77" x="385.623724" y="146.918329" style="fill: #ff0000; stroke: #000000"/>
    </g>
    <g clip-path="url(#p5ae2c86b4d)">
     <use xlink:href="#C0_0_d286511c77" x="313.514566" y="105.317756" style="fill: #ff0000; stroke: #000000"/>
    </g>
    <g clip-path="url(#p5ae2c86b4d)">
     <use xlink:href="#C0_0_d286511c77" x="364.135415" y="147.590663" style="fill: #ff0000; stroke: #000000"/>
    </g>
    <g clip-path="url(#p5ae2c86b4d)">
     <use xlink:href="#C0_0_d286511c77" x="334.091355" y="159.959334" style="fill: #ff0000; stroke: #000000"/>
    </g>
    <g clip-path="url(#p5ae2c86b4d)">
     <use xlink:href="#C0_0_d286511c77" x="338.915244" y="180.671263" style="fill: #ff0000; stroke: #000000"/>
    </g>
    <g clip-path="url(#p5ae2c86b4d)">
     <use xlink:href="#C0_0_d286511c77" x="338.882892" y="112.8238" style="fill: #ff0000; stroke: #000000"/>
    </g>
    <g clip-path="url(#p5ae2c86b4d)">
     <use xlink:href="#C0_0_d286511c77" x="363.504045" y="181.062617" style="fill: #ff0000; stroke: #000000"/>
    </g>
    <g clip-path="url(#p5ae2c86b4d)">
     <use xlink:href="#C0_0_d286511c77" x="359.84783" y="153.070445" style="fill: #ff0000; stroke: #000000"/>
    </g>
    <g clip-path="url(#p5ae2c86b4d)">
     <use xlink:href="#C0_0_d286511c77" x="332.102944" y="112.291252" style="fill: #ff0000; stroke: #000000"/>
    </g>
    <g clip-path="url(#p5ae2c86b4d)">
     <use xlink:href="#C0_0_d286511c77" x="342.202676" y="128.701187" style="fill: #ff0000; stroke: #000000"/>
    </g>
    <g clip-path="url(#p5ae2c86b4d)">
     <use xlink:href="#C0_0_d286511c77" x="332.091833" y="143.235069" style="fill: #ff0000; stroke: #000000"/>
    </g>
    <g clip-path="url(#p5ae2c86b4d)">
     <use xlink:href="#C0_0_d286511c77" x="356.333729" y="167.710673" style="fill: #ff0000; stroke: #000000"/>
    </g>
    <g clip-path="url(#p5ae2c86b4d)">
     <use xlink:href="#C0_0_d286511c77" x="357.828304" y="127.491989" style="fill: #ff0000; stroke: #000000"/>
    </g>
    <g clip-path="url(#p5ae2c86b4d)">
     <use xlink:href="#C0_0_d286511c77" x="323.049939" y="139.67213" style="fill: #ff0000; stroke: #000000"/>
    </g>
    <g clip-path="url(#p5ae2c86b4d)">
     <use xlink:href="#C0_0_d286511c77" x="333.267497" y="191.979069" style="fill: #ff0000; stroke: #000000"/>
    </g>
    <g clip-path="url(#p5ae2c86b4d)">
     <use xlink:href="#C0_0_d286511c77" x="354.444663" y="118.448597" style="fill: #ff0000; stroke: #000000"/>
    </g>
    <g clip-path="url(#p5ae2c86b4d)">
     <use xlink:href="#C0_0_d286511c77" x="338.389555" y="192.467082" style="fill: #ff0000; stroke: #000000"/>
    </g>
    <g clip-path="url(#p5ae2c86b4d)">
     <use xlink:href="#C0_0_d286511c77" x="340.386951" y="177.857285" style="fill: #ff0000; stroke: #000000"/>
    </g>
    <g clip-path="url(#p5ae2c86b4d)">
     <use xlink:href="#C0_0_d286511c77" x="307.588113" y="160.771429" style="fill: #ff0000; stroke: #000000"/>
    </g>
    <g clip-path="url(#p5ae2c86b4d)">
     <use xlink:href="#C0_0_d286511c77" x="328.457749" y="95.550402" style="fill: #ff0000; stroke: #000000"/>
    </g>
    <g clip-path="url(#p5ae2c86b4d)">
     <use xlink:href="#C0_0_d286511c77" x="313.538735" y="100.735946" style="fill: #ff0000; stroke: #000000"/>
    </g>
    <g clip-path="url(#p5ae2c86b4d)">
     <use xlink:href="#C0_0_d286511c77" x="342.150969" y="188.939102" style="fill: #ff0000; stroke: #000000"/>
    </g>
    <g clip-path="url(#p5ae2c86b4d)">
     <use xlink:href="#C0_0_d286511c77" x="338.193013" y="112.701541" style="fill: #ff0000; stroke: #000000"/>
    </g>
    <g clip-path="url(#p5ae2c86b4d)">
     <use xlink:href="#C0_0_d286511c77" x="360.330636" y="160.778584" style="fill: #ff0000; stroke: #000000"/>
    </g>
    <g clip-path="url(#p5ae2c86b4d)">
     <use xlink:href="#C0_0_d286511c77" x="341.462439" y="196.888174" style="fill: #ff0000; stroke: #000000"/>
    </g>
    <g clip-path="url(#p5ae2c86b4d)">
     <use xlink:href="#C0_0_d286511c77" x="333.781835" y="112.735028" style="fill: #ff0000; stroke: #000000"/>
    </g>
    <g clip-path="url(#p5ae2c86b4d)">
     <use xlink:href="#C0_0_d286511c77" x="304.596508" y="225.542274" style="fill: #ff0000; stroke: #000000"/>
    </g>
    <g clip-path="url(#p5ae2c86b4d)">
     <use xlink:href="#C0_0_d286511c77" x="73.832727" y="192.2152" style="fill: #ff0000; stroke: #000000"/>
    </g>
    <g clip-path="url(#p5ae2c86b4d)">
     <use xlink:href="#C0_0_d286511c77" x="306.953455" y="85.695594" style="fill: #ff0000; stroke: #000000"/>
    </g>
    <g clip-path="url(#p5ae2c86b4d)">
     <use xlink:href="#C0_0_d286511c77" x="298.825132" y="176.581623" style="fill: #ff0000; stroke: #000000"/>
    </g>
    <g clip-path="url(#p5ae2c86b4d)">
     <use xlink:href="#C0_0_d286511c77" x="352.09989" y="156.588662" style="fill: #ff0000; stroke: #000000"/>
    </g>
    <g clip-path="url(#p5ae2c86b4d)">
     <use xlink:href="#C0_0_d286511c77" x="328.746596" y="171.108304" style="fill: #ff0000; stroke: #000000"/>
    </g>
   </g>
   <g id="matplotlib.axis_1">
    <g id="xtick_1">
     <g id="line2d_1">
      <defs>
       <path id="mbaae2d2047" d="M 0 0 
L 0 3.5 
" style="stroke: #000000; stroke-width: 0.8"/>
      </defs>
      <g>
       <use xlink:href="#mbaae2d2047" x="123.005076" y="307.584" style="stroke: #000000; stroke-width: 0.8"/>
      </g>
     </g>
     <g id="text_1">
      <!-- −150 -->
      <g transform="translate(109.271482 322.182437) scale(0.1 -0.1)">
       <defs>
        <path id="DejaVuSans-2212" d="M 678 2272 
L 4684 2272 
L 4684 1741 
L 678 1741 
L 678 2272 
z
" transform="scale(0.015625)"/>
        <path id="DejaVuSans-31" d="M 794 531 
L 1825 531 
L 1825 4091 
L 703 3866 
L 703 4441 
L 1819 4666 
L 2450 4666 
L 2450 531 
L 3481 531 
L 3481 0 
L 794 0 
L 794 531 
z
" transform="scale(0.015625)"/>
        <path id="DejaVuSans-35" d="M 691 4666 
L 3169 4666 
L 3169 4134 
L 1269 4134 
L 1269 2991 
Q 1406 3038 1543 3061 
Q 1681 3084 1819 3084 
Q 2600 3084 3056 2656 
Q 3513 2228 3513 1497 
Q 3513 744 3044 326 
Q 2575 -91 1722 -91 
Q 1428 -91 1123 -41 
Q 819 9 494 109 
L 494 744 
Q 775 591 1075 516 
Q 1375 441 1709 441 
Q 2250 441 2565 725 
Q 2881 1009 2881 1497 
Q 2881 1984 2565 2268 
Q 2250 2553 1709 2553 
Q 1456 2553 1204 2497 
Q 953 2441 691 2322 
L 691 4666 
z
" transform="scale(0.015625)"/>
        <path id="DejaVuSans-30" d="M 2034 4250 
Q 1547 4250 1301 3770 
Q 1056 3291 1056 2328 
Q 1056 1369 1301 889 
Q 1547 409 2034 409 
Q 2525 409 2770 889 
Q 3016 1369 3016 2328 
Q 3016 3291 2770 3770 
Q 2525 4250 2034 4250 
z
M 2034 4750 
Q 2819 4750 3233 4129 
Q 3647 3509 3647 2328 
Q 3647 1150 3233 529 
Q 2819 -91 2034 -91 
Q 1250 -91 836 529 
Q 422 1150 422 2328 
Q 422 3509 836 4129 
Q 1250 4750 2034 4750 
z
" transform="scale(0.015625)"/>
       </defs>
       <use xlink:href="#DejaVuSans-2212"/>
       <use xlink:href="#DejaVuSans-31" x="83.789062"/>
       <use xlink:href="#DejaVuSans-35" x="147.412109"/>
       <use xlink:href="#DejaVuSans-30" x="211.035156"/>
      </g>
     </g>
    </g>
    <g id="xtick_2">
     <g id="line2d_2">
      <g>
       <use xlink:href="#mbaae2d2047" x="192.929529" y="307.584" style="stroke: #000000; stroke-width: 0.8"/>
      </g>
     </g>
     <g id="text_2">
      <!-- −100 -->
      <g transform="translate(179.195936 322.182437) scale(0.1 -0.1)">
       <use xlink:href="#DejaVuSans-2212"/>
       <use xlink:href="#DejaVuSans-31" x="83.789062"/>
       <use xlink:href="#DejaVuSans-30" x="147.412109"/>
       <use xlink:href="#DejaVuSans-30" x="211.035156"/>
      </g>
     </g>
    </g>
    <g id="xtick_3">
     <g id="line2d_3">
      <g>
       <use xlink:href="#mbaae2d2047" x="262.853982" y="307.584" style="stroke: #000000; stroke-width: 0.8"/>
      </g>
     </g>
     <g id="text_3">
      <!-- −50 -->
      <g transform="translate(252.301639 322.182437) scale(0.1 -0.1)">
       <use xlink:href="#DejaVuSans-2212"/>
       <use xlink:href="#DejaVuSans-35" x="83.789062"/>
       <use xlink:href="#DejaVuSans-30" x="147.412109"/>
      </g>
     </g>
    </g>
    <g id="xtick_4">
     <g id="line2d_4">
      <g>
       <use xlink:href="#mbaae2d2047" x="332.778436" y="307.584" style="stroke: #000000; stroke-width: 0.8"/>
      </g>
     </g>
     <g id="text_4">
      <!-- 0 -->
      <g transform="translate(329.597186 322.182437) scale(0.1 -0.1)">
       <use xlink:href="#DejaVuSans-30"/>
      </g>
     </g>
    </g>
    <g id="xtick_5">
     <g id="line2d_5">
      <g>
       <use xlink:href="#mbaae2d2047" x="402.702889" y="307.584" style="stroke: #000000; stroke-width: 0.8"/>
      </g>
     </g>
     <g id="text_5">
      <!-- 50 -->
      <g transform="translate(396.340389 322.182437) scale(0.1 -0.1)">
       <use xlink:href="#DejaVuSans-35"/>
       <use xlink:href="#DejaVuSans-30" x="63.623047"/>
      </g>
     </g>
    </g>
   </g>
   <g id="matplotlib.axis_2">
    <g id="ytick_1">
     <g id="line2d_6">
      <defs>
       <path id="m4ac92994e7" d="M 0 0 
L -3.5 0 
" style="stroke: #000000; stroke-width: 0.8"/>
      </defs>
      <g>
       <use xlink:href="#m4ac92994e7" x="57.6" y="300.708495" style="stroke: #000000; stroke-width: 0.8"/>
      </g>
     </g>
     <g id="text_6">
      <!-- −80 -->
      <g transform="translate(29.495313 304.507714) scale(0.1 -0.1)">
       <defs>
        <path id="DejaVuSans-38" d="M 2034 2216 
Q 1584 2216 1326 1975 
Q 1069 1734 1069 1313 
Q 1069 891 1326 650 
Q 1584 409 2034 409 
Q 2484 409 2743 651 
Q 3003 894 3003 1313 
Q 3003 1734 2745 1975 
Q 2488 2216 2034 2216 
z
M 1403 2484 
Q 997 2584 770 2862 
Q 544 3141 544 3541 
Q 544 4100 942 4425 
Q 1341 4750 2034 4750 
Q 2731 4750 3128 4425 
Q 3525 4100 3525 3541 
Q 3525 3141 3298 2862 
Q 3072 2584 2669 2484 
Q 3125 2378 3379 2068 
Q 3634 1759 3634 1313 
Q 3634 634 3220 271 
Q 2806 -91 2034 -91 
Q 1263 -91 848 271 
Q 434 634 434 1313 
Q 434 1759 690 2068 
Q 947 2378 1403 2484 
z
M 1172 3481 
Q 1172 3119 1398 2916 
Q 1625 2713 2034 2713 
Q 2441 2713 2670 2916 
Q 2900 3119 2900 3481 
Q 2900 3844 2670 4047 
Q 2441 4250 2034 4250 
Q 1625 4250 1398 4047 
Q 1172 3844 1172 3481 
z
" transform="scale(0.015625)"/>
       </defs>
       <use xlink:href="#DejaVuSans-2212"/>
       <use xlink:href="#DejaVuSans-38" x="83.789062"/>
       <use xlink:href="#DejaVuSans-30" x="147.412109"/>
      </g>
     </g>
    </g>
    <g id="ytick_2">
     <g id="line2d_7">
      <g>
       <use xlink:href="#m4ac92994e7" x="57.6" y="262.572503" style="stroke: #000000; stroke-width: 0.8"/>
      </g>
     </g>
     <g id="text_7">
      <!-- −60 -->
      <g transform="translate(29.495313 266.371722) scale(0.1 -0.1)">
       <defs>
        <path id="DejaVuSans-36" d="M 2113 2584 
Q 1688 2584 1439 2293 
Q 1191 2003 1191 1497 
Q 1191 994 1439 701 
Q 1688 409 2113 409 
Q 2538 409 2786 701 
Q 3034 994 3034 1497 
Q 3034 2003 2786 2293 
Q 2538 2584 2113 2584 
z
M 3366 4563 
L 3366 3988 
Q 3128 4100 2886 4159 
Q 2644 4219 2406 4219 
Q 1781 4219 1451 3797 
Q 1122 3375 1075 2522 
Q 1259 2794 1537 2939 
Q 1816 3084 2150 3084 
Q 2853 3084 3261 2657 
Q 3669 2231 3669 1497 
Q 3669 778 3244 343 
Q 2819 -91 2113 -91 
Q 1303 -91 875 529 
Q 447 1150 447 2328 
Q 447 3434 972 4092 
Q 1497 4750 2381 4750 
Q 2619 4750 2861 4703 
Q 3103 4656 3366 4563 
z
" transform="scale(0.015625)"/>
       </defs>
       <use xlink:href="#DejaVuSans-2212"/>
       <use xlink:href="#DejaVuSans-36" x="83.789062"/>
       <use xlink:href="#DejaVuSans-30" x="147.412109"/>
      </g>
     </g>
    </g>
    <g id="ytick_3">
     <g id="line2d_8">
      <g>
       <use xlink:href="#m4ac92994e7" x="57.6" y="224.436511" style="stroke: #000000; stroke-width: 0.8"/>
      </g>
     </g>
     <g id="text_8">
      <!-- −40 -->
      <g transform="translate(29.495313 228.23573) scale(0.1 -0.1)">
       <defs>
        <path id="DejaVuSans-34" d="M 2419 4116 
L 825 1625 
L 2419 1625 
L 2419 4116 
z
M 2253 4666 
L 3047 4666 
L 3047 1625 
L 3713 1625 
L 3713 1100 
L 3047 1100 
L 3047 0 
L 2419 0 
L 2419 1100 
L 313 1100 
L 313 1709 
L 2253 4666 
z
" transform="scale(0.015625)"/>
       </defs>
       <use xlink:href="#DejaVuSans-2212"/>
       <use xlink:href="#DejaVuSans-34" x="83.789062"/>
       <use xlink:href="#DejaVuSans-30" x="147.412109"/>
      </g>
     </g>
    </g>
    <g id="ytick_4">
     <g id="line2d_9">
      <g>
       <use xlink:href="#m4ac92994e7" x="57.6" y="186.30052" style="stroke: #000000; stroke-width: 0.8"/>
      </g>
     </g>
     <g id="text_9">
      <!-- −20 -->
      <g transform="translate(29.495313 190.099738) scale(0.1 -0.1)">
       <defs>
        <path id="DejaVuSans-32" d="M 1228 531 
L 3431 531 
L 3431 0 
L 469 0 
L 469 531 
Q 828 903 1448 1529 
Q 2069 2156 2228 2338 
Q 2531 2678 2651 2914 
Q 2772 3150 2772 3378 
Q 2772 3750 2511 3984 
Q 2250 4219 1831 4219 
Q 1534 4219 1204 4116 
Q 875 4013 500 3803 
L 500 4441 
Q 881 4594 1212 4672 
Q 1544 4750 1819 4750 
Q 2544 4750 2975 4387 
Q 3406 4025 3406 3419 
Q 3406 3131 3298 2873 
Q 3191 2616 2906 2266 
Q 2828 2175 2409 1742 
Q 1991 1309 1228 531 
z
" transform="scale(0.015625)"/>
       </defs>
       <use xlink:href="#DejaVuSans-2212"/>
       <use xlink:href="#DejaVuSans-32" x="83.789062"/>
       <use xlink:href="#DejaVuSans-30" x="147.412109"/>
      </g>
     </g>
    </g>
    <g id="ytick_5">
     <g id="line2d_10">
      <g>
       <use xlink:href="#m4ac92994e7" x="57.6" y="148.164528" style="stroke: #000000; stroke-width: 0.8"/>
      </g>
     </g>
     <g id="text_10">
      <!-- 0 -->
      <g transform="translate(44.2375 151.963747) scale(0.1 -0.1)">
       <use xlink:href="#DejaVuSans-30"/>
      </g>
     </g>
    </g>
    <g id="ytick_6">
     <g id="line2d_11">
      <g>
       <use xlink:href="#m4ac92994e7" x="57.6" y="110.028536" style="stroke: #000000; stroke-width: 0.8"/>
      </g>
     </g>
     <g id="text_11">
      <!-- 20 -->
      <g transform="translate(37.875 113.827755) scale(0.1 -0.1)">
       <use xlink:href="#DejaVuSans-32"/>
       <use xlink:href="#DejaVuSans-30" x="63.623047"/>
      </g>
     </g>
    </g>
    <g id="ytick_7">
     <g id="line2d_12">
      <g>
       <use xlink:href="#m4ac92994e7" x="57.6" y="71.892544" style="stroke: #000000; stroke-width: 0.8"/>
      </g>
     </g>
     <g id="text_12">
      <!-- 40 -->
      <g transform="translate(37.875 75.691763) scale(0.1 -0.1)">
       <use xlink:href="#DejaVuSans-34"/>
       <use xlink:href="#DejaVuSans-30" x="63.623047"/>
      </g>
     </g>
    </g>
   </g>
   <g id="patch_3">
    <path d="M 57.6 307.584 
L 57.6 41.472 
" style="fill: none; stroke: #000000; stroke-width: 0.8; stroke-linejoin: miter; stroke-linecap: square"/>
   </g>
   <g id="patch_4">
    <path d="M 414.72 307.584 
L 414.72 41.472 
" style="fill: none; stroke: #000000; stroke-width: 0.8; stroke-linejoin: miter; stroke-linecap: square"/>
   </g>
   <g id="patch_5">
    <path d="M 57.6 307.584 
L 414.72 307.584 
" style="fill: none; stroke: #000000; stroke-width: 0.8; stroke-linejoin: miter; stroke-linecap: square"/>
   </g>
   <g id="patch_6">
    <path d="M 57.6 41.472 
L 414.72 41.472 
" style="fill: none; stroke: #000000; stroke-width: 0.8; stroke-linejoin: miter; stroke-linecap: square"/>
   </g>
   <g id="text_13">
    <!-- pca + kmeans on m045_c32 -->
    <g transform="translate(150.399375 35.472) scale(0.12 -0.12)">
     <defs>
      <path id="DejaVuSans-70" d="M 1159 525 
L 1159 -1331 
L 581 -1331 
L 581 3500 
L 1159 3500 
L 1159 2969 
Q 1341 3281 1617 3432 
Q 1894 3584 2278 3584 
Q 2916 3584 3314 3078 
Q 3713 2572 3713 1747 
Q 3713 922 3314 415 
Q 2916 -91 2278 -91 
Q 1894 -91 1617 61 
Q 1341 213 1159 525 
z
M 3116 1747 
Q 3116 2381 2855 2742 
Q 2594 3103 2138 3103 
Q 1681 3103 1420 2742 
Q 1159 2381 1159 1747 
Q 1159 1113 1420 752 
Q 1681 391 2138 391 
Q 2594 391 2855 752 
Q 3116 1113 3116 1747 
z
" transform="scale(0.015625)"/>
      <path id="DejaVuSans-63" d="M 3122 3366 
L 3122 2828 
Q 2878 2963 2633 3030 
Q 2388 3097 2138 3097 
Q 1578 3097 1268 2742 
Q 959 2388 959 1747 
Q 959 1106 1268 751 
Q 1578 397 2138 397 
Q 2388 397 2633 464 
Q 2878 531 3122 666 
L 3122 134 
Q 2881 22 2623 -34 
Q 2366 -91 2075 -91 
Q 1284 -91 818 406 
Q 353 903 353 1747 
Q 353 2603 823 3093 
Q 1294 3584 2113 3584 
Q 2378 3584 2631 3529 
Q 2884 3475 3122 3366 
z
" transform="scale(0.015625)"/>
      <path id="DejaVuSans-61" d="M 2194 1759 
Q 1497 1759 1228 1600 
Q 959 1441 959 1056 
Q 959 750 1161 570 
Q 1363 391 1709 391 
Q 2188 391 2477 730 
Q 2766 1069 2766 1631 
L 2766 1759 
L 2194 1759 
z
M 3341 1997 
L 3341 0 
L 2766 0 
L 2766 531 
Q 2569 213 2275 61 
Q 1981 -91 1556 -91 
Q 1019 -91 701 211 
Q 384 513 384 1019 
Q 384 1609 779 1909 
Q 1175 2209 1959 2209 
L 2766 2209 
L 2766 2266 
Q 2766 2663 2505 2880 
Q 2244 3097 1772 3097 
Q 1472 3097 1187 3025 
Q 903 2953 641 2809 
L 641 3341 
Q 956 3463 1253 3523 
Q 1550 3584 1831 3584 
Q 2591 3584 2966 3190 
Q 3341 2797 3341 1997 
z
" transform="scale(0.015625)"/>
      <path id="DejaVuSans-20" transform="scale(0.015625)"/>
      <path id="DejaVuSans-2b" d="M 2944 4013 
L 2944 2272 
L 4684 2272 
L 4684 1741 
L 2944 1741 
L 2944 0 
L 2419 0 
L 2419 1741 
L 678 1741 
L 678 2272 
L 2419 2272 
L 2419 4013 
L 2944 4013 
z
" transform="scale(0.015625)"/>
      <path id="DejaVuSans-6b" d="M 581 4863 
L 1159 4863 
L 1159 1991 
L 2875 3500 
L 3609 3500 
L 1753 1863 
L 3688 0 
L 2938 0 
L 1159 1709 
L 1159 0 
L 581 0 
L 581 4863 
z
" transform="scale(0.015625)"/>
      <path id="DejaVuSans-6d" d="M 3328 2828 
Q 3544 3216 3844 3400 
Q 4144 3584 4550 3584 
Q 5097 3584 5394 3201 
Q 5691 2819 5691 2113 
L 5691 0 
L 5113 0 
L 5113 2094 
Q 5113 2597 4934 2840 
Q 4756 3084 4391 3084 
Q 3944 3084 3684 2787 
Q 3425 2491 3425 1978 
L 3425 0 
L 2847 0 
L 2847 2094 
Q 2847 2600 2669 2842 
Q 2491 3084 2119 3084 
Q 1678 3084 1418 2786 
Q 1159 2488 1159 1978 
L 1159 0 
L 581 0 
L 581 3500 
L 1159 3500 
L 1159 2956 
Q 1356 3278 1631 3431 
Q 1906 3584 2284 3584 
Q 2666 3584 2933 3390 
Q 3200 3197 3328 2828 
z
" transform="scale(0.015625)"/>
      <path id="DejaVuSans-65" d="M 3597 1894 
L 3597 1613 
L 953 1613 
Q 991 1019 1311 708 
Q 1631 397 2203 397 
Q 2534 397 2845 478 
Q 3156 559 3463 722 
L 3463 178 
Q 3153 47 2828 -22 
Q 2503 -91 2169 -91 
Q 1331 -91 842 396 
Q 353 884 353 1716 
Q 353 2575 817 3079 
Q 1281 3584 2069 3584 
Q 2775 3584 3186 3129 
Q 3597 2675 3597 1894 
z
M 3022 2063 
Q 3016 2534 2758 2815 
Q 2500 3097 2075 3097 
Q 1594 3097 1305 2825 
Q 1016 2553 972 2059 
L 3022 2063 
z
" transform="scale(0.015625)"/>
      <path id="DejaVuSans-6e" d="M 3513 2113 
L 3513 0 
L 2938 0 
L 2938 2094 
Q 2938 2591 2744 2837 
Q 2550 3084 2163 3084 
Q 1697 3084 1428 2787 
Q 1159 2491 1159 1978 
L 1159 0 
L 581 0 
L 581 3500 
L 1159 3500 
L 1159 2956 
Q 1366 3272 1645 3428 
Q 1925 3584 2291 3584 
Q 2894 3584 3203 3211 
Q 3513 2838 3513 2113 
z
" transform="scale(0.015625)"/>
      <path id="DejaVuSans-73" d="M 2834 3397 
L 2834 2853 
Q 2591 2978 2328 3040 
Q 2066 3103 1784 3103 
Q 1356 3103 1142 2972 
Q 928 2841 928 2578 
Q 928 2378 1081 2264 
Q 1234 2150 1697 2047 
L 1894 2003 
Q 2506 1872 2764 1633 
Q 3022 1394 3022 966 
Q 3022 478 2636 193 
Q 2250 -91 1575 -91 
Q 1294 -91 989 -36 
Q 684 19 347 128 
L 347 722 
Q 666 556 975 473 
Q 1284 391 1588 391 
Q 1994 391 2212 530 
Q 2431 669 2431 922 
Q 2431 1156 2273 1281 
Q 2116 1406 1581 1522 
L 1381 1569 
Q 847 1681 609 1914 
Q 372 2147 372 2553 
Q 372 3047 722 3315 
Q 1072 3584 1716 3584 
Q 2034 3584 2315 3537 
Q 2597 3491 2834 3397 
z
" transform="scale(0.015625)"/>
      <path id="DejaVuSans-6f" d="M 1959 3097 
Q 1497 3097 1228 2736 
Q 959 2375 959 1747 
Q 959 1119 1226 758 
Q 1494 397 1959 397 
Q 2419 397 2687 759 
Q 2956 1122 2956 1747 
Q 2956 2369 2687 2733 
Q 2419 3097 1959 3097 
z
M 1959 3584 
Q 2709 3584 3137 3096 
Q 3566 2609 3566 1747 
Q 3566 888 3137 398 
Q 2709 -91 1959 -91 
Q 1206 -91 779 398 
Q 353 888 353 1747 
Q 353 2609 779 3096 
Q 1206 3584 1959 3584 
z
" transform="scale(0.015625)"/>
      <path id="DejaVuSans-5f" d="M 3263 -1063 
L 3263 -1509 
L -63 -1509 
L -63 -1063 
L 3263 -1063 
z
" transform="scale(0.015625)"/>
      <path id="DejaVuSans-33" d="M 2597 2516 
Q 3050 2419 3304 2112 
Q 3559 1806 3559 1356 
Q 3559 666 3084 287 
Q 2609 -91 1734 -91 
Q 1441 -91 1130 -33 
Q 819 25 488 141 
L 488 750 
Q 750 597 1062 519 
Q 1375 441 1716 441 
Q 2309 441 2620 675 
Q 2931 909 2931 1356 
Q 2931 1769 2642 2001 
Q 2353 2234 1838 2234 
L 1294 2234 
L 1294 2753 
L 1863 2753 
Q 2328 2753 2575 2939 
Q 2822 3125 2822 3475 
Q 2822 3834 2567 4026 
Q 2313 4219 1838 4219 
Q 1578 4219 1281 4162 
Q 984 4106 628 3988 
L 628 4550 
Q 988 4650 1302 4700 
Q 1616 4750 1894 4750 
Q 2613 4750 3031 4423 
Q 3450 4097 3450 3541 
Q 3450 3153 3228 2886 
Q 3006 2619 2597 2516 
z
" transform="scale(0.015625)"/>
     </defs>
     <use xlink:href="#DejaVuSans-70"/>
     <use xlink:href="#DejaVuSans-63" x="63.476562"/>
     <use xlink:href="#DejaVuSans-61" x="118.457031"/>
     <use xlink:href="#DejaVuSans-20" x="179.736328"/>
     <use xlink:href="#DejaVuSans-2b" x="211.523438"/>
     <use xlink:href="#DejaVuSans-20" x="295.3125"/>
     <use xlink:href="#DejaVuSans-6b" x="327.099609"/>
     <use xlink:href="#DejaVuSans-6d" x="385.009766"/>
     <use xlink:href="#DejaVuSans-65" x="482.421875"/>
     <use xlink:href="#DejaVuSans-61" x="543.945312"/>
     <use xlink:href="#DejaVuSans-6e" x="605.224609"/>
     <use xlink:href="#DejaVuSans-73" x="668.603516"/>
     <use xlink:href="#DejaVuSans-20" x="720.703125"/>
     <use xlink:href="#DejaVuSans-6f" x="752.490234"/>
     <use xlink:href="#DejaVuSans-6e" x="813.671875"/>
     <use xlink:href="#DejaVuSans-20" x="877.050781"/>
     <use xlink:href="#DejaVuSans-6d" x="908.837891"/>
     <use xlink:href="#DejaVuSans-30" x="1006.25"/>
     <use xlink:href="#DejaVuSans-34" x="1069.873047"/>
     <use xlink:href="#DejaVuSans-35" x="1133.496094"/>
     <use xlink:href="#DejaVuSans-5f" x="1197.119141"/>
     <use xlink:href="#DejaVuSans-63" x="1247.119141"/>
     <use xlink:href="#DejaVuSans-33" x="1302.099609"/>
     <use xlink:href="#DejaVuSans-32" x="1365.722656"/>
    </g>
   </g>
  </g>
 </g>
 <defs>
  <clipPath id="p5ae2c86b4d">
   <rect x="57.6" y="41.472" width="357.12" height="266.112"/>
  </clipPath>
 </defs>
</svg>
