<?xml version="1.0" encoding="utf-8" standalone="no"?>
<!DOCTYPE svg PUBLIC "-//W3C//DTD SVG 1.1//EN"
  "http://www.w3.org/Graphics/SVG/1.1/DTD/svg11.dtd">
<svg xmlns:xlink="http://www.w3.org/1999/xlink" width="460.8pt" height="345.6pt" viewBox="0 0 460.8 345.6" xmlns="http://www.w3.org/2000/svg" version="1.1">
 <metadata>
  <rdf:RDF xmlns:dc="http://purl.org/dc/elements/1.1/" xmlns:cc="http://creativecommons.org/ns#" xmlns:rdf="http://www.w3.org/1999/02/22-rdf-syntax-ns#">
   <cc:Work>
    <dc:type rdf:resource="http://purl.org/dc/dcmitype/StillImage"/>
    <dc:date>2025-05-19T15:59:27.151057</dc:date>
    <dc:format>image/svg+xml</dc:format>
    <dc:creator>
     <cc:Agent>
      <dc:title>Matplotlib v3.7.5, https://matplotlib.org/</dc:title>
     </cc:Agent>
    </dc:creator>
   </cc:Work>
  </rdf:RDF>
 </metadata>
 <defs>
  <style type="text/css">*{stroke-linejoin: round; stroke-linecap: butt}</style>
 </defs>
 <g id="figure_1">
  <g id="patch_1">
   <path d="M 0 345.6 
L 460.8 345.6 
L 460.8 0 
L 0 0 
z
" style="fill: #ffffff"/>
  </g>
  <g id="axes_1">
   <g id="patch_2">
    <path d="M 57.6 307.584 
L 414.72 307.584 
L 414.72 41.472 
L 57.6 41.472 
z
" style="fill: #ffffff"/>
   </g>
   <g id="PathCollection_1">
    <defs>
     <path id="C0_0_40579697b8" d="M 0 3 
C 0.795609 3 1.55874 2.683901 2.12132 2.12132 
C 2.683901 1.55874 3 0.795609 3 -0 
C 3 -0.795609 2.683901 -1.55874 2.12132 -2.12132 
C 1.55874 -2.683901 0.795609 -3 0 -3 
C -0.795609 -3 -1.55874 -2.683901 -2.12132 -2.12132 
C -2.683901 -1.55874 -3 -0.795609 -3 0 
C -3 0.795609 -2.683901 1.55874 -2.12132 2.12132 
C -1.55874 2.683901 -0.795609 3 0 3 
z
"/>
    </defs>
    <g clip-path="url(#pe739a7614f)">
     <use xlink:href="#C0_0_40579697b8" x="164.557697" y="169.246996" style="fill: #ff0000; stroke: #000000"/>
    </g>
    <g clip-path="url(#pe739a7614f)">
     <use xlink:href="#C0_0_40579697b8" x="170.689669" y="69.772539" style="fill: #ff0000; stroke: #000000"/>
    </g>
    <g clip-path="url(#pe739a7614f)">
     <use xlink:href="#C0_0_40579697b8" x="211.137553" y="95.365421" style="fill: #ff0000; stroke: #000000"/>
    </g>
    <g clip-path="url(#pe739a7614f)">
     <use xlink:href="#C0_0_40579697b8" x="176.839192" y="90.961449" style="fill: #ff0000; stroke: #000000"/>
    </g>
    <g clip-path="url(#pe739a7614f)">
     <use xlink:href="#C0_0_40579697b8" x="196.438272" y="110.943179" style="fill: #ff0000; stroke: #000000"/>
    </g>
    <g clip-path="url(#pe739a7614f)">
     <use xlink:href="#C0_0_40579697b8" x="218.444246" y="159.318965" style="fill: #ff0000; stroke: #000000"/>
    </g>
    <g clip-path="url(#pe739a7614f)">
     <use xlink:href="#C0_0_40579697b8" x="230.97621" y="116.633613" style="fill: #ff0000; stroke: #000000"/>
    </g>
    <g clip-path="url(#pe739a7614f)">
     <use xlink:href="#C0_0_40579697b8" x="162.005411" y="130.408352" style="fill: #ff0000; stroke: #000000"/>
    </g>
    <g clip-path="url(#pe739a7614f)">
     <use xlink:href="#C0_0_40579697b8" x="164.041968" y="111.341532" style="fill: #ff0000; stroke: #000000"/>
    </g>
    <g clip-path="url(#pe739a7614f)">
     <use xlink:href="#C0_0_40579697b8" x="168.554959" y="135.739516" style="fill: #ff0000; stroke: #000000"/>
    </g>
    <g clip-path="url(#pe739a7614f)">
     <use xlink:href="#C0_0_40579697b8" x="197.56676" y="125.722054" style="fill: #ff0000; stroke: #000000"/>
    </g>
    <g clip-path="url(#pe739a7614f)">
     <use xlink:href="#C0_0_40579697b8" x="207.744353" y="175.405288" style="fill: #ff0000; stroke: #000000"/>
    </g>
    <g clip-path="url(#pe739a7614f)">
     <use xlink:href="#C0_0_40579697b8" x="398.487273" y="224.476728" style="fill: #ff0000; stroke: #000000"/>
    </g>
    <g clip-path="url(#pe739a7614f)">
     <use xlink:href="#C0_0_40579697b8" x="171.839458" y="168.373301" style="fill: #ff0000; stroke: #000000"/>
    </g>
    <g clip-path="url(#pe739a7614f)">
     <use xlink:href="#C0_0_40579697b8" x="201.699194" y="165.267071" style="fill: #ff0000; stroke: #000000"/>
    </g>
    <g clip-path="url(#pe739a7614f)">
     <use xlink:href="#C0_0_40579697b8" x="212.818162" y="120.572618" style="fill: #ff0000; stroke: #000000"/>
    </g>
    <g clip-path="url(#pe739a7614f)">
     <use xlink:href="#C0_0_40579697b8" x="176.584563" y="83.115069" style="fill: #ff0000; stroke: #000000"/>
    </g>
    <g clip-path="url(#pe739a7614f)">
     <use xlink:href="#C0_0_40579697b8" x="224.958605" y="147.894657" style="fill: #ff0000; stroke: #000000"/>
    </g>
    <g clip-path="url(#pe739a7614f)">
     <use xlink:href="#C0_0_40579697b8" x="224.548001" y="168.4467" style="fill: #ff0000; stroke: #000000"/>
    </g>
    <g clip-path="url(#pe739a7614f)">
     <use xlink:href="#C0_0_40579697b8" x="205.44644" y="168.649655" style="fill: #ff0000; stroke: #000000"/>
    </g>
    <g clip-path="url(#pe739a7614f)">
     <use xlink:href="#C0_0_40579697b8" x="155.007972" y="124.355816" style="fill: #ff0000; stroke: #000000"/>
    </g>
    <g clip-path="url(#pe739a7614f)">
     <use xlink:href="#C0_0_40579697b8" x="130.423845" y="97.902699" style="fill: #ff0000; stroke: #000000"/>
    </g>
    <g clip-path="url(#pe739a7614f)">
     <use xlink:href="#C0_0_40579697b8" x="168.035148" y="173.012026" style="fill: #ff0000; stroke: #000000"/>
    </g>
    <g clip-path="url(#pe739a7614f)">
     <use xlink:href="#C0_0_40579697b8" x="165.074725" y="60.413718" style="fill: #ff0000; stroke: #000000"/>
    </g>
    <g clip-path="url(#pe739a7614f)">
     <use xlink:href="#C0_0_40579697b8" x="152.506211" y="127.425313" style="fill: #ff0000; stroke: #000000"/>
    </g>
    <g clip-path="url(#pe739a7614f)">
     <use xlink:href="#C0_0_40579697b8" x="176.024031" y="61.758462" style="fill: #ff0000; stroke: #000000"/>
    </g>
    <g clip-path="url(#pe739a7614f)">
     <use xlink:href="#C0_0_40579697b8" x="154.688782" y="156.404054" style="fill: #ff0000; stroke: #000000"/>
    </g>
    <g clip-path="url(#pe739a7614f)">
     <use xlink:href="#C0_0_40579697b8" x="180.52707" y="86.094936" style="fill: #ff0000; stroke: #000000"/>
    </g>
    <g clip-path="url(#pe739a7614f)">
     <use xlink:href="#C0_0_40579697b8" x="185.559379" y="54.243205" style="fill: #ff0000; stroke: #000000"/>
    </g>
    <g clip-path="url(#pe739a7614f)">
     <use xlink:href="#C0_0_40579697b8" x="176.15427" y="160.002619" style="fill: #ff0000; stroke: #000000"/>
    </g>
    <g clip-path="url(#pe739a7614f)">
     <use xlink:href="#C0_0_40579697b8" x="251.447419" y="54.013004" style="fill: #ff0000; stroke: #000000"/>
    </g>
    <g clip-path="url(#pe739a7614f)">
     <use xlink:href="#C0_0_40579697b8" x="191.327194" y="188.007911" style="fill: #ff0000; stroke: #000000"/>
    </g>
    <g clip-path="url(#pe739a7614f)">
     <use xlink:href="#C0_0_40579697b8" x="117.809854" y="127.408871" style="fill: #ff0000; stroke: #000000"/>
    </g>
    <g clip-path="url(#pe739a7614f)">
     <use xlink:href="#C0_0_40579697b8" x="173.966694" y="79.462548" style="fill: #ff0000; stroke: #000000"/>
    </g>
    <g clip-path="url(#pe739a7614f)">
     <use xlink:href="#C0_0_40579697b8" x="163.099859" y="61.490103" style="fill: #ff0000; stroke: #000000"/>
    </g>
    <g clip-path="url(#pe739a7614f)">
     <use xlink:href="#C0_0_40579697b8" x="148.192453" y="102.31458" style="fill: #ff0000; stroke: #000000"/>
    </g>
    <g clip-path="url(#pe739a7614f)">
     <use xlink:href="#C0_0_40579697b8" x="176.291842" y="57.716588" style="fill: #ff0000; stroke: #000000"/>
    </g>
    <g clip-path="url(#pe739a7614f)">
     <use xlink:href="#C0_0_40579697b8" x="216.745067" y="99.778757" style="fill: #ff0000; stroke: #000000"/>
    </g>
    <g clip-path="url(#pe739a7614f)">
     <use xlink:href="#C0_0_40579697b8" x="190.322452" y="137.939815" style="fill: #ff0000; stroke: #000000"/>
    </g>
    <g clip-path="url(#pe739a7614f)">
     <use xlink:href="#C0_0_40579697b8" x="167.352359" y="153.365216" style="fill: #ff0000; stroke: #000000"/>
    </g>
    <g clip-path="url(#pe739a7614f)">
     <use xlink:href="#C0_0_40579697b8" x="230.313998" y="130.790212" style="fill: #ff0000; stroke: #000000"/>
    </g>
    <g clip-path="url(#pe739a7614f)">
     <use xlink:href="#C0_0_40579697b8" x="203.112295" y="119.397977" style="fill: #ff0000; stroke: #000000"/>
    </g>
    <g clip-path="url(#pe739a7614f)">
     <use xlink:href="#C0_0_40579697b8" x="219.735696" y="103.628681" style="fill: #ff0000; stroke: #000000"/>
    </g>
    <g clip-path="url(#pe739a7614f)">
     <use xlink:href="#C0_0_40579697b8" x="221.493619" y="164.036459" style="fill: #ff0000; stroke: #000000"/>
    </g>
    <g clip-path="url(#pe739a7614f)">
     <use xlink:href="#C0_0_40579697b8" x="145.87172" y="152.015142" style="fill: #ff0000; stroke: #000000"/>
    </g>
    <g clip-path="url(#pe739a7614f)">
     <use xlink:href="#C0_0_40579697b8" x="210.823246" y="258.983752" style="fill: #ff0000; stroke: #000000"/>
    </g>
    <g clip-path="url(#pe739a7614f)">
     <use xlink:href="#C0_0_40579697b8" x="210.861369" y="158.886632" style="fill: #ff0000; stroke: #000000"/>
    </g>
    <g clip-path="url(#pe739a7614f)">
     <use xlink:href="#C0_0_40579697b8" x="153.830893" y="128.762524" style="fill: #ff0000; stroke: #000000"/>
    </g>
    <g clip-path="url(#pe739a7614f)">
     <use xlink:href="#C0_0_40579697b8" x="170.761955" y="84.118614" style="fill: #ff0000; stroke: #000000"/>
    </g>
    <g clip-path="url(#pe739a7614f)">
     <use xlink:href="#C0_0_40579697b8" x="210.408387" y="95.273657" style="fill: #ff0000; stroke: #000000"/>
    </g>
    <g clip-path="url(#pe739a7614f)">
     <use xlink:href="#C0_0_40579697b8" x="189.320737" y="173.963602" style="fill: #ff0000; stroke: #000000"/>
    </g>
    <g clip-path="url(#pe739a7614f)">
     <use xlink:href="#C0_0_40579697b8" x="167.608783" y="67.877781" style="fill: #ff0000; stroke: #000000"/>
    </g>
    <g clip-path="url(#pe739a7614f)">
     <use xlink:href="#C0_0_40579697b8" x="178.549854" y="59.475352" style="fill: #ff0000; stroke: #000000"/>
    </g>
    <g clip-path="url(#pe739a7614f)">
     <use xlink:href="#C0_0_40579697b8" x="231.173895" y="155.787308" style="fill: #ff0000; stroke: #000000"/>
    </g>
    <g clip-path="url(#pe739a7614f)">
     <use xlink:href="#C0_0_40579697b8" x="204.593011" y="145.747757" style="fill: #ff0000; stroke: #000000"/>
    </g>
    <g clip-path="url(#pe739a7614f)">
     <use xlink:href="#C0_0_40579697b8" x="170.960264" y="60.974193" style="fill: #ff0000; stroke: #000000"/>
    </g>
    <g clip-path="url(#pe739a7614f)">
     <use xlink:href="#C0_0_40579697b8" x="200.054596" y="82.569494" style="fill: #ff0000; stroke: #000000"/>
    </g>
    <g clip-path="url(#pe739a7614f)">
     <use xlink:href="#C0_0_40579697b8" x="168.036318" y="57.095412" style="fill: #ff0000; stroke: #000000"/>
    </g>
    <g clip-path="url(#pe739a7614f)">
     <use xlink:href="#C0_0_40579697b8" x="169.370933" y="158.592093" style="fill: #ff0000; stroke: #000000"/>
    </g>
    <g clip-path="url(#pe739a7614f)">
     <use xlink:href="#C0_0_40579697b8" x="215.304376" y="175.553559" style="fill: #ff0000; stroke: #000000"/>
    </g>
    <g clip-path="url(#pe739a7614f)">
     <use xlink:href="#C0_0_40579697b8" x="130.127472" y="71.115041" style="fill: #ff0000; stroke: #000000"/>
    </g>
    <g clip-path="url(#pe739a7614f)">
     <use xlink:href="#C0_0_40579697b8" x="169.972424" y="145.675389" style="fill: #ff0000; stroke: #000000"/>
    </g>
    <g clip-path="url(#pe739a7614f)">
     <use xlink:href="#C0_0_40579697b8" x="229.41544" y="171.398915" style="fill: #ff0000; stroke: #000000"/>
    </g>
    <g clip-path="url(#pe739a7614f)">
     <use xlink:href="#C0_0_40579697b8" x="169.730514" y="61.679354" style="fill: #ff0000; stroke: #000000"/>
    </g>
    <g clip-path="url(#pe739a7614f)">
     <use xlink:href="#C0_0_40579697b8" x="208.168522" y="174.540867" style="fill: #ff0000; stroke: #000000"/>
    </g>
    <g clip-path="url(#pe739a7614f)">
     <use xlink:href="#C0_0_40579697b8" x="213.777957" y="148.724481" style="fill: #ff0000; stroke: #000000"/>
    </g>
    <g clip-path="url(#pe739a7614f)">
     <use xlink:href="#C0_0_40579697b8" x="170.742015" y="94.276649" style="fill: #ff0000; stroke: #000000"/>
    </g>
    <g clip-path="url(#pe739a7614f)">
     <use xlink:href="#C0_0_40579697b8" x="177.226383" y="71.146571" style="fill: #ff0000; stroke: #000000"/>
    </g>
    <g clip-path="url(#pe739a7614f)">
     <use xlink:href="#C0_0_40579697b8" x="237.229342" y="108.07529" style="fill: #ff0000; stroke: #000000"/>
    </g>
    <g clip-path="url(#pe739a7614f)">
     <use xlink:href="#C0_0_40579697b8" x="199.087117" y="162.254892" style="fill: #ff0000; stroke: #000000"/>
    </g>
    <g clip-path="url(#pe739a7614f)">
     <use xlink:href="#C0_0_40579697b8" x="232.518193" y="138.296442" style="fill: #ff0000; stroke: #000000"/>
    </g>
    <g clip-path="url(#pe739a7614f)">
     <use xlink:href="#C0_0_40579697b8" x="197.289917" y="164.394985" style="fill: #ff0000; stroke: #000000"/>
    </g>
    <g clip-path="url(#pe739a7614f)">
     <use xlink:href="#C0_0_40579697b8" x="175.009068" y="53.568" style="fill: #ff0000; stroke: #000000"/>
    </g>
    <g clip-path="url(#pe739a7614f)">
     <use xlink:href="#C0_0_40579697b8" x="127.2899" y="69.017155" style="fill: #ff0000; stroke: #000000"/>
    </g>
    <g clip-path="url(#pe739a7614f)">
     <use xlink:href="#C0_0_40579697b8" x="152.357435" y="60.909317" style="fill: #ff0000; stroke: #000000"/>
    </g>
    <g clip-path="url(#pe739a7614f)">
     <use xlink:href="#C0_0_40579697b8" x="219.114526" y="165.554033" style="fill: #ff0000; stroke: #000000"/>
    </g>
    <g clip-path="url(#pe739a7614f)">
     <use xlink:href="#C0_0_40579697b8" x="177.338442" y="163.243148" style="fill: #ff0000; stroke: #000000"/>
    </g>
    <g clip-path="url(#pe739a7614f)">
     <use xlink:href="#C0_0_40579697b8" x="206.985584" y="144.419557" style="fill: #ff0000; stroke: #000000"/>
    </g>
    <g clip-path="url(#pe739a7614f)">
     <use xlink:href="#C0_0_40579697b8" x="165.261837" y="137.295802" style="fill: #ff0000; stroke: #000000"/>
    </g>
    <g clip-path="url(#pe739a7614f)">
     <use xlink:href="#C0_0_40579697b8" x="185.055555" y="125.944277" style="fill: #ff0000; stroke: #000000"/>
    </g>
    <g clip-path="url(#pe739a7614f)">
     <use xlink:href="#C0_0_40579697b8" x="212.454543" y="155.711296" style="fill: #ff0000; stroke: #000000"/>
    </g>
    <g clip-path="url(#pe739a7614f)">
     <use xlink:href="#C0_0_40579697b8" x="176.376517" y="75.130479" style="fill: #ff0000; stroke: #000000"/>
    </g>
    <g clip-path="url(#pe739a7614f)">
     <use xlink:href="#C0_0_40579697b8" x="150.588695" y="124.4152" style="fill: #ff0000; stroke: #000000"/>
    </g>
    <g clip-path="url(#pe739a7614f)">
     <use xlink:href="#C0_0_40579697b8" x="216.742835" y="101.102449" style="fill: #ff0000; stroke: #000000"/>
    </g>
    <g clip-path="url(#pe739a7614f)">
     <use xlink:href="#C0_0_40579697b8" x="168.704107" y="56.276046" style="fill: #ff0000; stroke: #000000"/>
    </g>
    <g clip-path="url(#pe739a7614f)">
     <use xlink:href="#C0_0_40579697b8" x="180.675334" y="66.67729" style="fill: #ff0000; stroke: #000000"/>
    </g>
    <g clip-path="url(#pe739a7614f)">
     <use xlink:href="#C0_0_40579697b8" x="169.049038" y="68.141506" style="fill: #ff0000; stroke: #000000"/>
    </g>
    <g clip-path="url(#pe739a7614f)">
     <use xlink:href="#C0_0_40579697b8" x="233.435139" y="141.463074" style="fill: #ff0000; stroke: #000000"/>
    </g>
    <g clip-path="url(#pe739a7614f)">
     <use xlink:href="#C0_0_40579697b8" x="167.220599" y="55.927144" style="fill: #ff0000; stroke: #000000"/>
    </g>
    <g clip-path="url(#pe739a7614f)">
     <use xlink:href="#C0_0_40579697b8" x="219.212455" y="163.283798" style="fill: #ff0000; stroke: #000000"/>
    </g>
    <g clip-path="url(#pe739a7614f)">
     <use xlink:href="#C0_0_40579697b8" x="227.107172" y="159.684167" style="fill: #ff0000; stroke: #000000"/>
    </g>
    <g clip-path="url(#pe739a7614f)">
     <use xlink:href="#C0_0_40579697b8" x="182.849577" y="78.781899" style="fill: #ff0000; stroke: #000000"/>
    </g>
    <g clip-path="url(#pe739a7614f)">
     <use xlink:href="#C0_0_40579697b8" x="164.933969" y="65.222173" style="fill: #ff0000; stroke: #000000"/>
    </g>
    <g clip-path="url(#pe739a7614f)">
     <use xlink:href="#C0_0_40579697b8" x="211.344517" y="170.079775" style="fill: #ff0000; stroke: #000000"/>
    </g>
    <g clip-path="url(#pe739a7614f)">
     <use xlink:href="#C0_0_40579697b8" x="239.652166" y="104.887851" style="fill: #ff0000; stroke: #000000"/>
    </g>
    <g clip-path="url(#pe739a7614f)">
     <use xlink:href="#C0_0_40579697b8" x="177.306127" y="90.6555" style="fill: #ff0000; stroke: #000000"/>
    </g>
    <g clip-path="url(#pe739a7614f)">
     <use xlink:href="#C0_0_40579697b8" x="124.968124" y="61.357811" style="fill: #ff0000; stroke: #000000"/>
    </g>
    <g clip-path="url(#pe739a7614f)">
     <use xlink:href="#C0_0_40579697b8" x="157.530719" y="145.295028" style="fill: #ff0000; stroke: #000000"/>
    </g>
    <g clip-path="url(#pe739a7614f)">
     <use xlink:href="#C0_0_40579697b8" x="174.845591" y="84.859934" style="fill: #ff0000; stroke: #000000"/>
    </g>
    <g clip-path="url(#pe739a7614f)">
     <use xlink:href="#C0_0_40579697b8" x="212.080278" y="178.284421" style="fill: #ff0000; stroke: #000000"/>
    </g>
    <g clip-path="url(#pe739a7614f)">
     <use xlink:href="#C0_0_40579697b8" x="190.398616" y="191.226556" style="fill: #ff0000; stroke: #000000"/>
    </g>
    <g clip-path="url(#pe739a7614f)">
     <use xlink:href="#C0_0_40579697b8" x="217.327047" y="153.529" style="fill: #ff0000; stroke: #000000"/>
    </g>
    <g clip-path="url(#pe739a7614f)">
     <use xlink:href="#C0_0_40579697b8" x="177.828105" y="60.653227" style="fill: #ff0000; stroke: #000000"/>
    </g>
    <g clip-path="url(#pe739a7614f)">
     <use xlink:href="#C0_0_40579697b8" x="213.257648" y="144.434804" style="fill: #ff0000; stroke: #000000"/>
    </g>
    <g clip-path="url(#pe739a7614f)">
     <use xlink:href="#C0_0_40579697b8" x="215.611409" y="89.032207" style="fill: #ff0000; stroke: #000000"/>
    </g>
    <g clip-path="url(#pe739a7614f)">
     <use xlink:href="#C0_0_40579697b8" x="175.667544" y="70.095512" style="fill: #ff0000; stroke: #000000"/>
    </g>
    <g clip-path="url(#pe739a7614f)">
     <use xlink:href="#C0_0_40579697b8" x="175.059251" y="73.729327" style="fill: #ff0000; stroke: #000000"/>
    </g>
    <g clip-path="url(#pe739a7614f)">
     <use xlink:href="#C0_0_40579697b8" x="211.358285" y="99.384639" style="fill: #ff0000; stroke: #000000"/>
    </g>
    <g clip-path="url(#pe739a7614f)">
     <use xlink:href="#C0_0_40579697b8" x="225.335865" y="115.47864" style="fill: #ff0000; stroke: #000000"/>
    </g>
    <g clip-path="url(#pe739a7614f)">
     <use xlink:href="#C0_0_40579697b8" x="222.981666" y="170.13301" style="fill: #ff0000; stroke: #000000"/>
    </g>
    <g clip-path="url(#pe739a7614f)">
     <use xlink:href="#C0_0_40579697b8" x="219.65718" y="122.023918" style="fill: #ff0000; stroke: #000000"/>
    </g>
    <g clip-path="url(#pe739a7614f)">
     <use xlink:href="#C0_0_40579697b8" x="197.603428" y="165.40476" style="fill: #ff0000; stroke: #000000"/>
    </g>
    <g clip-path="url(#pe739a7614f)">
     <use xlink:href="#C0_0_40579697b8" x="217.729964" y="174.399406" style="fill: #ff0000; stroke: #000000"/>
    </g>
    <g clip-path="url(#pe739a7614f)">
     <use xlink:href="#C0_0_40579697b8" x="171.772904" y="89.46473" style="fill: #ff0000; stroke: #000000"/>
    </g>
    <g clip-path="url(#pe739a7614f)">
     <use xlink:href="#C0_0_40579697b8" x="204.680255" y="168.02485" style="fill: #ff0000; stroke: #000000"/>
    </g>
    <g clip-path="url(#pe739a7614f)">
     <use xlink:href="#C0_0_40579697b8" x="136.771533" y="107.048234" style="fill: #ff0000; stroke: #000000"/>
    </g>
    <g clip-path="url(#pe739a7614f)">
     <use xlink:href="#C0_0_40579697b8" x="201.162749" y="59.85822" style="fill: #ff0000; stroke: #000000"/>
    </g>
    <g clip-path="url(#pe739a7614f)">
     <use xlink:href="#C0_0_40579697b8" x="220.326598" y="103.134248" style="fill: #ff0000; stroke: #000000"/>
    </g>
    <g clip-path="url(#pe739a7614f)">
     <use xlink:href="#C0_0_40579697b8" x="225.878408" y="135.580169" style="fill: #ff0000; stroke: #000000"/>
    </g>
    <g clip-path="url(#pe739a7614f)">
     <use xlink:href="#C0_0_40579697b8" x="159.325399" y="123.125645" style="fill: #ff0000; stroke: #000000"/>
    </g>
    <g clip-path="url(#pe739a7614f)">
     <use xlink:href="#C0_0_40579697b8" x="211.52815" y="137.575921" style="fill: #ff0000; stroke: #000000"/>
    </g>
    <g clip-path="url(#pe739a7614f)">
     <use xlink:href="#C0_0_40579697b8" x="223.512017" y="117.797448" style="fill: #ff0000; stroke: #000000"/>
    </g>
    <g clip-path="url(#pe739a7614f)">
     <use xlink:href="#C0_0_40579697b8" x="175.848194" y="70.11698" style="fill: #ff0000; stroke: #000000"/>
    </g>
    <g clip-path="url(#pe739a7614f)">
     <use xlink:href="#C0_0_40579697b8" x="219.544127" y="115.24664" style="fill: #ff0000; stroke: #000000"/>
    </g>
    <g clip-path="url(#pe739a7614f)">
     <use xlink:href="#C0_0_40579697b8" x="123.746524" y="76.617641" style="fill: #ff0000; stroke: #000000"/>
    </g>
    <g clip-path="url(#pe739a7614f)">
     <use xlink:href="#C0_0_40579697b8" x="221.851539" y="111.388804" style="fill: #ff0000; stroke: #000000"/>
    </g>
    <g clip-path="url(#pe739a7614f)">
     <use xlink:href="#C0_0_40579697b8" x="201.884331" y="164.717105" style="fill: #ff0000; stroke: #000000"/>
    </g>
    <g clip-path="url(#pe739a7614f)">
     <use xlink:href="#C0_0_40579697b8" x="204.134983" y="166.79403" style="fill: #ff0000; stroke: #000000"/>
    </g>
    <g clip-path="url(#pe739a7614f)">
     <use xlink:href="#C0_0_40579697b8" x="166.319424" y="64.206984" style="fill: #ff0000; stroke: #000000"/>
    </g>
    <g clip-path="url(#pe739a7614f)">
     <use xlink:href="#C0_0_40579697b8" x="217.557494" y="101.76707" style="fill: #ff0000; stroke: #000000"/>
    </g>
    <g clip-path="url(#pe739a7614f)">
     <use xlink:href="#C0_0_40579697b8" x="233.31818" y="174.619637" style="fill: #ff0000; stroke: #000000"/>
    </g>
    <g clip-path="url(#pe739a7614f)">
     <use xlink:href="#C0_0_40579697b8" x="166.351772" y="63.972157" style="fill: #ff0000; stroke: #000000"/>
    </g>
    <g clip-path="url(#pe739a7614f)">
     <use xlink:href="#C0_0_40579697b8" x="241.802581" y="75.265749" style="fill: #ff0000; stroke: #000000"/>
    </g>
    <g clip-path="url(#pe739a7614f)">
     <use xlink:href="#C0_0_40579697b8" x="174.976525" y="76.035781" style="fill: #ff0000; stroke: #000000"/>
    </g>
    <g clip-path="url(#pe739a7614f)">
     <use xlink:href="#C0_0_40579697b8" x="195.447877" y="56.875542" style="fill: #ff0000; stroke: #000000"/>
    </g>
    <g clip-path="url(#pe739a7614f)">
     <use xlink:href="#C0_0_40579697b8" x="217.609333" y="107.849832" style="fill: #ff0000; stroke: #000000"/>
    </g>
    <g clip-path="url(#pe739a7614f)">
     <use xlink:href="#C0_0_40579697b8" x="73.832727" y="133.658313" style="fill: #ff0000; stroke: #000000"/>
    </g>
    <g clip-path="url(#pe739a7614f)">
     <use xlink:href="#C0_0_40579697b8" x="196.348902" y="158.764923" style="fill: #ff0000; stroke: #000000"/>
    </g>
    <g clip-path="url(#pe739a7614f)">
     <use xlink:href="#C0_0_40579697b8" x="195.25622" y="163.921296" style="fill: #ff0000; stroke: #000000"/>
    </g>
    <g clip-path="url(#pe739a7614f)">
     <use xlink:href="#C0_0_40579697b8" x="188.999428" y="295.488" style="fill: #ff0000; stroke: #000000"/>
    </g>
    <g clip-path="url(#pe739a7614f)">
     <use xlink:href="#C0_0_40579697b8" x="205.463645" y="170.396956" style="fill: #ff0000; stroke: #000000"/>
    </g>
    <g clip-path="url(#pe739a7614f)">
     <use xlink:href="#C0_0_40579697b8" x="149.277349" y="131.464917" style="fill: #ff0000; stroke: #000000"/>
    </g>
    <g clip-path="url(#pe739a7614f)">
     <use xlink:href="#C0_0_40579697b8" x="189.491979" y="180.589116" style="fill: #ff0000; stroke: #000000"/>
    </g>
    <g clip-path="url(#pe739a7614f)">
     <use xlink:href="#C0_0_40579697b8" x="229.110368" y="176.877884" style="fill: #ff0000; stroke: #000000"/>
    </g>
    <g clip-path="url(#pe739a7614f)">
     <use xlink:href="#C0_0_40579697b8" x="151.283718" y="121.382499" style="fill: #ff0000; stroke: #000000"/>
    </g>
    <g clip-path="url(#pe739a7614f)">
     <use xlink:href="#C0_0_40579697b8" x="194.866148" y="140.763182" style="fill: #ff0000; stroke: #000000"/>
    </g>
    <g clip-path="url(#pe739a7614f)">
     <use xlink:href="#C0_0_40579697b8" x="235.792127" y="165.222267" style="fill: #ff0000; stroke: #000000"/>
    </g>
    <g clip-path="url(#pe739a7614f)">
     <use xlink:href="#C0_0_40579697b8" x="164.79587" y="59.456013" style="fill: #ff0000; stroke: #000000"/>
    </g>
    <g clip-path="url(#pe739a7614f)">
     <use xlink:href="#C0_0_40579697b8" x="191.777577" y="126.834714" style="fill: #ff0000; stroke: #000000"/>
    </g>
    <g clip-path="url(#pe739a7614f)">
     <use xlink:href="#C0_0_40579697b8" x="243.458885" y="102.125817" style="fill: #ff0000; stroke: #000000"/>
    </g>
    <g clip-path="url(#pe739a7614f)">
     <use xlink:href="#C0_0_40579697b8" x="201.716268" y="164.020211" style="fill: #ff0000; stroke: #000000"/>
    </g>
    <g clip-path="url(#pe739a7614f)">
     <use xlink:href="#C0_0_40579697b8" x="178.047918" y="103.062734" style="fill: #ff0000; stroke: #000000"/>
    </g>
    <g clip-path="url(#pe739a7614f)">
     <use xlink:href="#C0_0_40579697b8" x="228.104464" y="154.821136" style="fill: #ff0000; stroke: #000000"/>
    </g>
    <g clip-path="url(#pe739a7614f)">
     <use xlink:href="#C0_0_40579697b8" x="216.395059" y="126.322584" style="fill: #ff0000; stroke: #000000"/>
    </g>
    <g clip-path="url(#pe739a7614f)">
     <use xlink:href="#C0_0_40579697b8" x="166.245816" y="62.551461" style="fill: #ff0000; stroke: #000000"/>
    </g>
    <g clip-path="url(#pe739a7614f)">
     <use xlink:href="#C0_0_40579697b8" x="212.065584" y="95.96998" style="fill: #ff0000; stroke: #000000"/>
    </g>
    <g clip-path="url(#pe739a7614f)">
     <use xlink:href="#C0_0_40579697b8" x="214.789359" y="127.33022" style="fill: #ff0000; stroke: #000000"/>
    </g>
    <g clip-path="url(#pe739a7614f)">
     <use xlink:href="#C0_0_40579697b8" x="209.766349" y="173.474679" style="fill: #ff0000; stroke: #000000"/>
    </g>
    <g clip-path="url(#pe739a7614f)">
     <use xlink:href="#C0_0_40579697b8" x="206.166245" y="94.902041" style="fill: #ff0000; stroke: #000000"/>
    </g>
    <g clip-path="url(#pe739a7614f)">
     <use xlink:href="#C0_0_40579697b8" x="187.318054" y="178.202907" style="fill: #ff0000; stroke: #000000"/>
    </g>
    <g clip-path="url(#pe739a7614f)">
     <use xlink:href="#C0_0_40579697b8" x="216.709089" y="154.259981" style="fill: #ff0000; stroke: #000000"/>
    </g>
    <g clip-path="url(#pe739a7614f)">
     <use xlink:href="#C0_0_40579697b8" x="216.900198" y="99.598462" style="fill: #ff0000; stroke: #000000"/>
    </g>
    <g clip-path="url(#pe739a7614f)">
     <use xlink:href="#C0_0_40579697b8" x="194.780193" y="187.375078" style="fill: #ff0000; stroke: #000000"/>
    </g>
    <g clip-path="url(#pe739a7614f)">
     <use xlink:href="#C0_0_40579697b8" x="193.949777" y="186.368065" style="fill: #ff0000; stroke: #000000"/>
    </g>
    <g clip-path="url(#pe739a7614f)">
     <use xlink:href="#C0_0_40579697b8" x="154.489812" y="125.291566" style="fill: #ff0000; stroke: #000000"/>
    </g>
    <g clip-path="url(#pe739a7614f)">
     <use xlink:href="#C0_0_40579697b8" x="168.033267" y="53.741827" style="fill: #ff0000; stroke: #000000"/>
    </g>
    <g clip-path="url(#pe739a7614f)">
     <use xlink:href="#C0_0_40579697b8" x="169.652653" y="63.196121" style="fill: #ff0000; stroke: #000000"/>
    </g>
    <g clip-path="url(#pe739a7614f)">
     <use xlink:href="#C0_0_40579697b8" x="196.653351" y="179.967081" style="fill: #ff0000; stroke: #000000"/>
    </g>
    <g clip-path="url(#pe739a7614f)">
     <use xlink:href="#C0_0_40579697b8" x="162.71481" y="62.145231" style="fill: #ff0000; stroke: #000000"/>
    </g>
    <g clip-path="url(#pe739a7614f)">
     <use xlink:href="#C0_0_40579697b8" x="199.437991" y="152.432682" style="fill: #ff0000; stroke: #000000"/>
    </g>
    <g clip-path="url(#pe739a7614f)">
     <use xlink:href="#C0_0_40579697b8" x="200.326575" y="167.586007" style="fill: #ff0000; stroke: #000000"/>
    </g>
    <g clip-path="url(#pe739a7614f)">
     <use xlink:href="#C0_0_40579697b8" x="175.514998" y="68.268214" style="fill: #ff0000; stroke: #000000"/>
    </g>
    <g clip-path="url(#pe739a7614f)">
     <use xlink:href="#C0_0_40579697b8" x="158.757185" y="157.801057" style="fill: #ff0000; stroke: #000000"/>
    </g>
    <g clip-path="url(#pe739a7614f)">
     <use xlink:href="#C0_0_40579697b8" x="89.846019" y="106.838762" style="fill: #ff0000; stroke: #000000"/>
    </g>
    <g clip-path="url(#pe739a7614f)">
     <use xlink:href="#C0_0_40579697b8" x="165.226646" y="59.63975" style="fill: #ff0000; stroke: #000000"/>
    </g>
    <g clip-path="url(#pe739a7614f)">
     <use xlink:href="#C0_0_40579697b8" x="155.380761" y="144.687277" style="fill: #ff0000; stroke: #000000"/>
    </g>
    <g clip-path="url(#pe739a7614f)">
     <use xlink:href="#C0_0_40579697b8" x="198.854712" y="150.058146" style="fill: #ff0000; stroke: #000000"/>
    </g>
    <g clip-path="url(#pe739a7614f)">
     <use xlink:href="#C0_0_40579697b8" x="185.1388" y="135.821236" style="fill: #ff0000; stroke: #000000"/>
    </g>
   </g>
   <g id="matplotlib.axis_1">
    <g id="xtick_1">
     <g id="line2d_1">
      <defs>
       <path id="m88da09a885" d="M 0 0 
L 0 3.5 
" style="stroke: #000000; stroke-width: 0.8"/>
      </defs>
      <g>
       <use xlink:href="#m88da09a885" x="111.703668" y="307.584" style="stroke: #000000; stroke-width: 0.8"/>
      </g>
     </g>
     <g id="text_1">
      <!-- −50 -->
      <g transform="translate(101.151324 322.182437) scale(0.1 -0.1)">
       <defs>
        <path id="DejaVuSans-2212" d="M 678 2272 
L 4684 2272 
L 4684 1741 
L 678 1741 
L 678 2272 
z
" transform="scale(0.015625)"/>
        <path id="DejaVuSans-35" d="M 691 4666 
L 3169 4666 
L 3169 4134 
L 1269 4134 
L 1269 2991 
Q 1406 3038 1543 3061 
Q 1681 3084 1819 3084 
Q 2600 3084 3056 2656 
Q 3513 2228 3513 1497 
Q 3513 744 3044 326 
Q 2575 -91 1722 -91 
Q 1428 -91 1123 -41 
Q 819 9 494 109 
L 494 744 
Q 775 591 1075 516 
Q 1375 441 1709 441 
Q 2250 441 2565 725 
Q 2881 1009 2881 1497 
Q 2881 1984 2565 2268 
Q 2250 2553 1709 2553 
Q 1456 2553 1204 2497 
Q 953 2441 691 2322 
L 691 4666 
z
" transform="scale(0.015625)"/>
        <path id="DejaVuSans-30" d="M 2034 4250 
Q 1547 4250 1301 3770 
Q 1056 3291 1056 2328 
Q 1056 1369 1301 889 
Q 1547 409 2034 409 
Q 2525 409 2770 889 
Q 3016 1369 3016 2328 
Q 3016 3291 2770 3770 
Q 2525 4250 2034 4250 
z
M 2034 4750 
Q 2819 4750 3233 4129 
Q 3647 3509 3647 2328 
Q 3647 1150 3233 529 
Q 2819 -91 2034 -91 
Q 1250 -91 836 529 
Q 422 1150 422 2328 
Q 422 3509 836 4129 
Q 1250 4750 2034 4750 
z
" transform="scale(0.015625)"/>
       </defs>
       <use xlink:href="#DejaVuSans-2212"/>
       <use xlink:href="#DejaVuSans-35" x="83.789062"/>
       <use xlink:href="#DejaVuSans-30" x="147.412109"/>
      </g>
     </g>
    </g>
    <g id="xtick_2">
     <g id="line2d_2">
      <g>
       <use xlink:href="#m88da09a885" x="190.47688" y="307.584" style="stroke: #000000; stroke-width: 0.8"/>
      </g>
     </g>
     <g id="text_2">
      <!-- 0 -->
      <g transform="translate(187.29563 322.182437) scale(0.1 -0.1)">
       <use xlink:href="#DejaVuSans-30"/>
      </g>
     </g>
    </g>
    <g id="xtick_3">
     <g id="line2d_3">
      <g>
       <use xlink:href="#m88da09a885" x="269.250092" y="307.584" style="stroke: #000000; stroke-width: 0.8"/>
      </g>
     </g>
     <g id="text_3">
      <!-- 50 -->
      <g transform="translate(262.887592 322.182437) scale(0.1 -0.1)">
       <use xlink:href="#DejaVuSans-35"/>
       <use xlink:href="#DejaVuSans-30" x="63.623047"/>
      </g>
     </g>
    </g>
    <g id="xtick_4">
     <g id="line2d_4">
      <g>
       <use xlink:href="#m88da09a885" x="348.023304" y="307.584" style="stroke: #000000; stroke-width: 0.8"/>
      </g>
     </g>
     <g id="text_4">
      <!-- 100 -->
      <g transform="translate(338.479554 322.182437) scale(0.1 -0.1)">
       <defs>
        <path id="DejaVuSans-31" d="M 794 531 
L 1825 531 
L 1825 4091 
L 703 3866 
L 703 4441 
L 1819 4666 
L 2450 4666 
L 2450 531 
L 3481 531 
L 3481 0 
L 794 0 
L 794 531 
z
" transform="scale(0.015625)"/>
       </defs>
       <use xlink:href="#DejaVuSans-31"/>
       <use xlink:href="#DejaVuSans-30" x="63.623047"/>
       <use xlink:href="#DejaVuSans-30" x="127.246094"/>
      </g>
     </g>
    </g>
   </g>
   <g id="matplotlib.axis_2">
    <g id="ytick_1">
     <g id="line2d_5">
      <defs>
       <path id="md28645b724" d="M 0 0 
L -3.5 0 
" style="stroke: #000000; stroke-width: 0.8"/>
      </defs>
      <g>
       <use xlink:href="#md28645b724" x="57.6" y="302.524807" style="stroke: #000000; stroke-width: 0.8"/>
      </g>
     </g>
     <g id="text_5">
      <!-- −80 -->
      <g transform="translate(29.495313 306.324026) scale(0.1 -0.1)">
       <defs>
        <path id="DejaVuSans-38" d="M 2034 2216 
Q 1584 2216 1326 1975 
Q 1069 1734 1069 1313 
Q 1069 891 1326 650 
Q 1584 409 2034 409 
Q 2484 409 2743 651 
Q 3003 894 3003 1313 
Q 3003 1734 2745 1975 
Q 2488 2216 2034 2216 
z
M 1403 2484 
Q 997 2584 770 2862 
Q 544 3141 544 3541 
Q 544 4100 942 4425 
Q 1341 4750 2034 4750 
Q 2731 4750 3128 4425 
Q 3525 4100 3525 3541 
Q 3525 3141 3298 2862 
Q 3072 2584 2669 2484 
Q 3125 2378 3379 2068 
Q 3634 1759 3634 1313 
Q 3634 634 3220 271 
Q 2806 -91 2034 -91 
Q 1263 -91 848 271 
Q 434 634 434 1313 
Q 434 1759 690 2068 
Q 947 2378 1403 2484 
z
M 1172 3481 
Q 1172 3119 1398 2916 
Q 1625 2713 2034 2713 
Q 2441 2713 2670 2916 
Q 2900 3119 2900 3481 
Q 2900 3844 2670 4047 
Q 2441 4250 2034 4250 
Q 1625 4250 1398 4047 
Q 1172 3844 1172 3481 
z
" transform="scale(0.015625)"/>
       </defs>
       <use xlink:href="#DejaVuSans-2212"/>
       <use xlink:href="#DejaVuSans-38" x="83.789062"/>
       <use xlink:href="#DejaVuSans-30" x="147.412109"/>
      </g>
     </g>
    </g>
    <g id="ytick_2">
     <g id="line2d_6">
      <g>
       <use xlink:href="#md28645b724" x="57.6" y="257.067405" style="stroke: #000000; stroke-width: 0.8"/>
      </g>
     </g>
     <g id="text_6">
      <!-- −60 -->
      <g transform="translate(29.495313 260.866624) scale(0.1 -0.1)">
       <defs>
        <path id="DejaVuSans-36" d="M 2113 2584 
Q 1688 2584 1439 2293 
Q 1191 2003 1191 1497 
Q 1191 994 1439 701 
Q 1688 409 2113 409 
Q 2538 409 2786 701 
Q 3034 994 3034 1497 
Q 3034 2003 2786 2293 
Q 2538 2584 2113 2584 
z
M 3366 4563 
L 3366 3988 
Q 3128 4100 2886 4159 
Q 2644 4219 2406 4219 
Q 1781 4219 1451 3797 
Q 1122 3375 1075 2522 
Q 1259 2794 1537 2939 
Q 1816 3084 2150 3084 
Q 2853 3084 3261 2657 
Q 3669 2231 3669 1497 
Q 3669 778 3244 343 
Q 2819 -91 2113 -91 
Q 1303 -91 875 529 
Q 447 1150 447 2328 
Q 447 3434 972 4092 
Q 1497 4750 2381 4750 
Q 2619 4750 2861 4703 
Q 3103 4656 3366 4563 
z
" transform="scale(0.015625)"/>
       </defs>
       <use xlink:href="#DejaVuSans-2212"/>
       <use xlink:href="#DejaVuSans-36" x="83.789062"/>
       <use xlink:href="#DejaVuSans-30" x="147.412109"/>
      </g>
     </g>
    </g>
    <g id="ytick_3">
     <g id="line2d_7">
      <g>
       <use xlink:href="#md28645b724" x="57.6" y="211.610003" style="stroke: #000000; stroke-width: 0.8"/>
      </g>
     </g>
     <g id="text_7">
      <!-- −40 -->
      <g transform="translate(29.495313 215.409222) scale(0.1 -0.1)">
       <defs>
        <path id="DejaVuSans-34" d="M 2419 4116 
L 825 1625 
L 2419 1625 
L 2419 4116 
z
M 2253 4666 
L 3047 4666 
L 3047 1625 
L 3713 1625 
L 3713 1100 
L 3047 1100 
L 3047 0 
L 2419 0 
L 2419 1100 
L 313 1100 
L 313 1709 
L 2253 4666 
z
" transform="scale(0.015625)"/>
       </defs>
       <use xlink:href="#DejaVuSans-2212"/>
       <use xlink:href="#DejaVuSans-34" x="83.789062"/>
       <use xlink:href="#DejaVuSans-30" x="147.412109"/>
      </g>
     </g>
    </g>
    <g id="ytick_4">
     <g id="line2d_8">
      <g>
       <use xlink:href="#md28645b724" x="57.6" y="166.152601" style="stroke: #000000; stroke-width: 0.8"/>
      </g>
     </g>
     <g id="text_8">
      <!-- −20 -->
      <g transform="translate(29.495313 169.951819) scale(0.1 -0.1)">
       <defs>
        <path id="DejaVuSans-32" d="M 1228 531 
L 3431 531 
L 3431 0 
L 469 0 
L 469 531 
Q 828 903 1448 1529 
Q 2069 2156 2228 2338 
Q 2531 2678 2651 2914 
Q 2772 3150 2772 3378 
Q 2772 3750 2511 3984 
Q 2250 4219 1831 4219 
Q 1534 4219 1204 4116 
Q 875 4013 500 3803 
L 500 4441 
Q 881 4594 1212 4672 
Q 1544 4750 1819 4750 
Q 2544 4750 2975 4387 
Q 3406 4025 3406 3419 
Q 3406 3131 3298 2873 
Q 3191 2616 2906 2266 
Q 2828 2175 2409 1742 
Q 1991 1309 1228 531 
z
" transform="scale(0.015625)"/>
       </defs>
       <use xlink:href="#DejaVuSans-2212"/>
       <use xlink:href="#DejaVuSans-32" x="83.789062"/>
       <use xlink:href="#DejaVuSans-30" x="147.412109"/>
      </g>
     </g>
    </g>
    <g id="ytick_5">
     <g id="line2d_9">
      <g>
       <use xlink:href="#md28645b724" x="57.6" y="120.695198" style="stroke: #000000; stroke-width: 0.8"/>
      </g>
     </g>
     <g id="text_9">
      <!-- 0 -->
      <g transform="translate(44.2375 124.494417) scale(0.1 -0.1)">
       <use xlink:href="#DejaVuSans-30"/>
      </g>
     </g>
    </g>
    <g id="ytick_6">
     <g id="line2d_10">
      <g>
       <use xlink:href="#md28645b724" x="57.6" y="75.237796" style="stroke: #000000; stroke-width: 0.8"/>
      </g>
     </g>
     <g id="text_10">
      <!-- 20 -->
      <g transform="translate(37.875 79.037015) scale(0.1 -0.1)">
       <use xlink:href="#DejaVuSans-32"/>
       <use xlink:href="#DejaVuSans-30" x="63.623047"/>
      </g>
     </g>
    </g>
   </g>
   <g id="patch_3">
    <path d="M 57.6 307.584 
L 57.6 41.472 
" style="fill: none; stroke: #000000; stroke-width: 0.8; stroke-linejoin: miter; stroke-linecap: square"/>
   </g>
   <g id="patch_4">
    <path d="M 414.72 307.584 
L 414.72 41.472 
" style="fill: none; stroke: #000000; stroke-width: 0.8; stroke-linejoin: miter; stroke-linecap: square"/>
   </g>
   <g id="patch_5">
    <path d="M 57.6 307.584 
L 414.72 307.584 
" style="fill: none; stroke: #000000; stroke-width: 0.8; stroke-linejoin: miter; stroke-linecap: square"/>
   </g>
   <g id="patch_6">
    <path d="M 57.6 41.472 
L 414.72 41.472 
" style="fill: none; stroke: #000000; stroke-width: 0.8; stroke-linejoin: miter; stroke-linecap: square"/>
   </g>
   <g id="text_11">
    <!-- trimap + kmeans on m045_c32 -->
    <g transform="translate(141.368437 35.472) scale(0.12 -0.12)">
     <defs>
      <path id="DejaVuSans-74" d="M 1172 4494 
L 1172 3500 
L 2356 3500 
L 2356 3053 
L 1172 3053 
L 1172 1153 
Q 1172 725 1289 603 
Q 1406 481 1766 481 
L 2356 481 
L 2356 0 
L 1766 0 
Q 1100 0 847 248 
Q 594 497 594 1153 
L 594 3053 
L 172 3053 
L 172 3500 
L 594 3500 
L 594 4494 
L 1172 4494 
z
" transform="scale(0.015625)"/>
      <path id="DejaVuSans-72" d="M 2631 2963 
Q 2534 3019 2420 3045 
Q 2306 3072 2169 3072 
Q 1681 3072 1420 2755 
Q 1159 2438 1159 1844 
L 1159 0 
L 581 0 
L 581 3500 
L 1159 3500 
L 1159 2956 
Q 1341 3275 1631 3429 
Q 1922 3584 2338 3584 
Q 2397 3584 2469 3576 
Q 2541 3569 2628 3553 
L 2631 2963 
z
" transform="scale(0.015625)"/>
      <path id="DejaVuSans-69" d="M 603 3500 
L 1178 3500 
L 1178 0 
L 603 0 
L 603 3500 
z
M 603 4863 
L 1178 4863 
L 1178 4134 
L 603 4134 
L 603 4863 
z
" transform="scale(0.015625)"/>
      <path id="DejaVuSans-6d" d="M 3328 2828 
Q 3544 3216 3844 3400 
Q 4144 3584 4550 3584 
Q 5097 3584 5394 3201 
Q 5691 2819 5691 2113 
L 5691 0 
L 5113 0 
L 5113 2094 
Q 5113 2597 4934 2840 
Q 4756 3084 4391 3084 
Q 3944 3084 3684 2787 
Q 3425 2491 3425 1978 
L 3425 0 
L 2847 0 
L 2847 2094 
Q 2847 2600 2669 2842 
Q 2491 3084 2119 3084 
Q 1678 3084 1418 2786 
Q 1159 2488 1159 1978 
L 1159 0 
L 581 0 
L 581 3500 
L 1159 3500 
L 1159 2956 
Q 1356 3278 1631 3431 
Q 1906 3584 2284 3584 
Q 2666 3584 2933 3390 
Q 3200 3197 3328 2828 
z
" transform="scale(0.015625)"/>
      <path id="DejaVuSans-61" d="M 2194 1759 
Q 1497 1759 1228 1600 
Q 959 1441 959 1056 
Q 959 750 1161 570 
Q 1363 391 1709 391 
Q 2188 391 2477 730 
Q 2766 1069 2766 1631 
L 2766 1759 
L 2194 1759 
z
M 3341 1997 
L 3341 0 
L 2766 0 
L 2766 531 
Q 2569 213 2275 61 
Q 1981 -91 1556 -91 
Q 1019 -91 701 211 
Q 384 513 384 1019 
Q 384 1609 779 1909 
Q 1175 2209 1959 2209 
L 2766 2209 
L 2766 2266 
Q 2766 2663 2505 2880 
Q 2244 3097 1772 3097 
Q 1472 3097 1187 3025 
Q 903 2953 641 2809 
L 641 3341 
Q 956 3463 1253 3523 
Q 1550 3584 1831 3584 
Q 2591 3584 2966 3190 
Q 3341 2797 3341 1997 
z
" transform="scale(0.015625)"/>
      <path id="DejaVuSans-70" d="M 1159 525 
L 1159 -1331 
L 581 -1331 
L 581 3500 
L 1159 3500 
L 1159 2969 
Q 1341 3281 1617 3432 
Q 1894 3584 2278 3584 
Q 2916 3584 3314 3078 
Q 3713 2572 3713 1747 
Q 3713 922 3314 415 
Q 2916 -91 2278 -91 
Q 1894 -91 1617 61 
Q 1341 213 1159 525 
z
M 3116 1747 
Q 3116 2381 2855 2742 
Q 2594 3103 2138 3103 
Q 1681 3103 1420 2742 
Q 1159 2381 1159 1747 
Q 1159 1113 1420 752 
Q 1681 391 2138 391 
Q 2594 391 2855 752 
Q 3116 1113 3116 1747 
z
" transform="scale(0.015625)"/>
      <path id="DejaVuSans-20" transform="scale(0.015625)"/>
      <path id="DejaVuSans-2b" d="M 2944 4013 
L 2944 2272 
L 4684 2272 
L 4684 1741 
L 2944 1741 
L 2944 0 
L 2419 0 
L 2419 1741 
L 678 1741 
L 678 2272 
L 2419 2272 
L 2419 4013 
L 2944 4013 
z
" transform="scale(0.015625)"/>
      <path id="DejaVuSans-6b" d="M 581 4863 
L 1159 4863 
L 1159 1991 
L 2875 3500 
L 3609 3500 
L 1753 1863 
L 3688 0 
L 2938 0 
L 1159 1709 
L 1159 0 
L 581 0 
L 581 4863 
z
" transform="scale(0.015625)"/>
      <path id="DejaVuSans-65" d="M 3597 1894 
L 3597 1613 
L 953 1613 
Q 991 1019 1311 708 
Q 1631 397 2203 397 
Q 2534 397 2845 478 
Q 3156 559 3463 722 
L 3463 178 
Q 3153 47 2828 -22 
Q 2503 -91 2169 -91 
Q 1331 -91 842 396 
Q 353 884 353 1716 
Q 353 2575 817 3079 
Q 1281 3584 2069 3584 
Q 2775 3584 3186 3129 
Q 3597 2675 3597 1894 
z
M 3022 2063 
Q 3016 2534 2758 2815 
Q 2500 3097 2075 3097 
Q 1594 3097 1305 2825 
Q 1016 2553 972 2059 
L 3022 2063 
z
" transform="scale(0.015625)"/>
      <path id="DejaVuSans-6e" d="M 3513 2113 
L 3513 0 
L 2938 0 
L 2938 2094 
Q 2938 2591 2744 2837 
Q 2550 3084 2163 3084 
Q 1697 3084 1428 2787 
Q 1159 2491 1159 1978 
L 1159 0 
L 581 0 
L 581 3500 
L 1159 3500 
L 1159 2956 
Q 1366 3272 1645 3428 
Q 1925 3584 2291 3584 
Q 2894 3584 3203 3211 
Q 3513 2838 3513 2113 
z
" transform="scale(0.015625)"/>
      <path id="DejaVuSans-73" d="M 2834 3397 
L 2834 2853 
Q 2591 2978 2328 3040 
Q 2066 3103 1784 3103 
Q 1356 3103 1142 2972 
Q 928 2841 928 2578 
Q 928 2378 1081 2264 
Q 1234 2150 1697 2047 
L 1894 2003 
Q 2506 1872 2764 1633 
Q 3022 1394 3022 966 
Q 3022 478 2636 193 
Q 2250 -91 1575 -91 
Q 1294 -91 989 -36 
Q 684 19 347 128 
L 347 722 
Q 666 556 975 473 
Q 1284 391 1588 391 
Q 1994 391 2212 530 
Q 2431 669 2431 922 
Q 2431 1156 2273 1281 
Q 2116 1406 1581 1522 
L 1381 1569 
Q 847 1681 609 1914 
Q 372 2147 372 2553 
Q 372 3047 722 3315 
Q 1072 3584 1716 3584 
Q 2034 3584 2315 3537 
Q 2597 3491 2834 3397 
z
" transform="scale(0.015625)"/>
      <path id="DejaVuSans-6f" d="M 1959 3097 
Q 1497 3097 1228 2736 
Q 959 2375 959 1747 
Q 959 1119 1226 758 
Q 1494 397 1959 397 
Q 2419 397 2687 759 
Q 2956 1122 2956 1747 
Q 2956 2369 2687 2733 
Q 2419 3097 1959 3097 
z
M 1959 3584 
Q 2709 3584 3137 3096 
Q 3566 2609 3566 1747 
Q 3566 888 3137 398 
Q 2709 -91 1959 -91 
Q 1206 -91 779 398 
Q 353 888 353 1747 
Q 353 2609 779 3096 
Q 1206 3584 1959 3584 
z
" transform="scale(0.015625)"/>
      <path id="DejaVuSans-5f" d="M 3263 -1063 
L 3263 -1509 
L -63 -1509 
L -63 -1063 
L 3263 -1063 
z
" transform="scale(0.015625)"/>
      <path id="DejaVuSans-63" d="M 3122 3366 
L 3122 2828 
Q 2878 2963 2633 3030 
Q 2388 3097 2138 3097 
Q 1578 3097 1268 2742 
Q 959 2388 959 1747 
Q 959 1106 1268 751 
Q 1578 397 2138 397 
Q 2388 397 2633 464 
Q 2878 531 3122 666 
L 3122 134 
Q 2881 22 2623 -34 
Q 2366 -91 2075 -91 
Q 1284 -91 818 406 
Q 353 903 353 1747 
Q 353 2603 823 3093 
Q 1294 3584 2113 3584 
Q 2378 3584 2631 3529 
Q 2884 3475 3122 3366 
z
" transform="scale(0.015625)"/>
      <path id="DejaVuSans-33" d="M 2597 2516 
Q 3050 2419 3304 2112 
Q 3559 1806 3559 1356 
Q 3559 666 3084 287 
Q 2609 -91 1734 -91 
Q 1441 -91 1130 -33 
Q 819 25 488 141 
L 488 750 
Q 750 597 1062 519 
Q 1375 441 1716 441 
Q 2309 441 2620 675 
Q 2931 909 2931 1356 
Q 2931 1769 2642 2001 
Q 2353 2234 1838 2234 
L 1294 2234 
L 1294 2753 
L 1863 2753 
Q 2328 2753 2575 2939 
Q 2822 3125 2822 3475 
Q 2822 3834 2567 4026 
Q 2313 4219 1838 4219 
Q 1578 4219 1281 4162 
Q 984 4106 628 3988 
L 628 4550 
Q 988 4650 1302 4700 
Q 1616 4750 1894 4750 
Q 2613 4750 3031 4423 
Q 3450 4097 3450 3541 
Q 3450 3153 3228 2886 
Q 3006 2619 2597 2516 
z
" transform="scale(0.015625)"/>
     </defs>
     <use xlink:href="#DejaVuSans-74"/>
     <use xlink:href="#DejaVuSans-72" x="39.208984"/>
     <use xlink:href="#DejaVuSans-69" x="80.322266"/>
     <use xlink:href="#DejaVuSans-6d" x="108.105469"/>
     <use xlink:href="#DejaVuSans-61" x="205.517578"/>
     <use xlink:href="#DejaVuSans-70" x="266.796875"/>
     <use xlink:href="#DejaVuSans-20" x="330.273438"/>
     <use xlink:href="#DejaVuSans-2b" x="362.060547"/>
     <use xlink:href="#DejaVuSans-20" x="445.849609"/>
     <use xlink:href="#DejaVuSans-6b" x="477.636719"/>
     <use xlink:href="#DejaVuSans-6d" x="535.546875"/>
     <use xlink:href="#DejaVuSans-65" x="632.958984"/>
     <use xlink:href="#DejaVuSans-61" x="694.482422"/>
     <use xlink:href="#DejaVuSans-6e" x="755.761719"/>
     <use xlink:href="#DejaVuSans-73" x="819.140625"/>
     <use xlink:href="#DejaVuSans-20" x="871.240234"/>
     <use xlink:href="#DejaVuSans-6f" x="903.027344"/>
     <use xlink:href="#DejaVuSans-6e" x="964.208984"/>
     <use xlink:href="#DejaVuSans-20" x="1027.587891"/>
     <use xlink:href="#DejaVuSans-6d" x="1059.375"/>
     <use xlink:href="#DejaVuSans-30" x="1156.787109"/>
     <use xlink:href="#DejaVuSans-34" x="1220.410156"/>
     <use xlink:href="#DejaVuSans-35" x="1284.033203"/>
     <use xlink:href="#DejaVuSans-5f" x="1347.65625"/>
     <use xlink:href="#DejaVuSans-63" x="1397.65625"/>
     <use xlink:href="#DejaVuSans-33" x="1452.636719"/>
     <use xlink:href="#DejaVuSans-32" x="1516.259766"/>
    </g>
   </g>
  </g>
 </g>
 <defs>
  <clipPath id="pe739a7614f">
   <rect x="57.6" y="41.472" width="357.12" height="266.112"/>
  </clipPath>
 </defs>
</svg>
