<?xml version="1.0" encoding="utf-8" standalone="no"?>
<!DOCTYPE svg PUBLIC "-//W3C//DTD SVG 1.1//EN"
  "http://www.w3.org/Graphics/SVG/1.1/DTD/svg11.dtd">
<svg xmlns:xlink="http://www.w3.org/1999/xlink" width="460.8pt" height="345.6pt" viewBox="0 0 460.8 345.6" xmlns="http://www.w3.org/2000/svg" version="1.1">
 <metadata>
  <rdf:RDF xmlns:dc="http://purl.org/dc/elements/1.1/" xmlns:cc="http://creativecommons.org/ns#" xmlns:rdf="http://www.w3.org/1999/02/22-rdf-syntax-ns#">
   <cc:Work>
    <dc:type rdf:resource="http://purl.org/dc/dcmitype/StillImage"/>
    <dc:date>2025-05-19T15:58:05.018233</dc:date>
    <dc:format>image/svg+xml</dc:format>
    <dc:creator>
     <cc:Agent>
      <dc:title>Matplotlib v3.7.5, https://matplotlib.org/</dc:title>
     </cc:Agent>
    </dc:creator>
   </cc:Work>
  </rdf:RDF>
 </metadata>
 <defs>
  <style type="text/css">*{stroke-linejoin: round; stroke-linecap: butt}</style>
 </defs>
 <g id="figure_1">
  <g id="patch_1">
   <path d="M 0 345.6 
L 460.8 345.6 
L 460.8 0 
L 0 0 
z
" style="fill: #ffffff"/>
  </g>
  <g id="axes_1">
   <g id="patch_2">
    <path d="M 57.6 307.584 
L 414.72 307.584 
L 414.72 41.472 
L 57.6 41.472 
z
" style="fill: #ffffff"/>
   </g>
   <g id="PathCollection_1">
    <defs>
     <path id="C0_0_645ed76b26" d="M 0 3 
C 0.795609 3 1.55874 2.683901 2.12132 2.12132 
C 2.683901 1.55874 3 0.795609 3 -0 
C 3 -0.795609 2.683901 -1.55874 2.12132 -2.12132 
C 1.55874 -2.683901 0.795609 -3 0 -3 
C -0.795609 -3 -1.55874 -2.683901 -2.12132 -2.12132 
C -2.683901 -1.55874 -3 -0.795609 -3 0 
C -3 0.795609 -2.683901 1.55874 -2.12132 2.12132 
C -1.55874 2.683901 -0.795609 3 0 3 
z
"/>
    </defs>
    <g clip-path="url(#p3f84602277)">
     <use xlink:href="#C0_0_645ed76b26" x="300.970195" y="228.182469" style="fill: #ff0000; stroke: #000000"/>
    </g>
    <g clip-path="url(#p3f84602277)">
     <use xlink:href="#C0_0_645ed76b26" x="97.98065" y="241.656193" style="fill: #ff0000; stroke: #000000"/>
    </g>
    <g clip-path="url(#p3f84602277)">
     <use xlink:href="#C0_0_645ed76b26" x="153.166697" y="266.915909" style="fill: #ff0000; stroke: #000000"/>
    </g>
    <g clip-path="url(#p3f84602277)">
     <use xlink:href="#C0_0_645ed76b26" x="187.233931" y="247.450299" style="fill: #ff0000; stroke: #000000"/>
    </g>
    <g clip-path="url(#p3f84602277)">
     <use xlink:href="#C0_0_645ed76b26" x="175.335705" y="262.763972" style="fill: #ff0000; stroke: #000000"/>
    </g>
    <g clip-path="url(#p3f84602277)">
     <use xlink:href="#C0_0_645ed76b26" x="251.720381" y="259.612877" style="fill: #ff0000; stroke: #000000"/>
    </g>
    <g clip-path="url(#p3f84602277)">
     <use xlink:href="#C0_0_645ed76b26" x="163.87233" y="286.016271" style="fill: #ff0000; stroke: #000000"/>
    </g>
    <g clip-path="url(#p3f84602277)">
     <use xlink:href="#C0_0_645ed76b26" x="182.1788" y="236.897416" style="fill: #ff0000; stroke: #000000"/>
    </g>
    <g clip-path="url(#p3f84602277)">
     <use xlink:href="#C0_0_645ed76b26" x="176.673755" y="247.428849" style="fill: #ff0000; stroke: #000000"/>
    </g>
    <g clip-path="url(#p3f84602277)">
     <use xlink:href="#C0_0_645ed76b26" x="196.900264" y="250.553071" style="fill: #ff0000; stroke: #000000"/>
    </g>
    <g clip-path="url(#p3f84602277)">
     <use xlink:href="#C0_0_645ed76b26" x="206.119675" y="271.729971" style="fill: #ff0000; stroke: #000000"/>
    </g>
    <g clip-path="url(#p3f84602277)">
     <use xlink:href="#C0_0_645ed76b26" x="246.437402" y="238.780715" style="fill: #ff0000; stroke: #000000"/>
    </g>
    <g clip-path="url(#p3f84602277)">
     <use xlink:href="#C0_0_645ed76b26" x="206.43715" y="280.48835" style="fill: #ff0000; stroke: #000000"/>
    </g>
    <g clip-path="url(#p3f84602277)">
     <use xlink:href="#C0_0_645ed76b26" x="235.53099" y="240.284336" style="fill: #ff0000; stroke: #000000"/>
    </g>
    <g clip-path="url(#p3f84602277)">
     <use xlink:href="#C0_0_645ed76b26" x="241.193534" y="252.53244" style="fill: #ff0000; stroke: #000000"/>
    </g>
    <g clip-path="url(#p3f84602277)">
     <use xlink:href="#C0_0_645ed76b26" x="179.894456" y="261.58032" style="fill: #ff0000; stroke: #000000"/>
    </g>
    <g clip-path="url(#p3f84602277)">
     <use xlink:href="#C0_0_645ed76b26" x="142.370362" y="243.550648" style="fill: #ff0000; stroke: #000000"/>
    </g>
    <g clip-path="url(#p3f84602277)">
     <use xlink:href="#C0_0_645ed76b26" x="233.307719" y="261.934031" style="fill: #ff0000; stroke: #000000"/>
    </g>
    <g clip-path="url(#p3f84602277)">
     <use xlink:href="#C0_0_645ed76b26" x="247.498673" y="276.449475" style="fill: #ff0000; stroke: #000000"/>
    </g>
    <g clip-path="url(#p3f84602277)">
     <use xlink:href="#C0_0_645ed76b26" x="260.026954" y="255.634678" style="fill: #ff0000; stroke: #000000"/>
    </g>
    <g clip-path="url(#p3f84602277)">
     <use xlink:href="#C0_0_645ed76b26" x="191.673825" y="233.593767" style="fill: #ff0000; stroke: #000000"/>
    </g>
    <g clip-path="url(#p3f84602277)">
     <use xlink:href="#C0_0_645ed76b26" x="183.682982" y="234.271034" style="fill: #ff0000; stroke: #000000"/>
    </g>
    <g clip-path="url(#p3f84602277)">
     <use xlink:href="#C0_0_645ed76b26" x="258.161461" y="226.677234" style="fill: #ff0000; stroke: #000000"/>
    </g>
    <g clip-path="url(#p3f84602277)">
     <use xlink:href="#C0_0_645ed76b26" x="146.91243" y="260.182325" style="fill: #ff0000; stroke: #000000"/>
    </g>
    <g clip-path="url(#p3f84602277)">
     <use xlink:href="#C0_0_645ed76b26" x="220.412108" y="220.450443" style="fill: #ff0000; stroke: #000000"/>
    </g>
    <g clip-path="url(#p3f84602277)">
     <use xlink:href="#C0_0_645ed76b26" x="101.842135" y="266.925085" style="fill: #ff0000; stroke: #000000"/>
    </g>
    <g clip-path="url(#p3f84602277)">
     <use xlink:href="#C0_0_645ed76b26" x="238.105705" y="219.596423" style="fill: #ff0000; stroke: #000000"/>
    </g>
    <g clip-path="url(#p3f84602277)">
     <use xlink:href="#C0_0_645ed76b26" x="157.306035" y="252.968876" style="fill: #ff0000; stroke: #000000"/>
    </g>
    <g clip-path="url(#p3f84602277)">
     <use xlink:href="#C0_0_645ed76b26" x="124.708616" y="239.304463" style="fill: #ff0000; stroke: #000000"/>
    </g>
    <g clip-path="url(#p3f84602277)">
     <use xlink:href="#C0_0_645ed76b26" x="246.410174" y="234.840231" style="fill: #ff0000; stroke: #000000"/>
    </g>
    <g clip-path="url(#p3f84602277)">
     <use xlink:href="#C0_0_645ed76b26" x="73.832727" y="284.122189" style="fill: #ff0000; stroke: #000000"/>
    </g>
    <g clip-path="url(#p3f84602277)">
     <use xlink:href="#C0_0_645ed76b26" x="234.111108" y="244.186224" style="fill: #ff0000; stroke: #000000"/>
    </g>
    <g clip-path="url(#p3f84602277)">
     <use xlink:href="#C0_0_645ed76b26" x="261.120456" y="179.672885" style="fill: #ff0000; stroke: #000000"/>
    </g>
    <g clip-path="url(#p3f84602277)">
     <use xlink:href="#C0_0_645ed76b26" x="113.43892" y="245.960304" style="fill: #ff0000; stroke: #000000"/>
    </g>
    <g clip-path="url(#p3f84602277)">
     <use xlink:href="#C0_0_645ed76b26" x="123.770858" y="240.530447" style="fill: #ff0000; stroke: #000000"/>
    </g>
    <g clip-path="url(#p3f84602277)">
     <use xlink:href="#C0_0_645ed76b26" x="137.102503" y="247.886971" style="fill: #ff0000; stroke: #000000"/>
    </g>
    <g clip-path="url(#p3f84602277)">
     <use xlink:href="#C0_0_645ed76b26" x="173.721697" y="268.405569" style="fill: #ff0000; stroke: #000000"/>
    </g>
    <g clip-path="url(#p3f84602277)">
     <use xlink:href="#C0_0_645ed76b26" x="130.036429" y="255.318067" style="fill: #ff0000; stroke: #000000"/>
    </g>
    <g clip-path="url(#p3f84602277)">
     <use xlink:href="#C0_0_645ed76b26" x="199.226825" y="255.702213" style="fill: #ff0000; stroke: #000000"/>
    </g>
    <g clip-path="url(#p3f84602277)">
     <use xlink:href="#C0_0_645ed76b26" x="237.666035" y="259.318789" style="fill: #ff0000; stroke: #000000"/>
    </g>
    <g clip-path="url(#p3f84602277)">
     <use xlink:href="#C0_0_645ed76b26" x="206.296823" y="274.761637" style="fill: #ff0000; stroke: #000000"/>
    </g>
    <g clip-path="url(#p3f84602277)">
     <use xlink:href="#C0_0_645ed76b26" x="189.972018" y="264.291649" style="fill: #ff0000; stroke: #000000"/>
    </g>
    <g clip-path="url(#p3f84602277)">
     <use xlink:href="#C0_0_645ed76b26" x="197.180325" y="259.571273" style="fill: #ff0000; stroke: #000000"/>
    </g>
    <g clip-path="url(#p3f84602277)">
     <use xlink:href="#C0_0_645ed76b26" x="288.304839" y="265.454209" style="fill: #ff0000; stroke: #000000"/>
    </g>
    <g clip-path="url(#p3f84602277)">
     <use xlink:href="#C0_0_645ed76b26" x="264.026813" y="177.137617" style="fill: #ff0000; stroke: #000000"/>
    </g>
    <g clip-path="url(#p3f84602277)">
     <use xlink:href="#C0_0_645ed76b26" x="347.130697" y="276.05541" style="fill: #ff0000; stroke: #000000"/>
    </g>
    <g clip-path="url(#p3f84602277)">
     <use xlink:href="#C0_0_645ed76b26" x="252.770121" y="237.560183" style="fill: #ff0000; stroke: #000000"/>
    </g>
    <g clip-path="url(#p3f84602277)">
     <use xlink:href="#C0_0_645ed76b26" x="199.273011" y="214.604752" style="fill: #ff0000; stroke: #000000"/>
    </g>
    <g clip-path="url(#p3f84602277)">
     <use xlink:href="#C0_0_645ed76b26" x="143.445645" y="225.289362" style="fill: #ff0000; stroke: #000000"/>
    </g>
    <g clip-path="url(#p3f84602277)">
     <use xlink:href="#C0_0_645ed76b26" x="147.682835" y="272.77388" style="fill: #ff0000; stroke: #000000"/>
    </g>
    <g clip-path="url(#p3f84602277)">
     <use xlink:href="#C0_0_645ed76b26" x="219.663813" y="246.30548" style="fill: #ff0000; stroke: #000000"/>
    </g>
    <g clip-path="url(#p3f84602277)">
     <use xlink:href="#C0_0_645ed76b26" x="146.683156" y="257.511391" style="fill: #ff0000; stroke: #000000"/>
    </g>
    <g clip-path="url(#p3f84602277)">
     <use xlink:href="#C0_0_645ed76b26" x="141.071046" y="262.621441" style="fill: #ff0000; stroke: #000000"/>
    </g>
    <g clip-path="url(#p3f84602277)">
     <use xlink:href="#C0_0_645ed76b26" x="256.83753" y="264.896882" style="fill: #ff0000; stroke: #000000"/>
    </g>
    <g clip-path="url(#p3f84602277)">
     <use xlink:href="#C0_0_645ed76b26" x="189.286759" y="247.271244" style="fill: #ff0000; stroke: #000000"/>
    </g>
    <g clip-path="url(#p3f84602277)">
     <use xlink:href="#C0_0_645ed76b26" x="132.515951" y="271.708715" style="fill: #ff0000; stroke: #000000"/>
    </g>
    <g clip-path="url(#p3f84602277)">
     <use xlink:href="#C0_0_645ed76b26" x="162.91583" y="270.340403" style="fill: #ff0000; stroke: #000000"/>
    </g>
    <g clip-path="url(#p3f84602277)">
     <use xlink:href="#C0_0_645ed76b26" x="93.001192" y="249.197608" style="fill: #ff0000; stroke: #000000"/>
    </g>
    <g clip-path="url(#p3f84602277)">
     <use xlink:href="#C0_0_645ed76b26" x="271.917251" y="239.556791" style="fill: #ff0000; stroke: #000000"/>
    </g>
    <g clip-path="url(#p3f84602277)">
     <use xlink:href="#C0_0_645ed76b26" x="237.040285" y="267.936271" style="fill: #ff0000; stroke: #000000"/>
    </g>
    <g clip-path="url(#p3f84602277)">
     <use xlink:href="#C0_0_645ed76b26" x="143.900163" y="237.73169" style="fill: #ff0000; stroke: #000000"/>
    </g>
    <g clip-path="url(#p3f84602277)">
     <use xlink:href="#C0_0_645ed76b26" x="197.447001" y="237.333384" style="fill: #ff0000; stroke: #000000"/>
    </g>
    <g clip-path="url(#p3f84602277)">
     <use xlink:href="#C0_0_645ed76b26" x="234.560256" y="277.03722" style="fill: #ff0000; stroke: #000000"/>
    </g>
    <g clip-path="url(#p3f84602277)">
     <use xlink:href="#C0_0_645ed76b26" x="153.705399" y="262.552932" style="fill: #ff0000; stroke: #000000"/>
    </g>
    <g clip-path="url(#p3f84602277)">
     <use xlink:href="#C0_0_645ed76b26" x="256.361722" y="252.533594" style="fill: #ff0000; stroke: #000000"/>
    </g>
    <g clip-path="url(#p3f84602277)">
     <use xlink:href="#C0_0_645ed76b26" x="211.048228" y="236.56323" style="fill: #ff0000; stroke: #000000"/>
    </g>
    <g clip-path="url(#p3f84602277)">
     <use xlink:href="#C0_0_645ed76b26" x="159.281001" y="233.206791" style="fill: #ff0000; stroke: #000000"/>
    </g>
    <g clip-path="url(#p3f84602277)">
     <use xlink:href="#C0_0_645ed76b26" x="144.237785" y="245.892139" style="fill: #ff0000; stroke: #000000"/>
    </g>
    <g clip-path="url(#p3f84602277)">
     <use xlink:href="#C0_0_645ed76b26" x="147.356741" y="274.62491" style="fill: #ff0000; stroke: #000000"/>
    </g>
    <g clip-path="url(#p3f84602277)">
     <use xlink:href="#C0_0_645ed76b26" x="243.868877" y="267.843633" style="fill: #ff0000; stroke: #000000"/>
    </g>
    <g clip-path="url(#p3f84602277)">
     <use xlink:href="#C0_0_645ed76b26" x="206.416048" y="274.740947" style="fill: #ff0000; stroke: #000000"/>
    </g>
    <g clip-path="url(#p3f84602277)">
     <use xlink:href="#C0_0_645ed76b26" x="241.921958" y="248.272968" style="fill: #ff0000; stroke: #000000"/>
    </g>
    <g clip-path="url(#p3f84602277)">
     <use xlink:href="#C0_0_645ed76b26" x="167.638377" y="260.408025" style="fill: #ff0000; stroke: #000000"/>
    </g>
    <g clip-path="url(#p3f84602277)">
     <use xlink:href="#C0_0_645ed76b26" x="105.754684" y="234.489994" style="fill: #ff0000; stroke: #000000"/>
    </g>
    <g clip-path="url(#p3f84602277)">
     <use xlink:href="#C0_0_645ed76b26" x="112.900387" y="228.112558" style="fill: #ff0000; stroke: #000000"/>
    </g>
    <g clip-path="url(#p3f84602277)">
     <use xlink:href="#C0_0_645ed76b26" x="261.045127" y="265.909655" style="fill: #ff0000; stroke: #000000"/>
    </g>
    <g clip-path="url(#p3f84602277)">
     <use xlink:href="#C0_0_645ed76b26" x="227.683697" y="238.69327" style="fill: #ff0000; stroke: #000000"/>
    </g>
    <g clip-path="url(#p3f84602277)">
     <use xlink:href="#C0_0_645ed76b26" x="238.953903" y="252.983852" style="fill: #ff0000; stroke: #000000"/>
    </g>
    <g clip-path="url(#p3f84602277)">
     <use xlink:href="#C0_0_645ed76b26" x="196.700071" y="225.731897" style="fill: #ff0000; stroke: #000000"/>
    </g>
    <g clip-path="url(#p3f84602277)">
     <use xlink:href="#C0_0_645ed76b26" x="192.669086" y="248.720018" style="fill: #ff0000; stroke: #000000"/>
    </g>
    <g clip-path="url(#p3f84602277)">
     <use xlink:href="#C0_0_645ed76b26" x="212.916537" y="242.754542" style="fill: #ff0000; stroke: #000000"/>
    </g>
    <g clip-path="url(#p3f84602277)">
     <use xlink:href="#C0_0_645ed76b26" x="158.484081" y="249.913969" style="fill: #ff0000; stroke: #000000"/>
    </g>
    <g clip-path="url(#p3f84602277)">
     <use xlink:href="#C0_0_645ed76b26" x="193.813485" y="234.923384" style="fill: #ff0000; stroke: #000000"/>
    </g>
    <g clip-path="url(#p3f84602277)">
     <use xlink:href="#C0_0_645ed76b26" x="184.518727" y="282.710062" style="fill: #ff0000; stroke: #000000"/>
    </g>
    <g clip-path="url(#p3f84602277)">
     <use xlink:href="#C0_0_645ed76b26" x="116.484061" y="254.648957" style="fill: #ff0000; stroke: #000000"/>
    </g>
    <g clip-path="url(#p3f84602277)">
     <use xlink:href="#C0_0_645ed76b26" x="90.337378" y="259.932327" style="fill: #ff0000; stroke: #000000"/>
    </g>
    <g clip-path="url(#p3f84602277)">
     <use xlink:href="#C0_0_645ed76b26" x="132.113554" y="244.471333" style="fill: #ff0000; stroke: #000000"/>
    </g>
    <g clip-path="url(#p3f84602277)">
     <use xlink:href="#C0_0_645ed76b26" x="201.169071" y="282.039773" style="fill: #ff0000; stroke: #000000"/>
    </g>
    <g clip-path="url(#p3f84602277)">
     <use xlink:href="#C0_0_645ed76b26" x="109.337541" y="270.6867" style="fill: #ff0000; stroke: #000000"/>
    </g>
    <g clip-path="url(#p3f84602277)">
     <use xlink:href="#C0_0_645ed76b26" x="272.961562" y="268.903846" style="fill: #ff0000; stroke: #000000"/>
    </g>
    <g clip-path="url(#p3f84602277)">
     <use xlink:href="#C0_0_645ed76b26" x="248.477167" y="282.233692" style="fill: #ff0000; stroke: #000000"/>
    </g>
    <g clip-path="url(#p3f84602277)">
     <use xlink:href="#C0_0_645ed76b26" x="107.803069" y="269.15442" style="fill: #ff0000; stroke: #000000"/>
    </g>
    <g clip-path="url(#p3f84602277)">
     <use xlink:href="#C0_0_645ed76b26" x="165.310532" y="250.75326" style="fill: #ff0000; stroke: #000000"/>
    </g>
    <g clip-path="url(#p3f84602277)">
     <use xlink:href="#C0_0_645ed76b26" x="291.872354" y="250.572107" style="fill: #ff0000; stroke: #000000"/>
    </g>
    <g clip-path="url(#p3f84602277)">
     <use xlink:href="#C0_0_645ed76b26" x="192.973431" y="290.103261" style="fill: #ff0000; stroke: #000000"/>
    </g>
    <g clip-path="url(#p3f84602277)">
     <use xlink:href="#C0_0_645ed76b26" x="151.383868" y="247.258681" style="fill: #ff0000; stroke: #000000"/>
    </g>
    <g clip-path="url(#p3f84602277)">
     <use xlink:href="#C0_0_645ed76b26" x="87.414377" y="241.159357" style="fill: #ff0000; stroke: #000000"/>
    </g>
    <g clip-path="url(#p3f84602277)">
     <use xlink:href="#C0_0_645ed76b26" x="224.908117" y="227.570436" style="fill: #ff0000; stroke: #000000"/>
    </g>
    <g clip-path="url(#p3f84602277)">
     <use xlink:href="#C0_0_645ed76b26" x="150.651491" y="244.714748" style="fill: #ff0000; stroke: #000000"/>
    </g>
    <g clip-path="url(#p3f84602277)">
     <use xlink:href="#C0_0_645ed76b26" x="232.678503" y="264.711618" style="fill: #ff0000; stroke: #000000"/>
    </g>
    <g clip-path="url(#p3f84602277)">
     <use xlink:href="#C0_0_645ed76b26" x="221.042846" y="233.994643" style="fill: #ff0000; stroke: #000000"/>
    </g>
    <g clip-path="url(#p3f84602277)">
     <use xlink:href="#C0_0_645ed76b26" x="249.414591" y="242.693826" style="fill: #ff0000; stroke: #000000"/>
    </g>
    <g clip-path="url(#p3f84602277)">
     <use xlink:href="#C0_0_645ed76b26" x="91.629584" y="252.751194" style="fill: #ff0000; stroke: #000000"/>
    </g>
    <g clip-path="url(#p3f84602277)">
     <use xlink:href="#C0_0_645ed76b26" x="223.403206" y="234.287589" style="fill: #ff0000; stroke: #000000"/>
    </g>
    <g clip-path="url(#p3f84602277)">
     <use xlink:href="#C0_0_645ed76b26" x="204.847442" y="262.134535" style="fill: #ff0000; stroke: #000000"/>
    </g>
    <g clip-path="url(#p3f84602277)">
     <use xlink:href="#C0_0_645ed76b26" x="135.474251" y="253.995196" style="fill: #ff0000; stroke: #000000"/>
    </g>
    <g clip-path="url(#p3f84602277)">
     <use xlink:href="#C0_0_645ed76b26" x="136.691762" y="251.843935" style="fill: #ff0000; stroke: #000000"/>
    </g>
    <g clip-path="url(#p3f84602277)">
     <use xlink:href="#C0_0_645ed76b26" x="153.448657" y="262.402559" style="fill: #ff0000; stroke: #000000"/>
    </g>
    <g clip-path="url(#p3f84602277)">
     <use xlink:href="#C0_0_645ed76b26" x="189.594066" y="256.881818" style="fill: #ff0000; stroke: #000000"/>
    </g>
    <g clip-path="url(#p3f84602277)">
     <use xlink:href="#C0_0_645ed76b26" x="302.121006" y="272.70011" style="fill: #ff0000; stroke: #000000"/>
    </g>
    <g clip-path="url(#p3f84602277)">
     <use xlink:href="#C0_0_645ed76b26" x="201.415257" y="268.958186" style="fill: #ff0000; stroke: #000000"/>
    </g>
    <g clip-path="url(#p3f84602277)">
     <use xlink:href="#C0_0_645ed76b26" x="202.19547" y="257.764339" style="fill: #ff0000; stroke: #000000"/>
    </g>
    <g clip-path="url(#p3f84602277)">
     <use xlink:href="#C0_0_645ed76b26" x="236.103005" y="284.782135" style="fill: #ff0000; stroke: #000000"/>
    </g>
    <g clip-path="url(#p3f84602277)">
     <use xlink:href="#C0_0_645ed76b26" x="180.388239" y="238.43227" style="fill: #ff0000; stroke: #000000"/>
    </g>
    <g clip-path="url(#p3f84602277)">
     <use xlink:href="#C0_0_645ed76b26" x="241.877637" y="258.303348" style="fill: #ff0000; stroke: #000000"/>
    </g>
    <g clip-path="url(#p3f84602277)">
     <use xlink:href="#C0_0_645ed76b26" x="174.876149" y="233.679079" style="fill: #ff0000; stroke: #000000"/>
    </g>
    <g clip-path="url(#p3f84602277)">
     <use xlink:href="#C0_0_645ed76b26" x="158.284801" y="251.937128" style="fill: #ff0000; stroke: #000000"/>
    </g>
    <g clip-path="url(#p3f84602277)">
     <use xlink:href="#C0_0_645ed76b26" x="199.077862" y="261.737295" style="fill: #ff0000; stroke: #000000"/>
    </g>
    <g clip-path="url(#p3f84602277)">
     <use xlink:href="#C0_0_645ed76b26" x="215.534755" y="263.142388" style="fill: #ff0000; stroke: #000000"/>
    </g>
    <g clip-path="url(#p3f84602277)">
     <use xlink:href="#C0_0_645ed76b26" x="173.42319" y="235.384421" style="fill: #ff0000; stroke: #000000"/>
    </g>
    <g clip-path="url(#p3f84602277)">
     <use xlink:href="#C0_0_645ed76b26" x="213.660818" y="254.648529" style="fill: #ff0000; stroke: #000000"/>
    </g>
    <g clip-path="url(#p3f84602277)">
     <use xlink:href="#C0_0_645ed76b26" x="200.569888" y="273.543911" style="fill: #ff0000; stroke: #000000"/>
    </g>
    <g clip-path="url(#p3f84602277)">
     <use xlink:href="#C0_0_645ed76b26" x="122.749136" y="263.948123" style="fill: #ff0000; stroke: #000000"/>
    </g>
    <g clip-path="url(#p3f84602277)">
     <use xlink:href="#C0_0_645ed76b26" x="184.634469" y="269.690958" style="fill: #ff0000; stroke: #000000"/>
    </g>
    <g clip-path="url(#p3f84602277)">
     <use xlink:href="#C0_0_645ed76b26" x="106.545527" y="213.881507" style="fill: #ff0000; stroke: #000000"/>
    </g>
    <g clip-path="url(#p3f84602277)">
     <use xlink:href="#C0_0_645ed76b26" x="186.344935" y="266.042355" style="fill: #ff0000; stroke: #000000"/>
    </g>
    <g clip-path="url(#p3f84602277)">
     <use xlink:href="#C0_0_645ed76b26" x="219.972833" y="251.027336" style="fill: #ff0000; stroke: #000000"/>
    </g>
    <g clip-path="url(#p3f84602277)">
     <use xlink:href="#C0_0_645ed76b26" x="252.284087" y="268.708433" style="fill: #ff0000; stroke: #000000"/>
    </g>
    <g clip-path="url(#p3f84602277)">
     <use xlink:href="#C0_0_645ed76b26" x="160.249943" y="250.793459" style="fill: #ff0000; stroke: #000000"/>
    </g>
    <g clip-path="url(#p3f84602277)">
     <use xlink:href="#C0_0_645ed76b26" x="165.410975" y="263.522675" style="fill: #ff0000; stroke: #000000"/>
    </g>
    <g clip-path="url(#p3f84602277)">
     <use xlink:href="#C0_0_645ed76b26" x="290.315342" y="293.89484" style="fill: #ff0000; stroke: #000000"/>
    </g>
    <g clip-path="url(#p3f84602277)">
     <use xlink:href="#C0_0_645ed76b26" x="166.387704" y="246.6094" style="fill: #ff0000; stroke: #000000"/>
    </g>
    <g clip-path="url(#p3f84602277)">
     <use xlink:href="#C0_0_645ed76b26" x="121.569694" y="262.095243" style="fill: #ff0000; stroke: #000000"/>
    </g>
    <g clip-path="url(#p3f84602277)">
     <use xlink:href="#C0_0_645ed76b26" x="187.412459" y="250.361409" style="fill: #ff0000; stroke: #000000"/>
    </g>
    <g clip-path="url(#p3f84602277)">
     <use xlink:href="#C0_0_645ed76b26" x="136.512758" y="262.233958" style="fill: #ff0000; stroke: #000000"/>
    </g>
    <g clip-path="url(#p3f84602277)">
     <use xlink:href="#C0_0_645ed76b26" x="181.714446" y="260.085386" style="fill: #ff0000; stroke: #000000"/>
    </g>
    <g clip-path="url(#p3f84602277)">
     <use xlink:href="#C0_0_645ed76b26" x="243.547176" y="224.482104" style="fill: #ff0000; stroke: #000000"/>
    </g>
    <g clip-path="url(#p3f84602277)">
     <use xlink:href="#C0_0_645ed76b26" x="232.723903" y="249.754086" style="fill: #ff0000; stroke: #000000"/>
    </g>
    <g clip-path="url(#p3f84602277)">
     <use xlink:href="#C0_0_645ed76b26" x="218.031977" y="248.197565" style="fill: #ff0000; stroke: #000000"/>
    </g>
    <g clip-path="url(#p3f84602277)">
     <use xlink:href="#C0_0_645ed76b26" x="398.487273" y="237.401737" style="fill: #ff0000; stroke: #000000"/>
    </g>
    <g clip-path="url(#p3f84602277)">
     <use xlink:href="#C0_0_645ed76b26" x="282.341283" y="241.60062" style="fill: #ff0000; stroke: #000000"/>
    </g>
    <g clip-path="url(#p3f84602277)">
     <use xlink:href="#C0_0_645ed76b26" x="203.159112" y="208.711552" style="fill: #ff0000; stroke: #000000"/>
    </g>
    <g clip-path="url(#p3f84602277)">
     <use xlink:href="#C0_0_645ed76b26" x="207.050865" y="256.895061" style="fill: #ff0000; stroke: #000000"/>
    </g>
    <g clip-path="url(#p3f84602277)">
     <use xlink:href="#C0_0_645ed76b26" x="192.844891" y="295.488" style="fill: #ff0000; stroke: #000000"/>
    </g>
    <g clip-path="url(#p3f84602277)">
     <use xlink:href="#C0_0_645ed76b26" x="161.54987" y="206.966954" style="fill: #ff0000; stroke: #000000"/>
    </g>
    <g clip-path="url(#p3f84602277)">
     <use xlink:href="#C0_0_645ed76b26" x="237.266977" y="276.050016" style="fill: #ff0000; stroke: #000000"/>
    </g>
    <g clip-path="url(#p3f84602277)">
     <use xlink:href="#C0_0_645ed76b26" x="211.210089" y="291.316632" style="fill: #ff0000; stroke: #000000"/>
    </g>
    <g clip-path="url(#p3f84602277)">
     <use xlink:href="#C0_0_645ed76b26" x="128.363203" y="243.038123" style="fill: #ff0000; stroke: #000000"/>
    </g>
    <g clip-path="url(#p3f84602277)">
     <use xlink:href="#C0_0_645ed76b26" x="204.464155" y="275.246697" style="fill: #ff0000; stroke: #000000"/>
    </g>
    <g clip-path="url(#p3f84602277)">
     <use xlink:href="#C0_0_645ed76b26" x="210.722223" y="251.306566" style="fill: #ff0000; stroke: #000000"/>
    </g>
    <g clip-path="url(#p3f84602277)">
     <use xlink:href="#C0_0_645ed76b26" x="240.878451" y="252.22731" style="fill: #ff0000; stroke: #000000"/>
    </g>
    <g clip-path="url(#p3f84602277)">
     <use xlink:href="#C0_0_645ed76b26" x="147.721664" y="260.940842" style="fill: #ff0000; stroke: #000000"/>
    </g>
    <g clip-path="url(#p3f84602277)">
     <use xlink:href="#C0_0_645ed76b26" x="250.191217" y="270.466457" style="fill: #ff0000; stroke: #000000"/>
    </g>
    <g clip-path="url(#p3f84602277)">
     <use xlink:href="#C0_0_645ed76b26" x="210.456947" y="271.351819" style="fill: #ff0000; stroke: #000000"/>
    </g>
    <g clip-path="url(#p3f84602277)">
     <use xlink:href="#C0_0_645ed76b26" x="144.570855" y="255.96639" style="fill: #ff0000; stroke: #000000"/>
    </g>
    <g clip-path="url(#p3f84602277)">
     <use xlink:href="#C0_0_645ed76b26" x="170.703931" y="261.365414" style="fill: #ff0000; stroke: #000000"/>
    </g>
    <g clip-path="url(#p3f84602277)">
     <use xlink:href="#C0_0_645ed76b26" x="187.048498" y="251.97309" style="fill: #ff0000; stroke: #000000"/>
    </g>
    <g clip-path="url(#p3f84602277)">
     <use xlink:href="#C0_0_645ed76b26" x="229.301821" y="266.852562" style="fill: #ff0000; stroke: #000000"/>
    </g>
    <g clip-path="url(#p3f84602277)">
     <use xlink:href="#C0_0_645ed76b26" x="174.620495" y="273.143732" style="fill: #ff0000; stroke: #000000"/>
    </g>
    <g clip-path="url(#p3f84602277)">
     <use xlink:href="#C0_0_645ed76b26" x="178.930112" y="245.70643" style="fill: #ff0000; stroke: #000000"/>
    </g>
    <g clip-path="url(#p3f84602277)">
     <use xlink:href="#C0_0_645ed76b26" x="254.386892" y="246.570172" style="fill: #ff0000; stroke: #000000"/>
    </g>
    <g clip-path="url(#p3f84602277)">
     <use xlink:href="#C0_0_645ed76b26" x="160.997573" y="271.79156" style="fill: #ff0000; stroke: #000000"/>
    </g>
    <g clip-path="url(#p3f84602277)">
     <use xlink:href="#C0_0_645ed76b26" x="256.884876" y="250.317193" style="fill: #ff0000; stroke: #000000"/>
    </g>
    <g clip-path="url(#p3f84602277)">
     <use xlink:href="#C0_0_645ed76b26" x="237.540484" y="253.684381" style="fill: #ff0000; stroke: #000000"/>
    </g>
    <g clip-path="url(#p3f84602277)">
     <use xlink:href="#C0_0_645ed76b26" x="202.378384" y="231.488444" style="fill: #ff0000; stroke: #000000"/>
    </g>
    <g clip-path="url(#p3f84602277)">
     <use xlink:href="#C0_0_645ed76b26" x="120.287036" y="255.410971" style="fill: #ff0000; stroke: #000000"/>
    </g>
    <g clip-path="url(#p3f84602277)">
     <use xlink:href="#C0_0_645ed76b26" x="122.081633" y="243.646159" style="fill: #ff0000; stroke: #000000"/>
    </g>
    <g clip-path="url(#p3f84602277)">
     <use xlink:href="#C0_0_645ed76b26" x="253.383856" y="253.569337" style="fill: #ff0000; stroke: #000000"/>
    </g>
    <g clip-path="url(#p3f84602277)">
     <use xlink:href="#C0_0_645ed76b26" x="147.307608" y="260.443443" style="fill: #ff0000; stroke: #000000"/>
    </g>
    <g clip-path="url(#p3f84602277)">
     <use xlink:href="#C0_0_645ed76b26" x="221.211471" y="270.718261" style="fill: #ff0000; stroke: #000000"/>
    </g>
    <g clip-path="url(#p3f84602277)">
     <use xlink:href="#C0_0_645ed76b26" x="264.051109" y="252.033493" style="fill: #ff0000; stroke: #000000"/>
    </g>
    <g clip-path="url(#p3f84602277)">
     <use xlink:href="#C0_0_645ed76b26" x="145.779278" y="257.158026" style="fill: #ff0000; stroke: #000000"/>
    </g>
    <g clip-path="url(#p3f84602277)">
     <use xlink:href="#C0_0_645ed76b26" x="290.232179" y="220.92186" style="fill: #ff0000; stroke: #000000"/>
    </g>
    <g clip-path="url(#p3f84602277)">
     <use xlink:href="#C0_0_645ed76b26" x="162.121467" y="53.568" style="fill: #ff0000; stroke: #000000"/>
    </g>
    <g clip-path="url(#p3f84602277)">
     <use xlink:href="#C0_0_645ed76b26" x="99.083078" y="240.684862" style="fill: #ff0000; stroke: #000000"/>
    </g>
    <g clip-path="url(#p3f84602277)">
     <use xlink:href="#C0_0_645ed76b26" x="220.956189" y="222.934314" style="fill: #ff0000; stroke: #000000"/>
    </g>
    <g clip-path="url(#p3f84602277)">
     <use xlink:href="#C0_0_645ed76b26" x="212.521815" y="265.13569" style="fill: #ff0000; stroke: #000000"/>
    </g>
    <g clip-path="url(#p3f84602277)">
     <use xlink:href="#C0_0_645ed76b26" x="224.120737" y="245.895252" style="fill: #ff0000; stroke: #000000"/>
    </g>
   </g>
   <g id="matplotlib.axis_1">
    <g id="xtick_1">
     <g id="line2d_1">
      <defs>
       <path id="mb5be181089" d="M 0 0 
L 0 3.5 
" style="stroke: #000000; stroke-width: 0.8"/>
      </defs>
      <g>
       <use xlink:href="#mb5be181089" x="85.815861" y="307.584" style="stroke: #000000; stroke-width: 0.8"/>
      </g>
     </g>
     <g id="text_1">
      <!-- −2 -->
      <g transform="translate(78.444767 322.182437) scale(0.1 -0.1)">
       <defs>
        <path id="DejaVuSans-2212" d="M 678 2272 
L 4684 2272 
L 4684 1741 
L 678 1741 
L 678 2272 
z
" transform="scale(0.015625)"/>
        <path id="DejaVuSans-32" d="M 1228 531 
L 3431 531 
L 3431 0 
L 469 0 
L 469 531 
Q 828 903 1448 1529 
Q 2069 2156 2228 2338 
Q 2531 2678 2651 2914 
Q 2772 3150 2772 3378 
Q 2772 3750 2511 3984 
Q 2250 4219 1831 4219 
Q 1534 4219 1204 4116 
Q 875 4013 500 3803 
L 500 4441 
Q 881 4594 1212 4672 
Q 1544 4750 1819 4750 
Q 2544 4750 2975 4387 
Q 3406 4025 3406 3419 
Q 3406 3131 3298 2873 
Q 3191 2616 2906 2266 
Q 2828 2175 2409 1742 
Q 1991 1309 1228 531 
z
" transform="scale(0.015625)"/>
       </defs>
       <use xlink:href="#DejaVuSans-2212"/>
       <use xlink:href="#DejaVuSans-32" x="83.789062"/>
      </g>
     </g>
    </g>
    <g id="xtick_2">
     <g id="line2d_2">
      <g>
       <use xlink:href="#mb5be181089" x="139.938435" y="307.584" style="stroke: #000000; stroke-width: 0.8"/>
      </g>
     </g>
     <g id="text_2">
      <!-- −1 -->
      <g transform="translate(132.567341 322.182437) scale(0.1 -0.1)">
       <defs>
        <path id="DejaVuSans-31" d="M 794 531 
L 1825 531 
L 1825 4091 
L 703 3866 
L 703 4441 
L 1819 4666 
L 2450 4666 
L 2450 531 
L 3481 531 
L 3481 0 
L 794 0 
L 794 531 
z
" transform="scale(0.015625)"/>
       </defs>
       <use xlink:href="#DejaVuSans-2212"/>
       <use xlink:href="#DejaVuSans-31" x="83.789062"/>
      </g>
     </g>
    </g>
    <g id="xtick_3">
     <g id="line2d_3">
      <g>
       <use xlink:href="#mb5be181089" x="194.061008" y="307.584" style="stroke: #000000; stroke-width: 0.8"/>
      </g>
     </g>
     <g id="text_3">
      <!-- 0 -->
      <g transform="translate(190.879758 322.182437) scale(0.1 -0.1)">
       <defs>
        <path id="DejaVuSans-30" d="M 2034 4250 
Q 1547 4250 1301 3770 
Q 1056 3291 1056 2328 
Q 1056 1369 1301 889 
Q 1547 409 2034 409 
Q 2525 409 2770 889 
Q 3016 1369 3016 2328 
Q 3016 3291 2770 3770 
Q 2525 4250 2034 4250 
z
M 2034 4750 
Q 2819 4750 3233 4129 
Q 3647 3509 3647 2328 
Q 3647 1150 3233 529 
Q 2819 -91 2034 -91 
Q 1250 -91 836 529 
Q 422 1150 422 2328 
Q 422 3509 836 4129 
Q 1250 4750 2034 4750 
z
" transform="scale(0.015625)"/>
       </defs>
       <use xlink:href="#DejaVuSans-30"/>
      </g>
     </g>
    </g>
    <g id="xtick_4">
     <g id="line2d_4">
      <g>
       <use xlink:href="#mb5be181089" x="248.183582" y="307.584" style="stroke: #000000; stroke-width: 0.8"/>
      </g>
     </g>
     <g id="text_4">
      <!-- 1 -->
      <g transform="translate(245.002332 322.182437) scale(0.1 -0.1)">
       <use xlink:href="#DejaVuSans-31"/>
      </g>
     </g>
    </g>
    <g id="xtick_5">
     <g id="line2d_5">
      <g>
       <use xlink:href="#mb5be181089" x="302.306155" y="307.584" style="stroke: #000000; stroke-width: 0.8"/>
      </g>
     </g>
     <g id="text_5">
      <!-- 2 -->
      <g transform="translate(299.124905 322.182437) scale(0.1 -0.1)">
       <use xlink:href="#DejaVuSans-32"/>
      </g>
     </g>
    </g>
    <g id="xtick_6">
     <g id="line2d_6">
      <g>
       <use xlink:href="#mb5be181089" x="356.428729" y="307.584" style="stroke: #000000; stroke-width: 0.8"/>
      </g>
     </g>
     <g id="text_6">
      <!-- 3 -->
      <g transform="translate(353.247479 322.182437) scale(0.1 -0.1)">
       <defs>
        <path id="DejaVuSans-33" d="M 2597 2516 
Q 3050 2419 3304 2112 
Q 3559 1806 3559 1356 
Q 3559 666 3084 287 
Q 2609 -91 1734 -91 
Q 1441 -91 1130 -33 
Q 819 25 488 141 
L 488 750 
Q 750 597 1062 519 
Q 1375 441 1716 441 
Q 2309 441 2620 675 
Q 2931 909 2931 1356 
Q 2931 1769 2642 2001 
Q 2353 2234 1838 2234 
L 1294 2234 
L 1294 2753 
L 1863 2753 
Q 2328 2753 2575 2939 
Q 2822 3125 2822 3475 
Q 2822 3834 2567 4026 
Q 2313 4219 1838 4219 
Q 1578 4219 1281 4162 
Q 984 4106 628 3988 
L 628 4550 
Q 988 4650 1302 4700 
Q 1616 4750 1894 4750 
Q 2613 4750 3031 4423 
Q 3450 4097 3450 3541 
Q 3450 3153 3228 2886 
Q 3006 2619 2597 2516 
z
" transform="scale(0.015625)"/>
       </defs>
       <use xlink:href="#DejaVuSans-33"/>
      </g>
     </g>
    </g>
    <g id="xtick_7">
     <g id="line2d_7">
      <g>
       <use xlink:href="#mb5be181089" x="410.551303" y="307.584" style="stroke: #000000; stroke-width: 0.8"/>
      </g>
     </g>
     <g id="text_7">
      <!-- 4 -->
      <g transform="translate(407.370053 322.182437) scale(0.1 -0.1)">
       <defs>
        <path id="DejaVuSans-34" d="M 2419 4116 
L 825 1625 
L 2419 1625 
L 2419 4116 
z
M 2253 4666 
L 3047 4666 
L 3047 1625 
L 3713 1625 
L 3713 1100 
L 3047 1100 
L 3047 0 
L 2419 0 
L 2419 1100 
L 313 1100 
L 313 1709 
L 2253 4666 
z
" transform="scale(0.015625)"/>
       </defs>
       <use xlink:href="#DejaVuSans-34"/>
      </g>
     </g>
    </g>
   </g>
   <g id="matplotlib.axis_2">
    <g id="ytick_1">
     <g id="line2d_8">
      <defs>
       <path id="mc9b4b60449" d="M 0 0 
L -3.5 0 
" style="stroke: #000000; stroke-width: 0.8"/>
      </defs>
      <g>
       <use xlink:href="#mc9b4b60449" x="57.6" y="299.710857" style="stroke: #000000; stroke-width: 0.8"/>
      </g>
     </g>
     <g id="text_8">
      <!-- −2 -->
      <g transform="translate(35.857813 303.510076) scale(0.1 -0.1)">
       <use xlink:href="#DejaVuSans-2212"/>
       <use xlink:href="#DejaVuSans-32" x="83.789062"/>
      </g>
     </g>
    </g>
    <g id="ytick_2">
     <g id="line2d_9">
      <g>
       <use xlink:href="#mc9b4b60449" x="57.6" y="251.848966" style="stroke: #000000; stroke-width: 0.8"/>
      </g>
     </g>
     <g id="text_9">
      <!-- 0 -->
      <g transform="translate(44.2375 255.648184) scale(0.1 -0.1)">
       <use xlink:href="#DejaVuSans-30"/>
      </g>
     </g>
    </g>
    <g id="ytick_3">
     <g id="line2d_10">
      <g>
       <use xlink:href="#mc9b4b60449" x="57.6" y="203.987074" style="stroke: #000000; stroke-width: 0.8"/>
      </g>
     </g>
     <g id="text_10">
      <!-- 2 -->
      <g transform="translate(44.2375 207.786293) scale(0.1 -0.1)">
       <use xlink:href="#DejaVuSans-32"/>
      </g>
     </g>
    </g>
    <g id="ytick_4">
     <g id="line2d_11">
      <g>
       <use xlink:href="#mc9b4b60449" x="57.6" y="156.125183" style="stroke: #000000; stroke-width: 0.8"/>
      </g>
     </g>
     <g id="text_11">
      <!-- 4 -->
      <g transform="translate(44.2375 159.924402) scale(0.1 -0.1)">
       <use xlink:href="#DejaVuSans-34"/>
      </g>
     </g>
    </g>
    <g id="ytick_5">
     <g id="line2d_12">
      <g>
       <use xlink:href="#mc9b4b60449" x="57.6" y="108.263291" style="stroke: #000000; stroke-width: 0.8"/>
      </g>
     </g>
     <g id="text_12">
      <!-- 6 -->
      <g transform="translate(44.2375 112.06251) scale(0.1 -0.1)">
       <defs>
        <path id="DejaVuSans-36" d="M 2113 2584 
Q 1688 2584 1439 2293 
Q 1191 2003 1191 1497 
Q 1191 994 1439 701 
Q 1688 409 2113 409 
Q 2538 409 2786 701 
Q 3034 994 3034 1497 
Q 3034 2003 2786 2293 
Q 2538 2584 2113 2584 
z
M 3366 4563 
L 3366 3988 
Q 3128 4100 2886 4159 
Q 2644 4219 2406 4219 
Q 1781 4219 1451 3797 
Q 1122 3375 1075 2522 
Q 1259 2794 1537 2939 
Q 1816 3084 2150 3084 
Q 2853 3084 3261 2657 
Q 3669 2231 3669 1497 
Q 3669 778 3244 343 
Q 2819 -91 2113 -91 
Q 1303 -91 875 529 
Q 447 1150 447 2328 
Q 447 3434 972 4092 
Q 1497 4750 2381 4750 
Q 2619 4750 2861 4703 
Q 3103 4656 3366 4563 
z
" transform="scale(0.015625)"/>
       </defs>
       <use xlink:href="#DejaVuSans-36"/>
      </g>
     </g>
    </g>
    <g id="ytick_6">
     <g id="line2d_13">
      <g>
       <use xlink:href="#mc9b4b60449" x="57.6" y="60.4014" style="stroke: #000000; stroke-width: 0.8"/>
      </g>
     </g>
     <g id="text_13">
      <!-- 8 -->
      <g transform="translate(44.2375 64.200619) scale(0.1 -0.1)">
       <defs>
        <path id="DejaVuSans-38" d="M 2034 2216 
Q 1584 2216 1326 1975 
Q 1069 1734 1069 1313 
Q 1069 891 1326 650 
Q 1584 409 2034 409 
Q 2484 409 2743 651 
Q 3003 894 3003 1313 
Q 3003 1734 2745 1975 
Q 2488 2216 2034 2216 
z
M 1403 2484 
Q 997 2584 770 2862 
Q 544 3141 544 3541 
Q 544 4100 942 4425 
Q 1341 4750 2034 4750 
Q 2731 4750 3128 4425 
Q 3525 4100 3525 3541 
Q 3525 3141 3298 2862 
Q 3072 2584 2669 2484 
Q 3125 2378 3379 2068 
Q 3634 1759 3634 1313 
Q 3634 634 3220 271 
Q 2806 -91 2034 -91 
Q 1263 -91 848 271 
Q 434 634 434 1313 
Q 434 1759 690 2068 
Q 947 2378 1403 2484 
z
M 1172 3481 
Q 1172 3119 1398 2916 
Q 1625 2713 2034 2713 
Q 2441 2713 2670 2916 
Q 2900 3119 2900 3481 
Q 2900 3844 2670 4047 
Q 2441 4250 2034 4250 
Q 1625 4250 1398 4047 
Q 1172 3844 1172 3481 
z
" transform="scale(0.015625)"/>
       </defs>
       <use xlink:href="#DejaVuSans-38"/>
      </g>
     </g>
    </g>
   </g>
   <g id="patch_3">
    <path d="M 57.6 307.584 
L 57.6 41.472 
" style="fill: none; stroke: #000000; stroke-width: 0.8; stroke-linejoin: miter; stroke-linecap: square"/>
   </g>
   <g id="patch_4">
    <path d="M 414.72 307.584 
L 414.72 41.472 
" style="fill: none; stroke: #000000; stroke-width: 0.8; stroke-linejoin: miter; stroke-linecap: square"/>
   </g>
   <g id="patch_5">
    <path d="M 57.6 307.584 
L 414.72 307.584 
" style="fill: none; stroke: #000000; stroke-width: 0.8; stroke-linejoin: miter; stroke-linecap: square"/>
   </g>
   <g id="patch_6">
    <path d="M 57.6 41.472 
L 414.72 41.472 
" style="fill: none; stroke: #000000; stroke-width: 0.8; stroke-linejoin: miter; stroke-linecap: square"/>
   </g>
   <g id="text_14">
    <!-- ica + kmeans on m045_c32 -->
    <g transform="translate(152.541562 35.472) scale(0.12 -0.12)">
     <defs>
      <path id="DejaVuSans-69" d="M 603 3500 
L 1178 3500 
L 1178 0 
L 603 0 
L 603 3500 
z
M 603 4863 
L 1178 4863 
L 1178 4134 
L 603 4134 
L 603 4863 
z
" transform="scale(0.015625)"/>
      <path id="DejaVuSans-63" d="M 3122 3366 
L 3122 2828 
Q 2878 2963 2633 3030 
Q 2388 3097 2138 3097 
Q 1578 3097 1268 2742 
Q 959 2388 959 1747 
Q 959 1106 1268 751 
Q 1578 397 2138 397 
Q 2388 397 2633 464 
Q 2878 531 3122 666 
L 3122 134 
Q 2881 22 2623 -34 
Q 2366 -91 2075 -91 
Q 1284 -91 818 406 
Q 353 903 353 1747 
Q 353 2603 823 3093 
Q 1294 3584 2113 3584 
Q 2378 3584 2631 3529 
Q 2884 3475 3122 3366 
z
" transform="scale(0.015625)"/>
      <path id="DejaVuSans-61" d="M 2194 1759 
Q 1497 1759 1228 1600 
Q 959 1441 959 1056 
Q 959 750 1161 570 
Q 1363 391 1709 391 
Q 2188 391 2477 730 
Q 2766 1069 2766 1631 
L 2766 1759 
L 2194 1759 
z
M 3341 1997 
L 3341 0 
L 2766 0 
L 2766 531 
Q 2569 213 2275 61 
Q 1981 -91 1556 -91 
Q 1019 -91 701 211 
Q 384 513 384 1019 
Q 384 1609 779 1909 
Q 1175 2209 1959 2209 
L 2766 2209 
L 2766 2266 
Q 2766 2663 2505 2880 
Q 2244 3097 1772 3097 
Q 1472 3097 1187 3025 
Q 903 2953 641 2809 
L 641 3341 
Q 956 3463 1253 3523 
Q 1550 3584 1831 3584 
Q 2591 3584 2966 3190 
Q 3341 2797 3341 1997 
z
" transform="scale(0.015625)"/>
      <path id="DejaVuSans-20" transform="scale(0.015625)"/>
      <path id="DejaVuSans-2b" d="M 2944 4013 
L 2944 2272 
L 4684 2272 
L 4684 1741 
L 2944 1741 
L 2944 0 
L 2419 0 
L 2419 1741 
L 678 1741 
L 678 2272 
L 2419 2272 
L 2419 4013 
L 2944 4013 
z
" transform="scale(0.015625)"/>
      <path id="DejaVuSans-6b" d="M 581 4863 
L 1159 4863 
L 1159 1991 
L 2875 3500 
L 3609 3500 
L 1753 1863 
L 3688 0 
L 2938 0 
L 1159 1709 
L 1159 0 
L 581 0 
L 581 4863 
z
" transform="scale(0.015625)"/>
      <path id="DejaVuSans-6d" d="M 3328 2828 
Q 3544 3216 3844 3400 
Q 4144 3584 4550 3584 
Q 5097 3584 5394 3201 
Q 5691 2819 5691 2113 
L 5691 0 
L 5113 0 
L 5113 2094 
Q 5113 2597 4934 2840 
Q 4756 3084 4391 3084 
Q 3944 3084 3684 2787 
Q 3425 2491 3425 1978 
L 3425 0 
L 2847 0 
L 2847 2094 
Q 2847 2600 2669 2842 
Q 2491 3084 2119 3084 
Q 1678 3084 1418 2786 
Q 1159 2488 1159 1978 
L 1159 0 
L 581 0 
L 581 3500 
L 1159 3500 
L 1159 2956 
Q 1356 3278 1631 3431 
Q 1906 3584 2284 3584 
Q 2666 3584 2933 3390 
Q 3200 3197 3328 2828 
z
" transform="scale(0.015625)"/>
      <path id="DejaVuSans-65" d="M 3597 1894 
L 3597 1613 
L 953 1613 
Q 991 1019 1311 708 
Q 1631 397 2203 397 
Q 2534 397 2845 478 
Q 3156 559 3463 722 
L 3463 178 
Q 3153 47 2828 -22 
Q 2503 -91 2169 -91 
Q 1331 -91 842 396 
Q 353 884 353 1716 
Q 353 2575 817 3079 
Q 1281 3584 2069 3584 
Q 2775 3584 3186 3129 
Q 3597 2675 3597 1894 
z
M 3022 2063 
Q 3016 2534 2758 2815 
Q 2500 3097 2075 3097 
Q 1594 3097 1305 2825 
Q 1016 2553 972 2059 
L 3022 2063 
z
" transform="scale(0.015625)"/>
      <path id="DejaVuSans-6e" d="M 3513 2113 
L 3513 0 
L 2938 0 
L 2938 2094 
Q 2938 2591 2744 2837 
Q 2550 3084 2163 3084 
Q 1697 3084 1428 2787 
Q 1159 2491 1159 1978 
L 1159 0 
L 581 0 
L 581 3500 
L 1159 3500 
L 1159 2956 
Q 1366 3272 1645 3428 
Q 1925 3584 2291 3584 
Q 2894 3584 3203 3211 
Q 3513 2838 3513 2113 
z
" transform="scale(0.015625)"/>
      <path id="DejaVuSans-73" d="M 2834 3397 
L 2834 2853 
Q 2591 2978 2328 3040 
Q 2066 3103 1784 3103 
Q 1356 3103 1142 2972 
Q 928 2841 928 2578 
Q 928 2378 1081 2264 
Q 1234 2150 1697 2047 
L 1894 2003 
Q 2506 1872 2764 1633 
Q 3022 1394 3022 966 
Q 3022 478 2636 193 
Q 2250 -91 1575 -91 
Q 1294 -91 989 -36 
Q 684 19 347 128 
L 347 722 
Q 666 556 975 473 
Q 1284 391 1588 391 
Q 1994 391 2212 530 
Q 2431 669 2431 922 
Q 2431 1156 2273 1281 
Q 2116 1406 1581 1522 
L 1381 1569 
Q 847 1681 609 1914 
Q 372 2147 372 2553 
Q 372 3047 722 3315 
Q 1072 3584 1716 3584 
Q 2034 3584 2315 3537 
Q 2597 3491 2834 3397 
z
" transform="scale(0.015625)"/>
      <path id="DejaVuSans-6f" d="M 1959 3097 
Q 1497 3097 1228 2736 
Q 959 2375 959 1747 
Q 959 1119 1226 758 
Q 1494 397 1959 397 
Q 2419 397 2687 759 
Q 2956 1122 2956 1747 
Q 2956 2369 2687 2733 
Q 2419 3097 1959 3097 
z
M 1959 3584 
Q 2709 3584 3137 3096 
Q 3566 2609 3566 1747 
Q 3566 888 3137 398 
Q 2709 -91 1959 -91 
Q 1206 -91 779 398 
Q 353 888 353 1747 
Q 353 2609 779 3096 
Q 1206 3584 1959 3584 
z
" transform="scale(0.015625)"/>
      <path id="DejaVuSans-35" d="M 691 4666 
L 3169 4666 
L 3169 4134 
L 1269 4134 
L 1269 2991 
Q 1406 3038 1543 3061 
Q 1681 3084 1819 3084 
Q 2600 3084 3056 2656 
Q 3513 2228 3513 1497 
Q 3513 744 3044 326 
Q 2575 -91 1722 -91 
Q 1428 -91 1123 -41 
Q 819 9 494 109 
L 494 744 
Q 775 591 1075 516 
Q 1375 441 1709 441 
Q 2250 441 2565 725 
Q 2881 1009 2881 1497 
Q 2881 1984 2565 2268 
Q 2250 2553 1709 2553 
Q 1456 2553 1204 2497 
Q 953 2441 691 2322 
L 691 4666 
z
" transform="scale(0.015625)"/>
      <path id="DejaVuSans-5f" d="M 3263 -1063 
L 3263 -1509 
L -63 -1509 
L -63 -1063 
L 3263 -1063 
z
" transform="scale(0.015625)"/>
     </defs>
     <use xlink:href="#DejaVuSans-69"/>
     <use xlink:href="#DejaVuSans-63" x="27.783203"/>
     <use xlink:href="#DejaVuSans-61" x="82.763672"/>
     <use xlink:href="#DejaVuSans-20" x="144.042969"/>
     <use xlink:href="#DejaVuSans-2b" x="175.830078"/>
     <use xlink:href="#DejaVuSans-20" x="259.619141"/>
     <use xlink:href="#DejaVuSans-6b" x="291.40625"/>
     <use xlink:href="#DejaVuSans-6d" x="349.316406"/>
     <use xlink:href="#DejaVuSans-65" x="446.728516"/>
     <use xlink:href="#DejaVuSans-61" x="508.251953"/>
     <use xlink:href="#DejaVuSans-6e" x="569.53125"/>
     <use xlink:href="#DejaVuSans-73" x="632.910156"/>
     <use xlink:href="#DejaVuSans-20" x="685.009766"/>
     <use xlink:href="#DejaVuSans-6f" x="716.796875"/>
     <use xlink:href="#DejaVuSans-6e" x="777.978516"/>
     <use xlink:href="#DejaVuSans-20" x="841.357422"/>
     <use xlink:href="#DejaVuSans-6d" x="873.144531"/>
     <use xlink:href="#DejaVuSans-30" x="970.556641"/>
     <use xlink:href="#DejaVuSans-34" x="1034.179688"/>
     <use xlink:href="#DejaVuSans-35" x="1097.802734"/>
     <use xlink:href="#DejaVuSans-5f" x="1161.425781"/>
     <use xlink:href="#DejaVuSans-63" x="1211.425781"/>
     <use xlink:href="#DejaVuSans-33" x="1266.40625"/>
     <use xlink:href="#DejaVuSans-32" x="1330.029297"/>
    </g>
   </g>
  </g>
 </g>
 <defs>
  <clipPath id="p3f84602277">
   <rect x="57.6" y="41.472" width="357.12" height="266.112"/>
  </clipPath>
 </defs>
</svg>
